<?xml version="1.0" encoding="UTF-8"?>
<svg width="102px" height="102px" viewBox="0 0 102 102" version="1.1" xmlns="http://www.w3.org/2000/svg" xmlns:xlink="http://www.w3.org/1999/xlink">
    <!-- Generator: Sketch 61.2 (89653) - https://sketch.com -->
    <title>_1</title>
    <desc>Created with Sketch.</desc>
    <g id="Page-2" stroke="none" stroke-width="1" fill="none" fill-rule="evenodd">
        <g id="home-copy-20" transform="translate(-992.000000, -479.000000)">
            <g id="Group-3" transform="translate(-462.000000, -382.000000)">
                <g id="Group-31" transform="translate(714.000000, 824.000000)">
                    <g id="parties" transform="translate(646.000000, 0.000000)">
                        <g id="Group">
                            <g id="_1" transform="translate(94.000000, 37.000000)">
                                <circle id="Oval" fill="#B8E986" cx="51" cy="51" r="51"></circle>
                                <g id="islam" transform="translate(25.000000, 25.000000)" fill="#67A32A" stroke="#B8E986">
                                    <path d="M49,9.09645251 L43.140625,11.2937311 L43.140625,3.20610098 L25.9999982,8.88809252 L25.3706871,8.67947934 L8.859375,3.20606983 L8.859375,11.2937311 L6.1571245,10.2803812 L3,9.09645251 L3,37.4121493 L8.859375,39.0783255 L8.859375,48.8265177 L26.0000054,43.952462 L26.5470376,44.1080175 L43.140625,48.8266115 L43.140625,39.0784231 L44.5935905,38.6652568 L49,37.412247 L49,9.09645251 Z" id="Path" stroke-width="4" fill-opacity="0.246803977"></path>
                                    <g id="020-quran" transform="translate(1.000000, 1.000000)" fill-rule="nonzero" stroke-width="1.1">
                                        <path d="M49.3695313,6.1202274 C48.9746094,5.84649761 48.4705078,5.78390012 48.0208008,5.95264969 L44.140625,7.40772416 L44.140625,1.46486799 C44.140625,0.994459019 43.9147461,0.552663254 43.5333008,0.277273321 C43.1518555,0.00178573117 42.6612305,-0.0736047045 42.2149414,0.0744417987 L25,5.78106809 L7.78515625,0.0744417987 C7.33867188,-0.0734093925 6.84824219,0.00188338718 6.46679688,0.277273321 C6.08535156,0.552663254 5.859375,0.994459019 5.859375,1.46486799 L5.859375,7.40772416 L1.97919922,5.95264969 C1.52949219,5.78399777 1.02548828,5.84659527 0.63046875,6.1202274 C0.235644531,6.39385952 0,6.84376073 0,7.32422828 L0,36.8163417 C0,37.4710276 0.434472656,38.0462214 1.06416016,38.2253225 L5.859375,39.5888933 L5.859375,48.5350623 C5.859375,48.9944361 6.07480469,49.4271499 6.44130859,49.7040046 C6.69853516,49.8982424 7.00917969,50 7.32431641,50 C7.45830078,50 7.59306641,49.981543 7.72490234,49.9440431 L25,45.0317508 L42.2750977,49.9441408 C42.4069336,49.9816407 42.5416016,50 42.6756836,50 C42.9908203,50 43.3014648,49.8982424 43.5586914,49.7041023 C43.9251953,49.4272475 44.140625,48.9945338 44.140625,48.5351599 L44.140625,39.588991 L48.9358398,38.2254202 C49.5655273,38.0463191 50,37.4710276 50,36.8163417 L50,7.32422828 C50,6.84376073 49.7644531,6.39385952 49.3695313,6.1202274 Z M8.7890625,27.1248621 L18.9780273,30.493799 C20.9964844,31.1666489 22.5235352,32.7350043 23.1805664,34.670058 L8.7890625,29.8993669 L8.7890625,27.1248621 Z M41.2109375,24.0391277 L30.0954102,27.7144114 C28.7024414,28.1787657 27.4729492,28.9403849 26.4648438,29.913234 L26.4648438,8.38194046 L41.2109375,3.49367149 L41.2109375,24.0391277 Z M41.2109375,27.1248621 L41.2109375,29.8994645 L26.8193359,34.6701557 C27.4762695,32.7351996 29.0026367,31.1670395 31.0185547,30.4950685 L41.2109375,27.1248621 Z M23.5351563,8.38194046 L23.5351563,29.91382 C22.5263672,28.9403849 21.2958008,28.1782775 19.9011719,27.7133372 L8.7890625,24.0391277 L8.7890625,3.49367149 L23.5351563,8.38194046 Z M8.7890625,46.595614 L8.7890625,40.4219967 L19.6444336,43.5088054 L8.7890625,46.595614 Z M41.2109375,46.595614 L30.3555664,43.5088054 L41.2109375,40.4219967 L41.2109375,46.595614 Z M47.0703125,35.7099968 L25,41.9859576 L2.9296875,35.7099968 L2.9296875,9.4379925 L5.859375,10.5366226 L5.859375,30.9569814 C5.859375,31.5884251 6.26396484,32.1487753 6.86328125,32.3474076 L24.5390625,38.2067679 C24.6626953,38.24876 24.8424805,38.2811818 25,38.2811818 C25.1549805,38.2811818 25.3371094,38.2488576 25.4609375,38.2067679 L43.1367188,32.3474076 C43.7360352,32.1487753 44.140625,31.5884251 44.140625,30.9569814 C44.140625,29.9531753 44.140625,11.5449208 44.140625,10.5366226 L47.0703125,9.4379925 L47.0703125,35.7099968 Z" id="Shape"></path>
                                    </g>
                                </g>
                            </g>
                        </g>
                    </g>
                </g>
            </g>
        </g>
    </g>
</svg>