<?xml version="1.0" encoding="UTF-8"?>
<svg width="102px" height="102px" viewBox="0 0 102 102" version="1.1" xmlns="http://www.w3.org/2000/svg" xmlns:xlink="http://www.w3.org/1999/xlink">
    <title>_2</title>
    <g id="Page-2" stroke="none" stroke-width="1" fill="none" fill-rule="evenodd">
        <g id="home-copy-20" transform="translate(-669.000000, -479.000000)">
            <g id="Group-3" transform="translate(-462.000000, -382.000000)">
                <g id="Group-31" transform="translate(714.000000, 824.000000)">
                    <g id="parties-copy" transform="translate(323.000000, 0.000000)">
                        <g id="_2" transform="translate(94.000000, 37.000000)">
                            <circle id="Oval" fill="#F5AA2E" cx="51" cy="51" r="51"></circle>
                            <g id="Group-11" transform="translate(26.000000, 34.000000)" fill-rule="nonzero">
                                <path d="M50,6.3851659 C50,2.83788835 47.0967126,0 43.5909485,0 L7.05468569,0 C6.56159367,0 6.06850165,0.2728369 5.84971446,0.764104671 C5.63046139,1.20054646 5.68549096,1.80103519 6.01393796,2.1831041 C7.10974854,3.38361741 9.1362366,6.60366308 6.01393796,10.6421753 L1.41279587,10.6421753 C0.919703855,10.6421753 0.426611836,10.9150122 0.207824646,11.4062799 C-0.011428427,11.8427217 0.0436011437,12.4432104 0.372048148,12.8252794 C1.41282915,14.0257927 3.49434679,17.2458383 0.26242383,21.2843505 C-0.0664446867,21.6663973 -0.0664446867,22.2120601 0.152799512,22.648535 C0.372052585,23.0849768 0.864711998,23.4126397 1.35777074,23.4126397 L6.06861701,23.4126397 C7.10939801,24.613153 9.13634087,27.8331987 5.95899269,31.8717108 C5.63012418,32.2537576 5.63012418,32.7994204 5.84936838,33.2358953 C6.06861258,33.6723703 6.56128086,34 7.0543396,34 L43.5906024,34 C47.1510522,34 49.9994787,31.1076283 49.9994787,27.6148341 C49.9994787,24.0675565 47.0963665,21.2296682 43.5906024,21.2296682 L42.7149101,21.2300999 C43.7010942,20.0839594 44.3033468,18.66496 44.3033468,17.028027 C44.3033468,15.390652 43.7006283,13.9716525 42.7149101,12.8259542 L43.5364381,12.8259542 C47.0968879,12.8255224 50,9.93314036 50,6.38553126 L50,6.3851659 Z" id="Path" fill="#D18A15"></path>
                                <path d="M7.05468569,-0.6 L43.5909485,-0.6 C45.5149416,-0.6 47.2731297,0.181479072 48.5471234,1.45072479 C49.8122435,2.71112993 50.6,4.45195988 50.6,6.3851659 C50.6,8.32459285 49.8071335,10.0851803 48.5270265,11.360777 C47.3822997,12.5014704 45.8481533,13.25402 44.1444339,13.3999812 L43.886,13.416 L44.0051508,13.6158177 C44.5288278,14.5366882 44.8471645,15.5752826 44.8965839,16.7147691 L44.9033468,17.028027 C44.9033468,18.2906292 44.5766825,19.4352202 44.0053634,20.4399503 L43.888,20.636 C45.5980174,20.7089929 47.1568832,21.3951017 48.3415443,22.4840658 L48.5466712,22.6803751 C49.8117567,23.9407802 50.5994787,25.681617 50.5994787,27.6148341 C50.5994787,29.5328146 49.8149916,31.2856651 48.5402339,32.5557066 C47.3424944,33.749015 45.7123339,34.5160855 43.8951551,34.5935242 L43.5906024,34.6 L7.0543396,34.6 C6.69961267,34.6 6.34316678,34.4883184 6.03580582,34.2934125 C5.72766662,34.0980132 5.47151355,33.8203704 5.31320763,33.5052124 C5.14973041,33.1797592 5.07401287,32.8117191 5.1025114,32.4570783 C5.13065305,32.1068787 5.25824468,31.7696054 5.49748006,31.487933 C6.63415697,30.038521 7.05455677,28.7073882 7.06952453,27.5524136 C7.08895438,26.053125 6.43502896,24.8684121 5.88816334,24.1431973 L5.78707117,24.0126397 L1.35777074,24.0126397 C1.0030522,24.0126397 0.646616746,23.9009557 0.339261029,23.7060531 C0.0311203199,23.5106528 -0.225036284,23.2330112 -0.38336123,22.917852 C-0.546838456,22.5923989 -0.622555992,22.2243588 -0.59405746,21.869718 C-0.565832597,21.5184828 -0.437568712,21.1802505 -0.196921361,20.8980509 C0.955562715,19.4537813 1.38160686,18.1272593 1.39653577,16.9752826 C1.41943611,15.2081968 0.490310051,13.8776501 -0.0829408256,13.2164124 C-0.32203177,12.9382877 -0.467747807,12.5832677 -0.510364979,12.2150272 C-0.553027729,11.8463929 -0.491587258,11.4680362 -0.334047423,11.1483421 C-0.177378907,10.8040214 0.0707945742,10.5330305 0.367200206,10.3450717 C0.62760506,10.179942 0.925518654,10.0796837 1.22974911,10.0508512 L1.41279587,10.0421753 L5.71409058,10.0421753 C6.71230249,8.67009921 7.07852312,7.40839547 7.07852312,6.30787782 C7.07852312,4.55985175 6.16814585,3.24203578 5.57078964,2.58760326 C5.31985804,2.29611244 5.17414201,1.94109241 5.13152484,1.57285192 C5.08886209,1.2042176 5.15030256,0.825860979 5.30784239,0.50616685 C5.46451091,0.161846101 5.71268439,-0.109144785 6.00909002,-0.297103569 C6.32157585,-0.495259237 6.68807426,-0.6 7.05468569,-0.6 Z M43.6542129,24.0128276 L9.71432422,24.0128276 L9.79590272,24.2068197 C10.5191866,25.9781473 10.9303532,28.4309368 9.63579711,31.2175258 L9.63579711,31.2175258 L43.5925014,31.2175258 L43.8200747,31.2104408 C44.7238474,31.1540327 45.5457198,30.7640691 46.1540558,30.1579837 C46.8043095,29.5101356 47.210178,28.6147922 47.210178,27.615453 C47.2099918,26.6102263 46.8002285,25.698188 46.1502888,25.0421464 C45.5025431,24.3883194 44.6145113,23.9875199 43.6542129,24.0128276 L43.6542129,24.0128276 Z M23.2693245,25.9241273 C23.7612703,25.9238045 24.1894326,26.1104566 24.4982198,26.4035013 C24.5808823,26.4819494 24.6551529,26.5681364 24.719972,26.6608041 C24.7782192,26.5745599 24.8456904,26.4937145 24.9200161,26.4196637 C25.1888668,26.1518077 25.5470626,25.9733046 25.9445399,25.932864 L26.1171464,25.9241272 L35.1002583,25.9241273 C35.5664752,25.9237937 35.9905798,26.1131418 36.2979624,26.4192632 C36.6061309,26.7261674 36.7965094,27.1498741 36.7965094,27.615453 C36.7965094,28.0809446 36.6062249,28.5044182 36.2982616,28.8112421 C36.029411,29.079098 35.6712153,29.2576011 35.2737379,29.2980416 L35.1011314,29.3067785 L26.1171464,29.3067785 C25.6510448,29.3067785 25.2272225,29.1173119 24.9200678,28.8112935 C24.8463095,28.7378081 24.7793059,28.6576344 24.7200506,28.5718013 C24.6621445,28.6576339 24.5951568,28.7377814 24.5214233,28.8112421 C24.2525727,29.079098 23.8943769,29.2576011 23.4968995,29.2980416 L23.3242931,29.3067785 L20.8046464,29.3067785 C20.3385448,29.3067785 19.9147226,29.1173119 19.6075678,28.8112935 C19.2995013,28.5043667 19.1092685,28.0807619 19.1092685,27.615453 C19.1092685,27.1499614 19.2995529,26.7264877 19.6075162,26.4196637 C19.8763668,26.1518077 20.2345626,25.9733046 20.6320399,25.932864 L20.8046464,25.9241272 L23.2693245,25.9241273 Z M42.0575303,25.9241275 C42.5236319,25.9241275 42.9474541,26.113594 43.2546089,26.4196125 C43.5626754,26.7265393 43.7529082,27.150144 43.7529082,27.615453 C43.7529082,28.0809446 43.5626237,28.5044182 43.2546605,28.8112421 C42.9858099,29.079098 42.6276141,29.2576011 42.2301367,29.2980416 L42.0575303,29.3067785 L39.5924584,29.3067785 C39.1266154,29.3067785 38.7026946,29.1173098 38.3954351,28.811187 C38.0873668,28.5042584 37.8970804,28.0806861 37.8970804,27.615453 C37.8970804,27.1499613 38.0873649,26.7264878 38.3953282,26.4196639 C38.6641788,26.1518079 39.0223746,25.9733048 39.4198519,25.9328643 L39.5924584,25.9241275 L42.0575303,25.9241275 Z M26.0645481,13.4254679 L3.9818261,13.4254679 L4.09148516,13.6792025 C4.48496129,14.6269445 4.7776905,15.7643018 4.76941001,17.0390327 C4.76223902,18.1429632 4.53090005,19.3515704 3.93821189,20.6301662 L3.93821189,20.6301662 L7.05501846,20.6301662 L38.1461005,20.6297348 L38.3792428,20.6035823 C39.2262273,20.4814377 39.9833292,20.073518 40.5415042,19.4788065 C41.1433059,18.8376125 41.5132143,17.9787225 41.5132143,17.0276616 C41.5129282,16.0171413 41.1107714,15.1118344 40.4338242,14.4629532 C39.7579528,13.8151033 38.8120899,13.4254679 37.7292632,13.4254679 L37.7292632,13.4254679 L36.6311223,13.4254679 L36.6311223,15.7178429 L36.6244654,15.8784041 C36.5756502,16.4553302 36.2583859,16.9038541 35.673431,17.2695014 C35.4522371,17.3433454 35.1562802,17.4095972 34.9357443,17.4095972 C34.5935313,17.4095972 34.2555171,17.3150098 34.000761,17.1455813 L34.000761,17.1455813 L31.3203228,15.3976742 L28.6353522,17.148563 L28.4757582,17.2426012 C28.256112,17.3567987 28.0112881,17.4253472 27.7681544,17.4374207 C27.4560113,17.452921 27.1472055,17.3774776 26.8802631,17.2001684 C26.3845326,16.8704761 26.0645481,16.2907289 26.0645481,15.7178396 L26.0645481,15.7178396 L26.0645481,13.4254679 Z M33.4056425,7.31283984 L29.5659468,7.31283984 L29.5656195,12.5884951 L30.5542183,11.9412316 L30.6870527,11.8637455 C30.9190009,11.7450758 31.2006446,11.6795945 31.4855966,11.6795945 C31.8278096,11.6795945 32.1658238,11.774182 32.4205799,11.9436105 L32.4205799,11.9436105 L33.4056425,12.5885492 L33.4056425,7.31283984 Z M43.5906157,2.78309305 L9.77511079,2.92772226 L9.85271945,3.12056333 C9.99507562,3.48521703 10.1232044,3.87720357 10.225668,4.2936755 C10.4711849,4.09994213 10.7721433,3.97280445 11.0997836,3.93947529 L11.2723623,3.93074141 L24.0353181,3.93074141 C24.5014197,3.93074141 24.925242,4.12020796 25.2323968,4.42622639 C25.5404633,4.7331532 25.7306961,5.15675795 25.7306961,5.62206691 C25.7306961,6.08755854 25.5404116,6.51103211 25.2324484,6.81785602 C24.9635978,7.08571198 24.605402,7.26421506 24.2079246,7.30465558 L24.0353181,7.31339241 L11.2723623,7.31339241 C10.9690128,7.31339241 10.6835004,7.23313044 10.4363905,7.09270516 C10.3519829,8.00181613 10.1067418,8.97236949 9.63525087,9.98723876 L9.63525087,9.98723876 L26.1192438,9.98723876 L26.1192438,5.62096177 L26.1280195,5.44857223 C26.1686431,5.05157472 26.3479849,4.69368221 26.6175431,4.42512125 C26.9246979,4.11910282 27.3485201,3.92963627 27.8146217,3.92963627 L27.8146217,3.92963627 L35.1006124,3.93006805 L35.2732071,3.93880488 C35.6706606,3.9792454 36.0288564,4.15774848 36.297707,4.42560443 C36.6056703,4.73242835 36.7959548,5.15590191 36.7959548,5.62139355 L36.7959548,5.62139355 L36.7959548,9.9876355 L43.5905807,9.98723876 L43.8181614,9.98015376 C44.7219617,9.92374566 45.5438341,9.53378199 46.15217,8.92769664 C46.8024238,8.27984853 47.2082923,7.38450512 47.2082923,6.3851659 C47.2082923,5.39706545 46.8039586,4.49201237 46.1457386,3.83622756 C45.494682,3.18757956 44.5947988,2.78309305 43.5906157,2.78309305 L43.5906157,2.78309305 Z M41.2358027,3.93074141 C41.7019043,3.93074141 42.1257265,4.12020796 42.4328813,4.42622639 C42.7409478,4.7331532 42.9311806,5.15675795 42.9311806,5.62206691 C42.9311806,6.08755854 42.7408961,6.51103211 42.4329329,6.81785602 C42.1640823,7.08571198 41.8058865,7.26421506 41.4084091,7.30465558 L41.2358027,7.31339241 L38.716156,7.31339241 C38.2500544,7.31339241 37.8262322,7.12392586 37.5190774,6.81790743 C37.2110109,6.51098062 37.0207781,6.08737587 37.0207781,5.62206691 C37.0207781,5.15657528 37.2110626,4.73310171 37.5190258,4.4262778 C37.7878764,4.15842184 38.1460722,3.97991876 38.5435496,3.93947824 L38.716156,3.93074141 L41.2358027,3.93074141 Z" id="Shape" stroke="#C68110" stroke-width="1.2" fill="#F5AA2E"></path>
                            </g>
                        </g>
                    </g>
                </g>
            </g>
        </g>
    </g>
</svg>