<?xml version="1.0" encoding="UTF-8"?>
<svg width="102px" height="102px" viewBox="0 0 102 102" version="1.1" xmlns="http://www.w3.org/2000/svg" xmlns:xlink="http://www.w3.org/1999/xlink">
    <!-- Generator: Sketch 61.2 (89653) - https://sketch.com -->
    <title>_3</title>
    <desc>Created with Sketch.</desc>
    <g id="Page-2" stroke="none" stroke-width="1" fill="none" fill-rule="evenodd">
        <g id="home-copy-20" transform="translate(-346.000000, -479.000000)">
            <g id="Group-3" transform="translate(-462.000000, -382.000000)">
                <g id="Group-31" transform="translate(714.000000, 824.000000)">
                    <g id="parties-copy-2">
                        <g id="Group">
                            <g id="_3" transform="translate(94.000000, 37.000000)">
                                <circle id="Oval" fill="#97DB4D" cx="51" cy="51" r="51"></circle>
                                <g id="005-islam45" transform="translate(51.000000, 51.500000) scale(-1, -1) translate(-51.000000, -51.500000) translate(33.000000, 28.000000)" stroke="#4B8809">
                                    <path d="M24.0893738,10.5 L9.91068948,10.5 C9.61622063,11.9130927 8.74321154,13.1242527 7.5,13.8322678 L7.5,37.1679914 C8.39265472,37.6764376 9.10239687,38.4497802 9.53941079,39.3859834 C9.70530537,39.741287 9.82987986,40.1147774 9.91043184,40.5 L24.089517,40.5 C24.1701277,40.1147361 24.2947096,39.7412549 24.4605692,39.3860263 C24.8975619,38.4498686 25.6073729,37.6764917 26.5,37.1680085 L26.5,13.8321299 C25.2570159,13.1242156 24.3840264,11.9130821 24.0893738,10.5 Z" id="Shape" stroke-opacity="0.85" fill-rule="nonzero"></path>
                                    <path d="M0.504322524,4.76975856 C0.504252848,4.77024285 0.504181126,4.77074089 0.504107199,4.77125424 C0.504053475,4.77164367 0.504053475,4.77164367 0.50400428,4.7720001 C0.50408727,4.77255976 0.504134984,4.77288152 0.504322524,4.76975856 Z M0.50628425,4.75500027 L0.50628425,45.389041 C0.50628425,45.5483074 0.635391984,45.6774151 0.794658341,45.6774151 L32.8432846,45.6774151 C33.0026173,45.6774151 33.1316587,45.5483907 33.1316587,45.389041 L33.1316587,41.7356943 L35.2084069,41.7356943 C35.3677311,41.7356943 35.4967809,41.6066783 35.4967809,41.4474698 L35.4967809,0.788374091 C35.4967809,0.629165615 35.3675815,0.5 35.2082572,0.5 L3.42222285,0.5 C3.32731719,0.5 3.23855718,0.546664871 3.18474321,0.624894934 L0.557226429,4.44303777 C0.518883776,4.49883811 0.501843993,4.56632818 0.510108292,4.71208644 C0.508001555,4.73717853 0.507154664,4.74726535 0.50628425,4.75500027 Z M29.8146784,38.6897316 C29.8146784,39.139991 29.5368618,39.5435353 29.1163013,39.7041583 C28.468871,39.9514033 27.9248453,40.3822202 27.5427973,40.9409339 C27.2635861,41.349446 27.0786241,41.8162644 27.0020166,42.3116336 C26.9764249,42.477511 26.9627139,42.6422706 26.9613122,42.8057639 C26.9563197,43.4018079 26.4714494,43.8825699 25.8753983,43.8825699 L7.76224542,43.8825699 C7.16604401,43.8825699 6.68132286,43.4019565 6.67633232,42.8058627 C6.674925,42.6417189 6.6612748,42.4769041 6.63578457,42.3116847 C6.55929101,41.8162179 6.37435976,41.3494772 6.09501118,40.9409562 C5.71313671,40.3823027 5.16902093,39.951441 4.52157853,39.7041914 C4.10086386,39.5436154 3.82296531,39.1400666 3.82296531,38.6897316 L3.82296531,11.4292548 C3.82296531,10.9789954 4.10078187,10.575451 4.52124011,10.4148671 C5.82007081,9.91853516 6.66460165,8.7029076 6.67633146,7.31292516 C6.68132286,6.71673056 7.16604401,6.23611721 7.76224542,6.23611721 L25.8753983,6.23611721 C26.4714386,6.23611721 26.9563196,6.71671865 26.9613115,7.3126961 C26.9731723,8.70301422 27.8176909,9.91866081 29.1162148,10.414795 C29.5369351,10.5753731 29.8146784,10.9789257 29.8146784,11.4292548 L29.8146784,38.6897316 Z M34.9198831,41.1587965 L33.1315091,41.1587965 L33.1315091,4.7299453 C33.1315091,4.57061258 33.0024846,4.44157121 32.843135,4.44157121 L3.61805354,4.44157121 L5.93385034,1.07644893 L34.9198831,1.07644893 L34.9198831,41.1587965 Z" id="Shape" stroke-opacity="0.45" fill-opacity="0.65" fill="#4B8809" fill-rule="nonzero"></path>
                                    <g id="Group-4" transform="translate(12.000000, 12.000000)" stroke-opacity="0.849541084">
                                        <path d="M3.93587368,22.4345935 C4.03421939,22.3657133 4.14219751,22.3178866 4.25635939,22.2891662 C4.34911592,22.1812215 4.45007784,22.0933567 4.55841271,22.0271539 C4.77769867,21.7555275 5.01149269,21.599756 5.01149269,21.599756 C5.01149269,21.599756 5.24552456,21.7554058 5.46469159,22.0271539 C5.57314538,22.0933567 5.67434514,22.1813432 5.76698275,22.2891662 C5.88138247,22.3178866 5.98936059,22.3657133 6.08758738,22.4345935 C6.47062428,22.7034209 6.61582393,23.2262287 6.52164038,23.7982018 C6.5799105,23.8737753 6.6117807,23.9549468 6.6117807,24.0396475 C6.6117807,24.1244699 6.5799105,24.2052764 6.52164038,24.2808498 C6.61582393,24.852823 6.47050536,25.3753874 6.08758738,25.6443365 C5.98936059,25.7134601 5.88138247,25.7616519 5.76698275,25.7897637 C5.67434514,25.8975868 5.57314538,25.9859384 5.46469159,26.0517761 C5.24552456,26.3236459 5.01184945,26.4792956 5.01184945,26.4792956 C5.01184945,26.4792956 4.77769867,26.3237676 4.55841271,26.0517761 C4.45007784,25.9859384 4.34911592,25.8974651 4.25635939,25.7897637 C4.14219751,25.7616519 4.03410047,25.7134601 3.93587368,25.6443365 C3.55283678,25.3753874 3.40751821,24.852823 3.50182068,24.2808498 C3.44355055,24.2052764 3.41179928,24.1244699 3.41179928,24.0396475 C3.41179928,23.9549468 3.44355055,23.8737753 3.50182068,23.7982018 C3.40751821,23.2262287 3.55283678,22.7034209 3.93587368,22.4345935 Z" id="Path"></path>
                                        <path d="M1.67259053,8.17120004 C1.98653572,7.95080783 2.33116191,7.79820052 2.69600426,7.70802347 C2.99092247,7.36362261 3.3141433,7.08116522 3.65853165,6.87136059 C4.36003265,6.00305665 5.10577138,5.50702204 5.10577138,5.50702204 C5.10577138,5.50702204 5.85162903,6.00305665 6.55313003,6.8711172 C6.89751838,7.08104352 7.22085814,7.36362261 7.51589526,7.70802347 C7.88097545,7.79807882 8.22548272,7.95080783 8.53930899,8.17120004 C9.76155467,9.02915979 10.2249806,10.6976177 9.92447319,12.523064 C10.110343,12.7639012 10.2117806,13.0229929 10.2117806,13.2932806 C10.2117806,13.5634467 10.1102241,13.8225383 9.92447319,14.0636189 C10.2249806,15.8888218 9.76167359,17.5574014 8.53930899,18.4152395 C8.22536381,18.6356317 7.88097545,18.7883607 7.51589526,18.8785377 C7.22097706,19.2229386 6.8976373,19.505396 6.55313003,19.7152006 C5.85174795,20.5832612 5.10612814,21.0792958 5.10612814,21.0792958 C5.10612814,21.0792958 4.36015157,20.5835046 3.65853165,19.7153223 C3.31402438,19.5055177 2.99092247,19.2229386 2.69588534,18.8785377 C2.33092407,18.7884824 1.9864168,18.6356317 1.67247161,18.4152395 C0.450344852,17.5574014 -0.0130810493,15.8888218 0.287545248,14.0636189 C0.101675429,13.8224166 -4.62829762e-13,13.5634467 -4.62829762e-13,13.2932806 C-4.62829762e-13,13.0229929 0.101675429,12.7639012 0.287545248,12.523064 C-0.0130810493,10.697496 0.450463771,9.0290381 1.67259053,8.17120004 Z" id="Path"></path>
                                        <path d="M5.46469159,4.45189839 C5.24552456,4.72364649 5.01184945,4.87929621 5.01184945,4.87929621 C5.01184945,4.87929621 4.77769867,4.72364649 4.55841271,4.45189839 C4.45673728,4.38983322 4.36195913,4.30780983 4.27395935,4.20911403 C4.26813234,4.20254243 4.26206749,4.1965793 4.25635939,4.1900077 C4.14219751,4.16128734 4.03410047,4.11358235 3.93587368,4.04458048 C3.55283678,3.77575309 3.40751821,3.25282358 3.50182068,2.6809721 C3.44355055,2.60539863 3.41179928,2.52434881 3.41179928,2.43952641 C3.41179928,2.35470401 3.44355055,2.27389758 3.50182068,2.19808072 C3.40751821,1.62647264 3.55283678,1.10378652 3.93587368,0.834715736 C4.03421939,0.765713867 4.14219751,0.717643781 4.25635939,0.689288516 C4.34911592,0.581465489 4.45007784,0.493235585 4.55841271,0.427276126 C4.77769867,0.155528023 5.01149269,-9.23261443e-14 5.01149269,-9.23261443e-14 C5.01149269,-9.23261443e-14 5.24552456,0.155406327 5.46469159,0.427276126 C5.57314538,0.493235585 5.67434514,0.581587185 5.76698275,0.689288516 C5.88138247,0.717643781 5.98936059,0.765713867 6.08758738,0.834715736 C6.47062428,1.10378652 6.61582393,1.62647264 6.52164038,2.19808072 C6.5799105,2.27389758 6.6117807,2.35470401 6.6117807,2.43952641 C6.6117807,2.52434881 6.5799105,2.60539863 6.52164038,2.6809721 C6.61582393,3.25282358 6.47050536,3.77575309 6.08758738,4.04458048 C5.98936059,4.11358235 5.88138247,4.16128734 5.76698275,4.1900077 C5.76127466,4.196701 5.7552098,4.20266412 5.74938279,4.20911403 C5.66138301,4.30793153 5.56636702,4.38995491 5.46469159,4.45189839 Z" id="Path"></path>
                                    </g>
                                </g>
                            </g>
                        </g>
                    </g>
                </g>
            </g>
        </g>
    </g>
</svg>