<?xml version="1.0" encoding="UTF-8"?>
<svg width="102px" height="102px" viewBox="0 0 102 102" version="1.1" xmlns="http://www.w3.org/2000/svg" xmlns:xlink="http://www.w3.org/1999/xlink">
    <!-- Generator: Sketch 61.2 (89653) - https://sketch.com -->
    <title>_4</title>
    <desc>Created with Sketch.</desc>
    <g id="Page-2" stroke="none" stroke-width="1" fill="none" fill-rule="evenodd">
        <g id="home-copy-20" transform="translate(-832.000000, -869.000000)">
            <g id="Group-3" transform="translate(-462.000000, -382.000000)">
                <g id="Group-31" transform="translate(714.000000, 824.000000)">
                    <g id="Group-5" transform="translate(162.000000, 386.000000)">
                        <g id="parties-copy-3" transform="translate(324.000000, 0.000000)">
                            <g id="Group">
                                <g id="_4" transform="translate(94.000000, 41.000000)">
                                    <circle id="Oval" fill="#50E3C2" cx="51" cy="51" r="51"></circle>
                                    <g id="question" transform="translate(27.000000, 27.000000)" fill="#16866D">
                                        <path d="M47.1859205,31.9334403 C47.1859205,25.0556403 42.5516404,19.0465202 36.0165604,17.2357201 C35.6058003,7.66224008 27.6901203,0 18.0172802,0 C8.0823601,0 0,8.0823601 0,18.0172802 C0,21.2551202 0.861839962,24.4076403 2.49840002,27.1753203 L0.0662400007,35.9679604 L8.85924006,33.5361603 C11.4033601,35.0406004 14.2732801,35.8880403 17.2353602,36.0158404 C19.0458002,42.5512805 25.0552803,47.1859205 31.9334403,47.1859205 C34.6788003,47.1859205 37.3485603,46.4547604 39.6943204,45.0655205 L47.1193205,47.1193205 L45.0655205,39.6943204 C46.4547604,37.3485603 47.1859205,34.6788003 47.1859205,31.9334403 Z M9.29556007,30.5467203 L4.03164006,32.0029203 L5.48784005,26.7390003 L5.15592001,26.2198802 C3.59172001,23.7726003 2.76480003,20.9361602 2.76480003,18.0172802 C2.76480003,9.60696014 9.60696014,2.76480003 18.0172802,2.76480003 C26.4276002,2.76480003 33.2697603,9.60696014 33.2697603,18.0172802 C33.2697603,26.4276002 26.4276002,33.2697603 18.0172802,33.2697603 C15.0984001,33.2697603 12.2623202,32.4428403 9.81468012,30.8786404 L9.29556007,30.5467203 Z M43.1542804,43.1542804 L39.2482804,42.0735604 L38.7266404,42.4130405 C36.7045203,43.7266805 34.3551604,44.4211204 31.9334403,44.4211204 C26.5276803,44.4211204 21.7774802,40.9258804 20.0944802,35.9139603 C28.3723203,34.9596004 34.9596004,28.3723203 35.9143203,20.0941202 C40.9258804,21.7774802 44.4211204,26.5276803 44.4211204,31.9334403 C44.4211204,34.3551604 43.7266805,36.7045203 42.4130405,38.7266404 L42.0735604,39.2482804 L43.1542804,43.1542804 Z" id="Shape" stroke="#50E3C2" stroke-width="0.7" fill-opacity="0.9" fill-rule="nonzero"></path>
                                        <path d="M41.8632664,41.8632664 L41.0979844,39.0973403 L41.3192349,38.7573701 L41.6583154,38.2363446 C42.877009,36.3603779 43.5211204,34.1813643 43.5211204,31.9334403 C43.5211204,27.3234292 40.7688848,23.178808 36.6407024,21.3417418 C35.2568921,29.1140903 29.1140816,35.2568979 21.3420181,36.6403949 C23.1787528,40.7687792 27.3233104,43.5211204 31.9334403,43.5211204 C34.1813643,43.5211204 36.3603779,42.877009 38.2357301,41.6587149 L39.0973403,41.0979844 L41.8632664,41.8632664 Z" id="Path" stroke="#50E3C2" stroke-width="1.8" opacity="0.3"></path>
                                        <polygon id="Path" fill-rule="nonzero" points="16.6348802 24.9753602 19.3996802 24.9753602 19.3996802 27.7401603 16.6348802 27.7401603"></polygon>
                                        <path d="M20.7820802,13.8240001 C20.7820802,14.6091601 20.4624002,15.3338401 19.8820802,15.8648401 L16.6348802,18.8370002 L16.6348802,22.2105602 L19.3996802,22.2105602 L19.3996802,20.0545202 L21.7486802,17.9046002 C22.8913203,16.8588002 23.5468802,15.3716402 23.5468802,13.8240001 C23.5468802,10.7748001 21.0664803,8.29440008 18.0172802,8.29440008 C14.9680801,8.29440008 12.4876801,10.7748001 12.4876801,13.8240001 L15.2524802,13.8240001 C15.2524802,12.2994001 16.4926801,11.0592001 18.0172802,11.0592001 C19.5418802,11.0592001 20.7820802,12.2994001 20.7820802,13.8240001 Z" id="Path" fill-rule="nonzero"></path>
                                    </g>
                                </g>
                            </g>
                        </g>
                    </g>
                </g>
            </g>
        </g>
    </g>
</svg>