<?xml version="1.0" encoding="UTF-8"?>
<svg width="102px" height="102px" viewBox="0 0 102 102" version="1.1" xmlns="http://www.w3.org/2000/svg" xmlns:xlink="http://www.w3.org/1999/xlink">
    <!-- Generator: Sketch 61.2 (89653) - https://sketch.com -->
    <title>_5</title>
    <desc>Created with Sketch.</desc>
    <g id="Page-2" stroke="none" stroke-width="1" fill="none" fill-rule="evenodd">
        <g id="home-copy-20" transform="translate(-508.000000, -869.000000)">
            <g id="Group-3" transform="translate(-462.000000, -382.000000)">
                <g id="Group-31" transform="translate(714.000000, 824.000000)">
                    <g id="Group-5" transform="translate(162.000000, 386.000000)">
                        <g id="parties-copy-4">
                            <g id="Group">
                                <g id="_5" transform="translate(94.000000, 41.000000)">
                                    <circle id="Oval" fill="#8DBCF3" cx="51" cy="51" r="51"></circle>
                                    <g id="islam" transform="translate(32.000000, 32.000000)"></g>
                                    <g id="023-flag-1" transform="translate(31.000000, 26.000000)" fill="#3473BD" fill-rule="nonzero">
                                        <path d="M20.6399038,3.93599997 L2.87999998,3.93599997 L2.87999998,1.43999999 C2.87999998,0.644735995 2.23526398,0 1.43999999,0 C0.644735995,0 0,0.644735995 0,1.43999999 L0,47.7119996 C0,48.5072636 0.644735995,49.1519996 1.43999999,49.1519996 C2.23526398,49.1519996 2.87999998,48.5072636 2.87999998,47.7119996 L2.87999998,26.0159998 L20.6399038,26.0159998 C21.4351678,26.0159998 22.0799038,25.3712638 22.0799038,24.5759998 L22.0799038,5.37599996 C22.0799038,4.58073597 21.4351678,3.93599997 20.6399038,3.93599997 Z" id="Path"></path>
                                        <path d="M40.2170877,28.8412798 L36.5911677,19.7759999 L40.2170877,10.7107199 C40.3946877,10.2671999 40.3399677,9.76415993 40.0721277,9.36863993 C39.8042877,8.97311993 39.3578877,8.73599993 38.8798077,8.73599993 L24.9599038,8.73599993 L24.9599038,24.5759998 C24.9599038,26.9577598 23.0216638,28.8959998 20.6399038,28.8959998 C18.4805759,28.8959998 16.5599039,28.8959998 14.3999039,28.8959998 L14.3999039,29.3759998 C14.3999039,30.1727038 15.0449279,30.8159998 15.8399039,30.8159998 L38.8798077,30.8159998 C39.3578877,30.8159998 39.8042877,30.5788798 40.0721277,30.1833598 C40.3399677,29.7878398 40.3946877,29.2847998 40.2170877,28.8412798 Z" id="Path" fill-opacity="0.87"></path>
                                    </g>
                                </g>
                            </g>
                        </g>
                    </g>
                </g>
            </g>
        </g>
    </g>
</svg>