<?xml version="1.0" encoding="UTF-8"?>
<svg width="102px" height="102px" viewBox="0 0 102 102" version="1.1" xmlns="http://www.w3.org/2000/svg" xmlns:xlink="http://www.w3.org/1999/xlink">
    <title>arabic</title>
    <g id="Page-2" stroke="none" stroke-width="1" fill="none" fill-rule="evenodd">
        <g id="Artboard" transform="translate(-939.000000, -108.000000)">
            <g id="arabic" transform="translate(939.000000, 108.000000)">
                <circle id="Oval" fill="#D0D4D8" opacity="0.947079613" cx="51" cy="51" r="51"></circle>
                <g id="WhatsApp-Image-2023-07-10-at-12.04.03-AM-Recovered" transform="translate(23.000000, 23.000000)" fill="#435363" fill-rule="nonzero">
                    <g id="Shape_317_2">
                        <path d="M35.9910173,5.35633382 L36.3575432,5.35633382 C36.8487524,5.96327091 37.5898656,6.03927885 37.699501,7.06069256 C37.5366603,7.38528634 37.3739987,7.70991589 37.2115163,8.03458119 C36.3414203,8.05276516 35.0472937,8.35862069 34.8930518,9.13023272 C35.4041459,9.82460308 36.2027639,15.389543 35.2590403,15.9478822 L35.2590403,14.608544 C34.8237236,13.9150855 35.1101727,12.6620541 34.8930518,11.8085337 C34.6866795,10.9971744 34.0288676,9.54068633 34.283071,8.52157914 C34.3513244,8.24844404 34.73881,7.75002076 34.7710557,7.54763687 C34.8350096,7.14839403 34.5738196,6.47880537 34.7710557,5.96525559 C34.8119002,5.85926287 35.2590403,5.47825764 35.2590403,5.47825764 C35.5417274,4.92335139 34.4179655,2.98233278 34.283071,2.55653811 C33.5860269,2.69498306 33.0518234,2.60545783 32.8191708,1.9478309 C32.7274856,1.81721739 32.7458119,1.83271936 32.6971747,1.58259584 C32.9411312,1.21741443 33.1851056,0.85219725 33.4290979,0.486944314 C35.6561996,1.31981327 34.6866795,1.99814526 35.747025,3.53042674 C35.7884069,2.15986999 36.2817658,0.0487051595 37.699501,0 C37.8241843,0.0978930793 37.7328215,0.043180235 37.9434933,0.121762899 C38.1246065,0.65365757 38.3100192,0.842738723 38.3094829,1.70414418 C38.1982342,1.81759287 38.1471785,1.91773883 38.0654894,2.06937924 L37.8214971,2.06937924 C37.6285605,1.76400647 37.4721689,1.59021273 37.0895202,1.46067202 C36.5375816,2.44255302 36.1108637,3.97451266 35.9910173,5.35633382 Z M26.7189328,0.365020496 L26.4749405,1.46067202 C24.3540883,1.94954738 22.1507946,3.09132934 20.3747025,4.01721013 L20.4967524,4.26068229 C21.0851823,4.44874428 22.1713781,4.81650042 21.716714,5.59980598 C21.6760845,5.72139008 21.6354191,5.84313509 21.5947179,5.96504103 C20.6448138,5.678335 19.7197927,5.69378333 19.6426718,4.50415445 C20.1366219,3.82458874 20.1702649,2.90493019 20.8626334,2.43456065 C21.8142035,1.78830541 25.3930979,0.536507715 26.7189328,0.365020496 Z M41.1153935,8.15634409 C40.4086756,8.08757755 40.4022265,7.7721741 39.8954319,7.54763687 L39.8954319,8.03458119 C40.420499,9.24217949 39.8825336,11.7311848 40.2614203,13.5128925 C40.9455662,16.7312951 41.301881,24.1883339 40.2614203,27.0259459 C39.7067946,28.5391851 38.7415739,29.1964902 37.699501,30.1911912 C34.1422649,30.4915754 34.0723992,29.231839 33.1851056,26.5390015 L33.0631094,26.5390015 C32.9760461,30.0953364 28.6566296,31.7030358 25.3769213,30.3129541 C24.2620269,29.8403853 23.5564914,28.5152617 22.3268023,28.2433603 C21.7385873,28.9861676 18.2530979,31.1317157 16.7146027,30.7998984 C15.8957774,30.6232617 15.2880537,30.2004709 14.5185106,30.0694819 C14.3742649,31.7602161 12.3435393,34.0572437 11.3463954,35.0607952 C10.6617121,35.7498552 9.81037236,35.8913577 9.76033781,37.2520983 C10.0603839,37.7294947 9.94279463,38.4658116 10.12638,39.0781663 C10.8589482,41.5218458 11.1815125,45.2707484 14.0305259,45.5303662 C14.5963839,45.887448 15.6366296,45.4543583 16.1045681,45.286894 C17.3199079,44.8520342 17.9999155,44.2838252 18.9106948,43.5825353 C19.6502495,43.0132535 19.731025,42.1172502 20.984737,42.000154 C21.0578273,42.2101012 21.0933512,42.3838949 21.1067332,42.7305705 C20.5693052,43.4815311 21.425428,44.630179 21.9607601,44.8001643 C22.3696353,45.0930926 23.4907639,44.9124329 23.7908637,44.6784014 C24.2441843,44.5507381 24.3420499,44.4967226 24.4008983,43.9479849 C23.4069789,42.9656748 23.7470096,41.4280293 24.2788484,40.174086 L24.6448906,40.0523231 C24.8208983,40.5896354 25.2031708,41.0883269 25.3769213,41.6347044 C25.9062342,43.2999596 25.3134511,45.6593705 24.6448906,46.6260177 C24.1824338,47.2946945 22.8489136,47.4628024 22.5707946,48.0869043 C21.7550864,49.1199043 21.6389482,51.1852605 21.8387639,52.8346918 C23.1833013,53.9015923 24.0126065,54.2824366 25.7429098,53.0782176 C27.2966142,51.9973708 28.160906,50.096904 29.5250595,48.8173744 C32.021144,46.4759329 36.7391171,45.0220732 40.139263,43.5825353 C40.0984184,43.5419834 40.0581113,43.5013779 40.0172668,43.460826 C39.7281305,42.708739 38.0857505,41.4894472 36.8453666,41.7564673 C36.3294357,41.8673949 36.0107409,42.0689742 35.3808752,42.1217024 C35.4066718,41.0994304 35.894119,40.3437495 36.2353858,39.5651643 C39.0923532,38.1609752 43.6981113,37.8543687 46.7275931,39.3216921 C47.6406833,39.7639543 48.3968445,39.5630723 48.4355393,40.9040734 C48.0007601,41.2594387 47.7067869,42.0846907 47.4595701,42.6084321 C46.3298964,42.7538503 45.3292054,43.493922 44.409666,43.9475558 C44.4499731,43.9881077 44.4908177,44.0287132 44.5316622,44.0693187 C45.9123148,45.4614924 50.1682073,45.1004949 50.1434856,42.7301414 C50.3305106,42.4306154 50.3745797,41.2860441 50.2654818,40.7823105 C49.9269021,39.2202051 50.1090902,37.3247806 49.7774971,35.7909972 C49.6963455,33.9650901 49.6150147,32.1390042 49.5335048,30.3127395 C49.2438311,28.9775316 49.244906,27.0815169 49.1675163,25.6866076 L49.1675163,23.252047 C49.0584184,22.8392868 48.5951555,22.0797974 48.6795317,21.5476882 C48.9643685,20.8173254 49.2490262,20.086891 49.5335048,19.3563852 L49.7774971,19.3563852 C50.5648292,20.8443063 51.8890518,23.6142245 51.973428,25.5651129 C51.2774587,25.5028368 51.1495509,25.1702149 50.7534664,24.8346428 L50.7534664,26.2955294 C51.3322764,27.2114331 50.9372668,31.5254336 51.2414511,32.9912014 C51.4854434,34.1664012 51.2140422,35.5635097 51.4854434,36.8868632 C52.6860576,42.7320188 50.4820653,49.9558307 44.1656737,46.8695435 L44.1656737,46.9912528 C44.5864798,47.5481974 44.8412207,48.5897261 45.141643,49.1823413 C46.2111248,49.3604262 47.6912015,50.0266356 49.1675163,49.54763 C50.3041766,49.1791229 50.9480154,48.4862544 52.4619501,48.4521394 C52.4909712,48.9793674 52.6124299,49.1694677 52.3399539,49.54763 C52.0744645,50.2551422 51.3559232,50.6955269 50.9974587,51.3740735 C50.9163071,51.2925406 50.8349763,51.2113653 50.7534664,51.1305477 C50.7943109,51.0089636 50.8349763,50.8872007 50.8754626,50.765259 C51.2419885,50.4852579 51.7509328,49.827631 51.8514319,49.3041042 L51.6074395,49.3041042 C50.7206833,50.1505441 48.2426027,50.8178262 46.3616046,50.5217332 C45.5871708,50.3999703 44.3655969,49.5900056 44.2876699,49.6693929 C43.2246372,50.5008136 43.3600691,49.7670178 42.7011823,49.9129187 C42.3292821,49.9955243 42.3346564,50.3012726 41.8472092,50.3999703 C41.8880537,50.115678 41.9287191,49.8315646 41.9692054,49.54763 C42.169666,49.4317675 42.3733512,49.125912 42.5791862,49.0608466 C43.1493973,48.8806697 43.5417198,49.5014995 43.921144,48.9390837 C44.2204914,48.4290742 43.7545413,48.0175477 43.6771516,47.59996 C43.607286,47.2199203 43.8539655,46.9537584 43.921144,46.6260177 C43.0494357,46.3437102 42.6415278,45.5122359 41.8472092,45.1651848 C40.9459424,46.2323535 37.0372284,47.246043 35.5028714,47.9651951 C33.1801075,49.0540879 31.104453,50.2835714 29.4030633,51.9823516 C27.6739424,53.7090246 26.9299271,56.0037456 23.4248215,55.9999954 C22.8401536,55.4877284 22.0988253,55.2479574 21.5947716,54.6605989 C20.055309,52.8679487 21.2815585,49.3818822 21.8387639,47.59996 C19.5957006,47.3973079 20.5885988,45.4982358 19.7647217,44.9217126 C18.3384952,47.0957436 13.7944875,50.4337635 11.2243992,46.9912528 C10.4628637,45.9712337 9.93645298,44.5510599 9.51634549,43.2173539 C9.37865643,42.7802948 9.48555086,42.2196491 9.27235317,41.8781766 C8.98891363,44.3128445 5.91246065,45.7323746 3.29411132,45.0434219 C3.20532821,44.743574 3.11826488,44.6178418 2.92812284,44.4347147 C2.89786564,41.2361052 4.1899501,39.7009272 5.73419578,38.1042777 C6.34057582,37.4773328 7.46541267,37.145891 7.68629559,36.1564468 C7.50383877,35.9675265 7.59143954,35.9326605 7.32025336,35.7912117 C6.44268714,36.9031698 1.93393474,39.6613409 0.243992322,39.9303457 C0.203362764,39.8492062 0.162697377,39.7680488 0.121996161,39.6868735 C1.92813052,38.5478272 3.66826871,37.0543811 5.36820729,35.7912117 C5.92277927,35.3791489 6.78008445,35.1071402 6.95426488,34.3303251 C6.36846833,33.4417778 7.22792322,32.1733517 7.32025336,31.4086056 C7.03649136,31.2704825 6.91567754,31.1483978 6.58822265,31.0433705 L6.58822265,31.1651334 C6.17617658,31.6001542 6.21696737,32.2335895 5.49020345,32.3824942 C4.93127831,31.8332738 3.70320154,31.4500157 3.41610749,30.6781355 C3.80063724,30.3455672 4.04753167,29.568323 4.27013436,29.0957542 L4.1481382,29.0957542 C3.38826871,30.1447925 1.39790403,30.9232705 0,31.2868427 L0,30.9216613 C1.13838004,30.4142801 3.54213436,29.1044975 4.1481382,28.121651 C3.71190787,27.8682018 3.49935509,27.6477412 3.41610749,27.0259459 C3.76699424,26.5431855 4.23837236,25.4440473 5.00216507,25.8085851 C5.30312476,25.9661795 5.08525144,25.7563397 5.24621113,26.0520572 C5.54754702,26.5364268 4.98824568,27.1665364 5.24621113,27.6344385 C5.38594242,27.8882096 5.5969904,27.5639019 5.73419578,28.2431457 C5.52384645,28.4540584 5.55147025,28.5819362 5.24621113,28.73009 C5.08998081,28.7313238 4.89150864,28.4972922 4.63617658,28.6083808 C4.53804223,28.7326648 4.59285988,28.6417449 4.51418042,28.8518529 C5.42856046,28.937087 6.0506334,29.6643923 6.71021881,30.0694819 C6.8009904,29.4834644 7.09883301,29.1032638 7.32025336,28.6085953 C8.30304798,28.826213 9.12257198,29.5922465 9.76017658,30.1909766 C9.62651823,30.9097532 9.13676008,32.1140258 8.41816507,32.2605704 C8.3044453,32.1494282 8.20405374,32.0985775 8.05212284,32.0170983 L8.05212284,32.1388075 C8.34029175,32.4590386 8.36834549,32.9046264 8.78415355,33.1127498 C9.26074472,32.2911452 11.4094357,30.3457818 12.200261,29.7040323 C12.6224645,29.3614333 13.2451286,29.3088125 13.6643225,28.9736158 C12.9998464,28.2573603 12.5096583,26.9537464 12.200261,25.9300798 C12.0097965,25.2998629 12.1733896,24.6631556 11.8342726,24.225721 C11.5961919,26.2673147 8.29084837,28.3322955 5.97802687,27.3909664 C4.33817274,24.5656916 7.20916699,21.4898106 8.66215739,20.0865871 C9.21285988,19.554746 10.1047754,19.3164233 10.248215,18.3822283 C10.1650211,18.2883583 10.0882226,18.1105952 10.0042226,18.0170469 C8.8856737,19.4527227 6.81044914,20.3040438 5.124,21.1822386 C4.59990019,21.4552128 3.49365835,22.3784116 2.92796161,22.1561809 C2.82982726,22.0318432 2.88464491,22.1228168 2.80596545,21.9127087 C4.23219194,20.9102299 5.74983493,19.9079121 7.19809597,18.8692263 C8.0263263,18.2751628 8.70783877,17.4102171 9.63801919,16.9213954 C9.2216737,16.0596145 9.4774357,14.4422599 10.0040614,13.7561501 C10.1349251,13.6646402 10.1193935,13.6829314 10.3700499,13.6343872 C10.5013436,14.2000751 10.8728676,15.0456567 11.2240768,15.4605088 C11.9835163,14.330474 15.0885067,11.5250461 16.7142802,11.3213749 C16.9035624,11.5033755 16.9384952,11.4159959 17.0802687,11.6865563 C17.5790019,12.4916397 16.6459731,13.644096 16.348238,14.1213851 C15.6061036,15.3110676 14.8703109,16.443409 13.9083148,17.4083397 C13.238572,18.0800203 12.4027102,18.1769479 12.3222572,19.4778799 C12.7087754,20.1008017 12.5937658,20.9986824 12.8102956,21.7909458 C13.4552092,24.1501958 14.3481996,28.8276613 18.0565067,27.8779107 C18.4004607,27.7898874 18.8751171,27.5256565 19.1545259,27.3909664 C19.8026641,27.0785667 20.3948023,27.0043826 20.8625797,26.538787 C20.0944338,26.0521645 19.3586411,25.252016 18.4226564,24.9564057 C17.4506104,24.6492092 16.5702495,25.3926602 16.1045681,25.1998779 C16.0066488,25.0562835 16.0102495,24.9951874 15.982572,24.7129335 C16.5017812,24.0105708 16.4719002,23.0148507 17.2025336,22.5216305 C19.331071,20.7752716 28.2661881,21.0823072 29.1589098,23.4955191 C29.2506488,23.6261326 29.2323225,23.6106306 29.2809597,23.8607542 C28.8759002,24.3100968 28.7174127,25.2634413 28.1828868,25.5651129 C27.53319,26.0139728 25.4458196,26.4224417 25.1327678,27.0259459 C25.7776814,27.252736 26.3034472,27.6964464 27.0848676,27.8781252 C28.8789098,28.2948547 31.07081,27.6147526 31.7210441,26.7824737 C32.8947869,25.2805525 32.5766296,22.5896997 32.575071,20.2085645 C32.5716852,15.1582472 32.3646679,10.3505973 31.3551094,6.20851319 C30.9960537,4.73550396 31.3855816,3.11214168 31.8431478,2.06937924 L32.0871401,2.06937924 L32.0871401,2.31285139 C32.8635624,3.23369002 32.7186718,4.99485357 33.0631094,6.33049065 C33.4780038,7.93969195 33.6284837,10.0658224 33.9170825,11.8088019 C34.1417274,13.1663778 33.8241075,15.4145929 34.1610749,16.9218781 C34.4330134,18.1379516 34.044453,19.7514977 34.283071,20.8175399 L34.283071,23.2523152 C34.6340115,24.8032097 34.4131286,26.8854089 35.8690211,27.2699544 C37.098119,28.2698585 38.8452975,26.62327 39.4074472,26.0523254 C39.4020729,23.6945773 39.4703263,21.3496492 39.0414587,19.3566534 L39.0414587,17.2867914 C38.8399232,16.3484124 38.8818426,14.9609591 38.6754702,13.9998368 C38.2471401,12.0067873 38.7093282,9.7754688 38.3094818,7.91287193 L38.3094818,5.59980598 C38.267025,5.42842604 37.979501,4.99485357 37.9434933,4.8693895 C37.6683301,3.91459673 38.4551248,2.24800058 39.0414587,2.06937924 C39.6084453,4.08871231 41.0084453,5.7465115 41.1153935,8.15634409 Z M28.7930288,2.79979571 L29.0370211,2.79979571 C29.1273628,4.5229821 29.8655739,4.8834432 29.4030633,6.93892966 C29.0318081,7.15590364 28.9343724,7.27745198 28.3049904,7.30416472 C28.0077927,7.01450848 27.843286,7.05677684 27.6950096,6.57374825 C27.5968752,6.69803223 27.6516929,6.60705871 27.5729597,6.8172204 C27.146618,7.16051668 27.2244376,7.46824961 26.4749405,7.54763687 C26.1829559,7.70287116 26.1122841,7.61034209 25.864906,7.42587398 C25.0111478,6.78932758 25.6686372,6.32834505 25.3769213,5.23457092 C25.2351478,4.70299809 24.3144798,3.66989085 25.864906,3.40850292 C25.9379962,3.61845005 25.9735739,3.79224379 25.9869021,4.13891939 C26.2253052,4.71705178 25.5421267,5.74710154 26.3529443,6.20851319 C26.4838618,6.3000231 26.4683301,6.28173185 26.7189328,6.33022245 C26.8909098,6.05129422 27.2421727,5.82241216 27.3289674,5.47804308 C27.572476,4.51209318 26.4380729,3.59093271 27.4509635,3.04326787 L27.5729597,2.92155861 C27.6485758,3.7744353 28.1171056,6.38042953 28.915025,5.96504103 L29.1590173,5.72156888 C28.4642303,4.983911 28.6976891,3.73645815 28.4270403,3.28674002 C28.5668791,3.10951332 28.6713551,3.01896893 28.7930288,2.79979571 Z M12.6886756,5.72156888 L13.2987102,5.72156888 C13.3393397,5.84315297 13.3800051,5.96488011 13.4207063,6.08675029 C13.6861958,6.51731892 13.2558234,6.83207869 13.4207063,7.30437928 C13.5137889,7.57097029 13.732952,7.5065486 13.7866948,8.03479575 L13.4207063,8.40003081 L12.9326679,8.03479575 C12.5231478,9.19342069 10.4121305,10.167363 9.02852207,10.3478617 L9.02852207,10.1043895 C10.0673167,9.53215756 11.7954702,8.76338846 12.4446833,7.79132359 L11.8344338,7.18218726 L12.2004223,6.08653573 C12.3148944,5.93237425 12.5570058,5.8954699 12.6886756,5.72156888 Z M12.5666795,6.57374825 C12.607309,6.69533234 12.6479744,6.81705948 12.6886756,6.93892966 L12.9326679,6.93892966 L12.9326679,6.6954575 L12.8106718,6.6954575 C12.685881,6.59751078 12.7770288,6.65227727 12.5664645,6.57374825 L12.5666795,6.57374825 Z M14.152737,11.930243 C14.2048676,11.4426014 14.3569597,11.0938874 14.5187255,10.7128822 L25.2551401,6.69524294 L25.2551401,6.9387151 C25.3411286,7.09550495 25.2102111,7.33447134 25.1330902,7.66918521 C23.1081689,8.7655877 20.7660038,9.31217974 18.5448676,10.2256697 C17.2105413,10.7746219 15.7240154,11.757683 14.1525221,11.930243 L14.152737,11.930243 Z M35.2590403,6.81743496 C35.0870633,7.12468513 34.7565451,7.12704529 35.1370441,7.30437928 C35.3514779,7.06836309 35.6142802,7.01633224 35.8690211,6.81743496 L35.2590403,6.81743496 Z M41.9693666,9.49568233 L42.2133589,9.49568233 C42.1139347,10.8188213 41.45881,11.7168629 41.7253743,13.147872 L42.2133589,13.147872 C42.3713628,12.8582157 42.5078695,12.5697396 42.8233397,12.4174555 C42.8641843,12.4580074 42.9050288,12.4986129 42.9453359,12.5391648 C42.6588868,13.4470225 42.6776967,14.3259682 41.481382,14.3652864 C41.3679846,14.2541442 41.2674856,14.2032935 41.1153935,14.1218142 C40.8165835,11.8700052 41.6409981,11.099466 41.9693666,9.49546777 L41.9693666,9.49568233 Z M44.2878311,9.73893993 C44.9956238,10.2622522 46.5358925,14.5774864 46.6057582,15.8261193 C46.5649136,15.8667249 46.5240691,15.9073304 46.483762,15.9478822 C46.2698656,15.8711233 46.3649904,15.9243879 46.2397697,15.8261193 C45.8168138,15.6841341 45.7141651,15.4377654 45.3857965,15.2174658 L45.3857965,16.4348266 C45.9715931,17.3750292 45.4185797,19.832816 45.751785,21.3044306 C46.1226104,22.9431339 45.7292131,24.9313022 46.1177735,26.660979 C46.9599232,30.4092916 46.625643,35.8078938 45.1418042,38.3479644 L44.8978119,38.3479644 C44.8204223,38.1344234 44.8741651,38.2296881 44.7758157,38.1044922 C45.4368522,36.1460406 45.1068714,31.0637001 44.6538196,29.0957542 C44.3560845,27.8030292 44.5839539,26.1431917 44.4098273,25.3218553 C44.2880102,22.968452 44.1660141,20.6148163 44.0438388,18.2609482 C43.7654511,16.9882309 44.1276775,15.3532287 43.799309,13.8785566 C43.6628023,13.2640563 43.2054511,12.3991106 43.4333205,11.5655443 C43.5966987,10.9691743 43.9992322,10.2583901 44.2878311,9.73893993 L44.2878311,9.73893993 Z M28.5490365,10.1043895 C28.9855355,10.1071788 29.2095355,10.1607116 29.5250595,10.2260988 C29.7011747,10.7427597 29.8862649,10.8653808 29.891048,11.6869854 C29.7929674,11.811323 29.847785,11.7203495 29.7690518,11.9304575 C29.6132261,11.9946286 29.4488165,12.0356524 29.2810672,12.0522204 L28.7930288,11.4435132 C28.7523634,11.4841366 28.711698,11.5247243 28.6710326,11.5652761 C27.8849367,12.2322901 27.6962457,14.7861462 27.2069712,15.8261193 C26.9929674,15.7493604 27.0884683,15.8026786 26.9629789,15.7044101 C26.6835163,15.2618797 26.0290365,13.1823089 25.864906,12.6609277 C25.1907562,12.792614 24.6338196,12.6880695 24.4008983,12.0522204 C24.3029251,11.908626 24.3065797,11.84753 24.2788484,11.5652761 C24.7068023,11.0856805 24.580238,10.6382153 25.49881,10.5913339 C25.6645528,10.7449053 25.7145336,10.757618 25.9867946,10.834806 C26.144261,11.3098959 26.5316929,11.4126702 26.7188253,11.8087483 C26.9939885,12.3906355 26.9627639,13.1415961 27.3289674,13.6346017 C27.3493896,12.1582668 27.9443225,11.0004465 28.5490365,10.104175 L28.5490365,10.1043895 Z M21.9607601,10.3478617 L22.9368369,10.3478617 C23.0541036,10.562851 23.0902188,10.5524448 23.1808292,10.834806 C23.4405681,11.1936043 23.2760077,12.0217529 23.058833,12.2956926 C22.7651823,13.2714586 21.7098887,14.4289571 20.7407447,14.7304678 L20.7407447,14.6087586 L20.6187486,14.4869957 C21.3351401,14.0218828 22.2992322,12.9326145 22.4487985,11.9304575 C22.3506641,11.8061736 22.4054818,11.8970934 22.3268023,11.6869854 L21.8387639,11.6869854 C21.6083148,11.8783731 21.5867639,11.9169939 21.3507793,11.8087483 C21.2526449,11.6844107 21.3074626,11.7753842 21.2287831,11.5652761 C21.5066871,11.1789605 21.7237006,10.7103611 21.9607601,10.3476471 L21.9607601,10.3478617 Z M10.126595,10.5913339 C11.1267486,10.8130818 11.910856,11.5768087 12.5665182,12.1737151 C12.4294741,12.9055263 11.9310633,14.0725727 11.224453,14.2432553 C10.8705029,13.7955219 9.96590403,13.2187305 9.39440307,13.0256263 L9.39440307,13.1473892 C9.07146257,13.4913292 8.7871094,14.0950479 8.5403762,14.4865129 L8.41838004,14.3648036 C7.612238,13.9687256 6.89031094,13.332501 6.22228791,12.7821542 C6.54506718,12.076573 6.972,11.3907851 7.3203071,10.712614 C8.16680998,11.0671747 8.72836852,11.711338 9.51639923,12.0517377 C9.61458733,11.4321415 9.94730902,11.1253741 10.12638,10.5911193 L10.126595,10.5913339 Z M15.7385797,12.9041853 C14.8908407,14.071339 11.8182035,15.6190151 11.7124376,17.1650821 L11.8344338,17.2867914 L11.9564299,17.1650821 C13.6255202,16.1401282 14.498142,14.2148797 15.982572,13.0258945 L15.982572,12.9041853 L15.7385797,12.9041853 Z M17.6906257,14.2433089 C18.0008292,14.4203211 17.828261,14.216918 17.934618,14.608544 C17.281428,15.4422176 17.1254664,17.2411973 17.2026411,18.3824429 L17.4466334,18.625915 C17.6606372,18.5491561 17.5651363,18.6024744 17.6906257,18.5042058 C18.1126142,18.3450558 18.2388023,18.030886 18.4226564,17.6520264 C18.4633218,17.6925783 18.5039872,17.7331659 18.5446526,17.7737893 C18.6427869,17.8980733 18.5879693,17.8070998 18.6666488,18.0172615 C18.0593551,18.9925447 18.2488522,20.3534463 16.7146027,19.7216202 C15.8149482,17.7971227 17.0693589,15.4960185 17.6906257,14.2433089 Z M21.9607601,15.2174658 C22.9043762,15.3724319 23.8041382,16.2361975 24.4006833,16.7998471 C24.1499194,17.5099876 23.8550864,18.7034249 23.058618,18.8694408 C22.4772821,18.2915767 21.1739655,17.9658207 20.9845221,17.0433192 C21.4205912,16.6644596 21.7074165,15.7529543 21.9607601,15.2174658 Z M49.2896737,15.5822181 L49.8996545,15.5822181 C50.2215739,16.0610091 50.3946257,16.1436684 50.3876392,17.0431046 C50.1328983,17.1796186 50.1640691,17.2177566 49.7776583,17.2865768 C49.6207294,16.9771274 49.6438388,16.9368974 49.2896737,16.7996325 L49.2896737,16.9213954 C48.5748944,17.7349539 48.9183109,20.045177 47.8257198,20.4518221 L47.8257198,20.20835 C47.4307102,19.5998573 47.1727447,18.4153242 46.8497505,17.7735748 C46.0763916,18.0227864 45.6039923,17.6328769 45.6297889,16.6778696 C46.058119,16.3219679 45.8850672,16.0922276 46.7277543,16.069216 C46.8524376,16.1671091 46.7610749,16.1121281 46.9717466,16.1909253 C47.2517466,16.6666588 47.741881,17.1157333 47.9477159,17.6518119 C48.0976583,18.0422041 47.9874856,18.345324 48.1917083,18.6257005 C48.2105182,17.2976267 48.7189251,16.3455695 49.2896737,15.5822181 Z M36.7235317,16.5561603 C36.9465643,16.7470652 36.8933589,16.6634404 36.967524,17.0431046 C36.3666795,17.8155213 36.1474088,19.5009451 36.235547,20.8170572 C36.3166987,20.8981967 36.3980294,20.9793541 36.4795393,21.0605293 C36.6934357,20.9837168 36.5977735,21.037035 36.7235317,20.9387664 C37.1309021,20.7803674 37.2598848,20.4319217 37.4555086,20.0865871 C37.4958157,20.1271926 37.5366603,20.1677445 37.5775048,20.20835 C37.6753167,20.332634 37.620499,20.2417141 37.699501,20.4518221 C37.105643,21.2910206 37.4985029,22.2965569 36.1135509,22.399653 C35.809904,22.0811384 35.6873704,22.1676598 35.6250288,21.5474737 C34.7474088,20.2278749 36.5316699,17.4457268 36.7235317,16.5563749 L36.7235317,16.5561603 Z M28.0609981,21.6694511 L28.0609981,21.3042161 C28.7727678,21.0658933 29.689405,19.849659 29.7690518,18.9911501 L29.891048,18.8694408 C29.6359309,18.7329269 29.6675854,18.6947889 29.2810672,18.625915 C29.0828637,18.8079157 29.0341727,18.8148353 28.6710326,18.8694408 C28.7523276,18.4636718 28.8336583,18.0577955 28.915025,17.6518119 C29.3388407,17.4393973 29.4470787,17.3043853 30.1349866,17.2865768 C30.3242687,17.4686311 30.3592015,17.3811978 30.500975,17.6518119 C31.4287908,19.0192575 28.9512476,21.5191517 28.0609981,21.6694511 Z M10.6142035,20.3302738 C9.64683301,21.7327464 6.96549712,22.6398531 6.83210749,24.7126653 L7.07609981,24.7126653 C8.04287908,25.3773728 10.8518004,23.8157502 11.1022418,23.2517788 C11.5672783,22.6908112 11.1123455,20.7378308 10.6142035,20.3302738 Z M21.7167678,23.9822489 L21.7167678,24.225721 C22.4707793,24.4703733 22.6473244,25.1256937 23.4248215,25.3214262 C23.8417044,24.8187117 24.652952,24.7844357 25.1328752,24.3474839 L25.0108791,24.225721 C23.9992246,24.1567399 22.9804223,23.9879347 21.7167678,23.9822489 Z M53.6820729,24.8344282 C54.4726296,25.4991357 55.8860653,29.6384305 56,31.043156 C55.9591555,31.0837615 55.9188484,31.1243134 55.8780038,31.1649189 C55.3991555,30.9284199 55.182572,30.5931697 54.7800384,30.3127395 L54.7800384,31.7736261 C55.2438388,32.5155752 54.9020345,35.6116249 55.1460269,36.7649394 C55.4706334,38.2990447 55.1578503,40.0680397 55.5120154,41.7562527 C55.9564683,43.8725134 56.1182342,47.7145351 55.6340115,49.7909412 C55.316929,51.1496435 55.3722841,52.7534808 54.4140499,53.4432918 C54.3732054,53.4840582 54.3323608,53.5242882 54.2920537,53.5650547 L54.2920537,53.0780031 C53.9889443,52.4879626 54.6257965,47.869984 54.2920537,46.382331 C54.0131286,45.1385257 54.3672937,43.6278611 54.0480614,42.2431971 C53.8599616,41.4288876 53.8481382,40.5271984 53.6820729,39.5649497 C53.6057582,39.123063 53.8470633,38.2350521 53.6820729,37.4953559 C53.1075624,34.9224576 53.6170441,32.0661789 53.1940883,29.217088 C53.0984261,28.5756604 52.5953935,27.6239787 52.7061036,27.0257313 C52.8291747,26.358181 53.3633781,25.4113805 53.6820729,24.8344282 L53.6820729,24.8344282 Z M42.0913628,24.9561911 C42.4014587,25.1332033 42.2289443,24.9297466 42.3353551,25.3214262 C41.6399232,26.1013524 41.5190019,27.9398113 41.6033781,29.0953251 L41.9693666,29.217088 C42.0876008,29.2476628 42.0155854,29.3125136 42.0913628,29.217088 C42.5132438,29.0578843 42.6395393,28.7437682 42.8233397,28.3649086 L42.9453359,28.3649086 L42.9453359,29.2175171 C42.380499,30.0084396 42.7029559,30.5881275 41.2373896,30.5566408 C41.1965451,30.4754834 41.156238,30.394326 41.1153935,30.3131686 C40.0631094,29.0080527 41.693666,25.7711443 42.0913628,24.9564057 L42.0913628,24.9561911 Z M4.27013436,26.6607644 L4.27013436,27.0259459 L4.75817274,27.1477088 L4.75817274,26.9042366 C4.52611132,26.7410636 4.65149328,26.7480368 4.27013436,26.6607644 Z M13.1764453,30.5564262 C12.4525835,32.0310447 9.60829942,32.9681362 9.0283071,34.5740655 C9.10747025,34.6787709 9.19152399,34.9568408 9.27235317,35.0610098 C9.6223263,34.5647321 10.1900653,34.2671372 10.6143647,33.8433808 C11.2258503,33.2326889 11.724476,32.5208855 12.3224184,31.8955499 C12.6609981,31.541472 13.4172668,31.0973861 13.1764453,30.5564262 L13.1764453,30.5564262 Z M22.9368369,31.6520778 L23.6688676,31.6520778 L23.6688676,31.8955499 C24.0662418,32.4363488 23.5976046,33.1453629 23.058833,33.2346736 C22.9095355,32.8573159 23.0130441,32.9593929 22.5707946,32.8694922 C22.3624338,33.2012559 22.2613973,33.1735776 22.2048061,33.7216716 L22.5707946,33.8433808 C22.7598081,33.9711514 23.0692591,33.9688449 23.4248215,33.9651437 C23.7057889,33.5868741 24.2880921,33.0352936 24.7668868,32.8694922 L24.7668868,33.8433808 C23.7982802,34.9430017 21.8160307,36.0226149 21.7167678,37.8610201 L22.0829175,37.9823002 C23.255263,38.8258972 25.332476,37.5067276 26.3530518,37.7388281 L26.2310557,37.860591 C25.3594012,39.1383504 23.2393013,39.5270262 21.3508868,39.0779517 C21.1275317,38.6112834 20.99081,38.3726388 20.9848445,37.6171188 C21.1000691,37.4347426 21.0044069,37.1736766 21.1068407,36.8866487 L22.0829175,35.3042674 C21.6300269,35.0960368 21.4342956,34.8787409 21.1068407,34.5738509 C21.1162994,32.9307491 22.1272015,32.4788318 22.9368369,31.6520778 Z M41.8473704,32.8697067 C41.8226488,33.4314253 41.686142,33.7158248 41.3593858,33.9653583 C37.8214971,35.3449444 34.2834293,36.7246558 30.7451823,38.1044922 C30.7412737,37.8959454 30.6999554,37.689785 30.6231862,37.495785 C30.9470403,37.3117997 30.9556929,36.9911395 31.2332207,36.7653685 C32.254334,36.0107068 33.7720845,35.9364153 35.0151555,35.4261912 C36.9960077,34.6130618 39.6552015,33.2388575 41.8473704,32.8694922 L41.8473704,32.8697067 Z M34.0390787,33.1131789 C34.2073182,33.1268168 34.3721727,33.1679334 34.5270633,33.2348882 C34.3663724,33.6325218 34.1680614,33.9334961 34.0390787,34.3305397 C32.2629328,34.5233756 29.377428,35.9153884 28.0609981,36.7653685 L28.1829942,36.8870778 C28.6657121,37.4059379 29.3412054,37.1050709 29.4029559,38.1047068 C29.494856,38.2515196 29.3845758,38.4469839 29.2809597,38.713414 C28.5151248,38.570946 28.0206372,38.2779105 27.450856,37.9829439 C27.0794933,33.9456724 31.8565835,34.8360435 34.0390787,33.1129643 L34.0390787,33.1131789 Z M18.4226564,33.9651437 C18.7687601,34.0008143 18.9550864,34.0461938 19.1546871,34.2086159 C19.7727294,34.7615374 19.6207447,35.352007 19.2766833,36.0346839 L19.032691,36.0346839 C18.8486756,35.6752956 18.7662879,35.5280537 18.3006603,35.4259767 C17.7686065,36.5502183 17.4300269,38.2408452 17.0806987,39.5651643 C16.9248609,39.629289 16.7604555,39.6702937 16.592714,39.6868735 L16.4707179,39.5651643 C16.4679232,38.2002397 15.8264491,37.5248043 15.4946411,36.5216818 C14.8641843,36.7382267 14.3841536,36.5672759 14.1526296,36.0346839 C14.0455739,35.8770894 14.0434779,35.7342996 14.0306334,35.4259767 C14.4546641,34.9504577 14.3047217,34.5939659 15.250595,34.5738509 C15.3751708,34.671744 15.284023,34.616763 15.4945873,34.6955602 C15.8270403,35.1733321 16.3511401,35.5899543 16.5926603,36.1564468 C16.7789328,36.5934522 16.7093359,37.1340366 16.9586488,37.4955705 C17.1057965,35.9560476 17.6038848,34.8245645 18.4226564,33.9651437 Z M12.4444683,37.3738612 L12.8104568,37.4955705 C12.2577121,38.8633916 11.7970825,39.9946064 12.0784261,41.5132097 C12.293881,41.6302523 12.2834549,41.6662448 12.5664645,41.7566819 C12.7545643,41.4478761 13.0820729,40.9471463 13.4204914,40.7827396 L13.4204914,40.9045025 L13.5424875,40.9045025 C13.3954472,41.7531416 13.1644607,42.8896132 12.2004223,42.9740963 C9.84707869,43.2991013 12.2742649,37.9459323 12.4444683,37.3738612 Z M8.05228407,37.9823002 C7.10678695,39.3303281 4.44796929,40.5712369 4.1481382,42.3646918 L4.39213052,42.3646918 C5.44758541,43.0932845 8.4302572,41.4558149 8.66231862,40.9038052 L8.66231862,39.8086364 C8.34088292,39.2825885 8.49539347,38.3812212 8.05228407,37.9823002 Z M40.8714012,40.9040734 C41.2035317,41.2725268 42.5008829,42.3627071 42.8233397,42.2431971 C43.5031862,42.0786294 44.0470633,41.6810494 44.6538196,41.3910177 C44.5291363,41.2931246 44.6199616,41.3478375 44.4098273,41.2693084 C43.687524,40.7532376 42.0795393,40.8888932 40.8714012,40.9042879 L40.8714012,40.9040734 Z M32.5751785,41.0257826 L33.0631094,41.0257826 C33.3791171,41.4956694 33.7176967,41.6178078 33.7950864,42.36496 C33.495739,42.6837964 33.61881,42.8552836 33.0631094,42.9736672 C32.8679693,42.5827922 32.8991939,42.5386464 32.3311324,42.4866692 C32.1450211,43.3149788 31.4085298,46.5030748 30.7450749,46.7475661 L30.7450749,46.5040939 C30.2861651,45.7763058 29.9905797,44.3710976 29.6470557,43.5823207 L28.7930288,43.7040836 C28.4955624,43.3065036 28.1791785,43.2191777 28.0609981,42.6084321 C28.3750173,42.2934578 28.6199232,41.8388584 28.915025,41.5127806 C30.8293973,41.9660926 30.2553704,43.3374003 31.1111171,44.6779723 C31.1054741,43.047315 31.7515163,41.84905 32.5751785,41.0259972 L32.5751785,41.0257826 Z M37.4555086,41.9999395 L37.699501,41.9999395 L37.699501,42.1217024 C37.4856046,42.0448898 37.5807294,42.098208 37.4555086,41.9999395 Z M52.3401152,43.8260075 L53.3160845,43.8260075 C53.599309,44.2757792 53.6971209,44.5670983 53.6820729,45.4083887 C52.8635701,46.3446221 52.5862572,47.8094244 51.1196161,48.0866361 L51.1196161,47.843164 C51.8042994,47.3933386 52.7399616,46.2995108 52.8280998,45.2866258 C52.6125912,45.1695833 52.6228023,45.1335908 52.3401152,45.0431537 C52.1117083,45.2513307 51.9219962,45.3727181 51.7295969,45.2866258 C51.631785,45.1623419 51.6866027,45.2532617 51.6076008,45.0431537 C51.900499,44.63152 52.0445298,44.1909743 52.3401152,43.8260075 Z M24.4008983,47.59996 C25.0933743,47.7047726 26.3390787,48.4929058 26.5969367,49.0608466 C26.9908177,49.6838757 26.0366679,51.0736892 25.4989175,51.2523106 C24.9554165,50.5909288 23.637428,50.3720774 23.4248215,49.4258671 C23.8483148,48.9969613 24.1278848,48.1509505 24.4008983,47.59996 Z M9.88233397,52.8346918 L9.88233397,52.4694031 C10.6216737,52.2087125 11.5088599,50.9588995 11.5903877,50.0346816 C11.3800384,49.9617311 11.205858,49.9263287 10.8584107,49.9129187 C10.7144875,50.0105436 10.6532745,50.0073252 10.3703724,50.0346816 C10.4204069,49.4280127 10.6096353,48.8824934 11.1024031,48.6956115 C11.3085605,48.5565765 11.6997543,48.5658563 12.0784261,48.5739023 C12.4419962,49.1850233 12.4034088,49.6404273 12.3224184,50.5217332 C11.4586641,51.2351457 11.2180038,52.5761468 9.88233397,52.8346918 Z M38.7974664,48.9390837 C39.5874856,49.2413453 39.8185797,49.4875531 39.7734357,50.6434961 C39.6750864,50.767941 39.729904,50.6767529 39.6514395,50.8870219 C38.946334,50.8119258 39.0570441,50.5356796 38.4314779,50.3999703 C38.1412668,51.6084804 37.7027255,53.3705559 37.2115163,54.5393724 C37.0895202,54.5796025 36.967524,54.6203689 36.8455278,54.6605989 L36.8455278,54.5393724 C36.5778887,54.1156161 36.7057965,53.4349239 36.4795393,52.9564547 C36.2634933,52.5005144 35.9044914,52.0681756 35.747025,51.4958364 C35.033858,51.6202813 34.5238388,51.5505492 34.283071,50.8870219 C34.1917083,50.7561402 34.2099808,50.7716958 34.1610749,50.5217332 C34.6329367,50.0207352 34.4803071,49.5653312 35.5030326,49.54763 C35.6277159,49.6457913 35.5368906,49.5910784 35.747025,49.6693929 C36.0066027,50.0824212 36.5058733,50.4638019 36.7235317,50.8870219 C36.9965451,51.4180583 36.8820729,52.1368349 37.2115163,52.591166 C37.2050672,50.8757575 37.841382,49.7230329 38.7974664,48.9390837 L38.7974664,48.9390837 Z M17.0805912,49.6693929 C17.9025873,49.8646426 19.310595,50.6708525 19.3986795,51.6175993 C18.9613205,52.1786741 18.8827486,53.1452677 18.0566679,53.3217434 C17.7138964,52.8320098 16.7939808,52.2167585 16.2265643,51.9823516 C16.1606219,52.6710897 15.844238,53.3635827 15.1285451,53.4435063 C14.6204069,52.7333122 13.3805605,52.5868748 13.1764453,51.6175993 C13.5920384,51.1718505 13.8770365,50.3457938 14.1525221,49.7911558 C14.3665259,49.867861 14.271025,49.8147574 14.3965144,49.9129187 C15.1901881,50.1516169 15.6869328,50.7561402 16.3485605,51.1305477 C16.492215,50.5329976 16.8198311,50.1387433 17.0805912,49.6693929 Z M11.2243992,50.0346816 C11.3225336,50.1591265 11.2677159,50.0679384 11.3463954,50.2782074 L11.2243992,50.2782074 L11.2243992,50.0346816 Z"></path>
                    </g>
                </g>
            </g>
        </g>
    </g>
</svg>