<?xml version="1.0" encoding="UTF-8"?>
<svg width="41px" height="28px" viewBox="0 0 41 28" version="1.1" xmlns="http://www.w3.org/2000/svg" xmlns:xlink="http://www.w3.org/1999/xlink">
    <title>cat_2_1</title>
    <g id="Page-2" stroke="none" stroke-width="1" fill="none" fill-rule="evenodd">
        <g id="Artboard" transform="translate(-724.000000, -274.000000)" fill="#D1A632" fill-rule="nonzero">
            <g id="cat_2_1" transform="translate(724.000000, 274.000000)">
                <path d="M41,5.25837192 C41,2.33708452 38.6193043,0 35.7445778,0 L5.78484226,0 C5.38050681,0 4.97617135,0.224689212 4.79676586,0.62926267 C4.61697834,0.988685319 4.66210259,1.48320545 4.93142913,1.79785044 C5.8299938,2.78650845 7.49171401,5.43831077 4.93142913,8.76414433 L1.15849262,8.76414433 C0.754157161,8.76414433 0.349821706,8.98883354 0.170416209,9.393407 C-0.00937131011,9.75282965 0.0357529378,10.2473498 0.305079481,10.5619948 C1.1585199,11.5506528 2.86536436,14.2024551 0.21518754,17.5282887 C-0.0544846431,17.8429154 -0.0544846431,18.2922848 0.1252956,18.6517347 C0.305083119,19.0111574 0.709063839,19.2809974 1.11337201,19.2809974 L4.97626595,19.2809974 C5.82970637,20.2696554 7.49179951,22.9214577 4.88637401,26.2472913 C4.61670183,26.5619181 4.61670183,27.0112874 4.79648207,27.3707373 C4.97626231,27.7301873 5.38025031,28 5.78455848,28 L35.744294,28 C38.6638628,28 40.9995725,25.6180468 40.9995725,22.7416281 C40.9995725,19.8203407 38.6190206,17.4832562 35.744294,17.4832562 L35.0262263,17.4836116 C35.8348972,16.5397313 36.3287444,15.3711435 36.3287444,14.0230811 C36.3287444,12.6746546 35.8345152,11.5060668 35.0262263,10.5625505 L35.6998792,10.5625505 C38.6194481,10.5621949 41,8.18023324 41,5.25867281 L41,5.25837192 Z M20.0241302,22.7421377 C20.0241302,23.2366579 19.6197948,23.6408764 19.1259203,23.6408764 L17.0598101,23.6408764 C16.5655808,23.6408764 16.1616001,23.2363029 16.1616001,22.7421377 C16.1616001,22.2476176 16.5659356,21.8433989 17.0598101,21.8433989 L19.081169,21.8433989 C19.6201677,21.8430436 20.0241302,22.2476176 20.0241302,22.7421377 L20.0241302,22.7421377 Z M31.567606,22.7421377 C31.567606,22.2476176 31.9719414,21.8433991 32.4658159,21.8433991 L34.4871748,21.8433991 C34.981404,21.8433991 35.3853848,22.2479726 35.3853848,22.7421377 C35.3853848,23.2366579 34.9810493,23.6408764 34.4871748,23.6408764 L32.4658159,23.6408764 C31.9719414,23.6408764 31.567606,23.2363029 31.567606,22.7421377 L31.567606,22.7421377 Z M8.34512715,4.62993746 C8.34512715,4.13541732 8.7494626,3.73119881 9.24333708,3.73119881 L19.7089609,3.73119881 C20.2031901,3.73119881 20.6071708,4.13577227 20.6071708,4.62993746 C20.6071708,5.12445759 20.2028354,5.5286761 19.7089609,5.5286761 L9.24333708,5.5286761 C8.74910787,5.5286761 8.34477241,5.12410264 8.34477241,4.62993746 L8.34512715,4.62993746 Z M30.849038,4.62993746 C30.849038,4.13541732 31.2533735,3.73119881 31.7472479,3.73119881 L33.8133582,3.73119881 C34.3075874,3.73119881 34.7115681,4.13577227 34.7115681,4.62993746 C34.7115681,5.12445759 34.3072327,5.5286761 33.8133582,5.5286761 L31.7472479,5.5286761 C31.2530187,5.5286761 30.849038,5.12410264 30.849038,4.62993746 Z M29.6811377,22.7421377 C29.6811377,23.2366579 29.2768022,23.6408764 28.7829278,23.6408764 L21.41606,23.6408764 C20.9218308,23.6408764 20.5178501,23.2363029 20.5178501,22.7421377 C20.5178501,22.2476176 20.9221855,21.8433989 21.41606,21.8433989 L28.7825639,21.8433989 C29.2767932,21.8430436 29.6811377,22.2476176 29.6811377,22.7421377 L29.6811377,22.7421377 Z M7.17713588,1.79784134 L35.7443049,1.79784134 C37.6757064,1.79784134 39.2027997,3.37097526 39.2027997,5.25837192 C39.2027997,7.19091029 37.6305912,8.71890251 35.7443049,8.71890251 L31.0731584,8.71925809 L29.6806829,8.71925809 L29.6806829,4.62938292 C29.6806829,4.13486279 29.2763475,3.73064428 28.782473,3.73064428 L22.8079898,3.7302887 C22.3137606,3.7302887 21.9097799,4.13486215 21.9097799,4.62902734 L21.9097799,8.71890251 L7.08726941,8.71890251 C8.79418664,5.79761511 7.98583408,3.28096488 7.17716135,1.79775033 L7.17713588,1.79784134 Z M27.8846269,5.52822104 L27.8846269,11.2811495 L26.3124184,10.2473498 C26.1777551,10.1574049 25.9979767,10.1126072 25.8181892,10.1126072 C25.6384017,10.1126072 25.458978,10.1574022 25.32396,10.2473498 L23.7517515,11.2811495 L23.7521069,5.52822104 L27.8846269,5.52822104 Z M39.204346,22.7421377 C39.204346,24.6746761 37.6321375,26.2026683 35.7458512,26.2026683 L7.0877242,26.2026683 C8.79464143,23.2813809 7.98593413,20.7643667 7.17761614,19.2811521 L31.1186629,19.2811521 L31.3432199,19.2811521 L35.7902459,19.2811521 C37.631781,19.2363571 39.2039894,20.8095084 39.2039894,22.7420467 L39.204346,22.7421377 Z M34.5328357,14.0227802 C34.5328357,15.8653992 33.0956089,17.3486137 31.2988252,17.4833108 L5.78511514,17.4836663 L5.6952232,17.4836663 L2.41609749,17.4836663 C4.12301472,14.5623789 3.31430743,12.0453646 2.46086609,10.56215 L21.8649294,10.56215 L21.8649294,12.9441032 C21.8649294,13.25873 22.0447169,13.5733659 22.3140344,13.7532501 C22.5837066,13.9331435 22.9429269,13.8879927 23.2122443,13.7084552 L25.6826627,12.0905436 L28.1530811,13.7084552 C28.2877444,13.7984 28.4675228,13.8431977 28.6473103,13.8431977 C28.7819736,13.8431977 28.961752,13.7984028 29.0964153,13.7532529 C29.3660875,13.5733595 29.5455203,13.3038836 29.5455203,12.944106 L29.5455203,10.56215 L30.9379958,10.56215 C33.0051976,10.56215 34.5322909,12.090145 34.5322909,14.0226833 L34.5328357,14.0227802 Z" id="Shape"></path>
            </g>
        </g>
    </g>
</svg>