<?xml version="1.0" encoding="UTF-8"?>
<svg width="35px" height="35px" viewBox="0 0 35 35" version="1.1" xmlns="http://www.w3.org/2000/svg" xmlns:xlink="http://www.w3.org/1999/xlink">
    <title>WhatsApp Image 2023-07-10 at 12.04.03 AM-Recovered Copy</title>
    <g id="Page-2" stroke="none" stroke-width="1" fill="none" fill-rule="evenodd">
        <g id="Artboard" transform="translate(-1041.000000, -251.000000)" fill="#D1A632" fill-rule="nonzero">
            <g id="WhatsApp-Image-2023-07-10-at-12.04.03-AM-Recovered" transform="translate(1041.000000, 251.000000)">
                <path d="M22.4943858,3.34770864 L22.7234645,3.34770864 C23.0304702,3.72704432 23.493666,3.77454928 23.5621881,4.41293285 C23.4604127,4.61580396 23.3587492,4.81869743 23.2571977,5.02161324 C22.7133877,5.03297823 21.9045585,5.22413793 21.8081574,5.70639545 C22.1275912,6.14037692 22.6267274,9.61846439 22.0369002,9.9674264 L22.0369002,9.13034 C21.7648273,8.69692845 21.943858,7.91378381 21.8081574,7.38033358 C21.6791747,6.87323402 21.2680422,5.96292896 21.4269194,5.32598696 C21.4695777,5.15527753 21.7117562,4.84376297 21.7319098,4.71727305 C21.771881,4.46774627 21.6086372,4.04925336 21.7319098,3.72828475 C21.7574376,3.66203929 22.0369002,3.42391102 22.0369002,3.42391102 C22.2135797,3.07709462 21.5112284,1.86395799 21.4269194,1.59783632 C20.9912668,1.68436441 20.6573896,1.62841114 20.5119818,1.21739431 C20.4546785,1.13576087 20.4661324,1.1454496 20.4357342,0.989122401 C20.588207,0.760884016 20.740691,0.532623281 20.8931862,0.304340197 C22.2851248,0.824883293 21.6791747,1.24884079 22.3418906,2.20651671 C22.3677543,1.34991874 22.6761036,0.0304407247 23.5621881,0 C23.6401152,0.0611831746 23.5830134,0.0269876469 23.7146833,0.0761018117 C23.8278791,0.408535981 23.943762,0.526711702 23.9434268,1.06509011 C23.8738964,1.13599555 23.8419866,1.19858677 23.7909309,1.29336202 L23.6384357,1.29336202 C23.5178503,1.10250404 23.4201056,0.993882955 23.1809501,0.912920015 C22.8359885,1.52659564 22.5692898,2.48407041 22.4943858,3.34770864 Z M16.699333,0.22813781 L16.5468378,0.912920015 C15.2213052,1.21846711 13.8442466,1.93208084 12.7341891,2.51075633 L12.8104702,2.66292643 C13.178239,2.78046518 13.8571113,3.01031276 13.5729463,3.49987874 C13.5475528,3.5758688 13.5221369,3.65195943 13.4966987,3.72815065 C12.9030086,3.54895938 12.3248704,3.55861458 12.2766699,2.81509653 C12.5853887,2.39036796 12.6064155,1.81558137 13.0391459,1.52160041 C13.6338772,1.11769088 15.8706862,0.335317322 16.699333,0.22813781 Z M25.6971209,5.09771505 C25.2554223,5.05473597 25.2513916,4.85760881 24.9346449,4.71727305 L24.9346449,5.02161324 C25.2628119,5.77636218 24.9265835,7.33199049 25.1633877,8.44555779 C25.5909789,10.4570594 25.8136756,15.1177087 25.1633877,16.8912162 C24.8167466,17.8369907 24.2134837,18.2478064 23.5621881,18.8694945 C21.3389155,19.0572346 21.2952495,18.2698994 20.740691,16.586876 L20.6644434,16.586876 C20.6100288,18.8095853 17.9103935,19.8143974 15.8605758,18.9455963 C15.1637668,18.6502408 14.7228071,17.8220385 13.9542514,17.6521002 C13.5866171,18.1163548 11.4081862,19.4573223 10.4466267,19.2499365 C9.93486084,19.1395386 9.55503359,18.8752943 9.0740691,18.7934262 C8.98391555,19.8501351 7.71471209,21.2857773 7.09149712,21.912997 C6.66357006,22.3436595 6.13148273,22.4320985 6.10021113,23.2825614 C6.28773992,23.5809342 6.21424664,24.0411322 6.32898752,24.4238539 C6.78684261,25.9511536 6.9884453,28.2942177 8.76907869,28.4564789 C9.12273992,28.679655 9.77289347,28.4089739 10.0653551,28.3043088 C10.8249424,28.0325214 11.2499472,27.6773908 11.8191843,27.2390846 C12.281406,26.8832835 12.3318906,26.3232814 13.1154607,26.2500963 C13.161142,26.3813132 13.1833445,26.4899343 13.1917083,26.7066066 C12.8558157,27.1759569 13.3908925,27.8938619 13.725475,28.0001027 C13.9810221,28.1831829 14.6817274,28.0702706 14.8692898,27.9240009 C15.1526152,27.8442113 15.2137812,27.8104516 15.2505614,27.4674906 C14.6293618,26.8535468 14.841881,25.8925183 15.1742802,25.1088038 L15.4030566,25.032702 C15.5130614,25.3685222 15.7519818,25.6802043 15.8605758,26.0216903 C16.1913964,27.0624747 15.8209069,28.5371066 15.4030566,29.1412611 C15.1140211,29.5591841 14.280571,29.6642515 14.1067466,30.0543152 C13.596929,30.6999402 13.5243426,31.9907878 13.6492274,33.0216824 C14.4895633,33.6884952 15.0078791,33.9265229 16.0893186,33.173886 C17.0603839,32.4983567 17.6005662,31.310565 18.4531622,30.510859 C20.013215,29.0474581 22.9619482,28.1387957 25.0870393,27.2390846 C25.0615115,27.2137396 25.0363196,27.1883612 25.0107917,27.1630163 C24.8300816,26.6929619 23.803594,25.9309045 23.0283541,26.0977921 C22.7058973,26.1671218 22.5067131,26.2931089 22.113047,26.326064 C22.1291699,25.687144 22.4338244,25.2148434 22.6471161,24.7282277 C24.4327207,23.8506095 27.3113196,23.6589804 29.2047457,24.5760576 C29.7754271,24.8524714 30.2480278,24.7269202 30.2722121,25.5650459 C30.000475,25.7871492 29.8167418,26.3029317 29.6622313,26.6302701 C28.9561852,26.7211564 28.3307534,27.1837012 27.7560413,27.4672224 C27.7812332,27.4925673 27.806761,27.5179457 27.8322889,27.5433242 C28.6951967,28.4134327 31.3551296,28.1878093 31.3396785,26.7063384 C31.4565691,26.5191346 31.4841123,25.8037776 31.4159261,25.488944 C31.2043138,24.5126282 31.3181814,23.3279878 31.1109357,22.3693732 C31.0602159,21.2281813 31.0093842,20.0868776 30.9584405,18.9454622 C30.7773944,18.1109572 30.7780662,16.9259481 30.7296977,16.0541298 L30.7296977,14.5325293 C30.6615115,14.2745543 30.3719722,13.7998734 30.4247073,13.4673051 C30.6027303,13.0108284 30.7806414,12.5543069 30.9584405,12.0977407 L31.1109357,12.0977407 C31.6030182,13.0276915 32.4306574,14.7588903 32.4833925,15.9781956 C32.0484117,15.939273 31.9684693,15.7313843 31.7209165,15.5216517 L31.7209165,16.4347059 C32.0826727,17.0071457 31.8357917,19.703396 32.0259069,20.6195009 C32.1784021,21.3540007 32.0087764,22.2271936 32.1784021,23.0542895 C32.928786,26.7075117 31.5512908,31.2223942 27.6035461,29.2934647 L27.6035461,29.369533 C27.8665499,29.7176234 28.025763,30.3685788 28.2135269,30.7389633 C28.881953,30.8502664 29.807001,31.2666472 30.7296977,30.9672687 C31.4401104,30.7369518 31.8425096,30.303909 32.7887188,30.2825871 C32.806857,30.6121046 32.8827687,30.7309173 32.7124712,30.9672687 C32.5465403,31.4094638 32.097452,31.6847043 31.8734117,32.1087959 C31.8226919,32.0578379 31.7718602,32.0071033 31.7209165,31.9565923 C31.7464443,31.8806022 31.7718602,31.8045004 31.7971641,31.7282869 C32.0262428,31.5532862 32.344333,31.1422694 32.4071449,30.8150651 L32.2546497,30.8150651 C31.7004271,31.34409 30.1516267,31.7611414 28.9760029,31.5760832 C28.4919818,31.4999814 27.7284981,30.9937535 27.6797937,31.0433705 C27.0153983,31.5630085 27.1000432,31.1043861 26.688239,31.1955742 C26.4558013,31.2472027 26.4591603,31.4382954 26.1545058,31.4999814 C26.1800336,31.3222988 26.2054495,31.1447279 26.2307534,30.9672687 C26.3560413,30.8948547 26.4833445,30.703695 26.6119914,30.6630291 C26.9683733,30.5504185 27.2135749,30.9384372 27.450715,30.5869273 C27.6378071,30.2681713 27.3465883,30.0109673 27.2982198,29.749975 C27.2545537,29.5124502 27.4087284,29.346099 27.450715,29.1412611 C26.9058973,28.9648189 26.6509549,28.4451474 26.1545058,28.2282405 C25.591214,28.8952209 23.1482678,29.5287769 22.1892946,29.9782469 C20.7375672,30.658805 19.4402831,31.4272321 18.3769146,32.4889697 C17.296214,33.5681403 16.8312044,35.002341 14.6405134,34.9999971 C14.275096,34.6798302 13.8117658,34.5299734 13.4967322,34.1628743 C12.5345681,33.0424679 13.3009741,30.8636764 13.6492274,29.749975 C12.2473129,29.6233174 12.8678743,28.4363974 12.3529511,28.0760704 C11.4615595,29.4348397 8.6215547,31.5211022 7.01524952,29.369533 C6.53928983,28.7320211 6.21028311,27.8444125 5.94771593,27.0108462 C5.86166027,26.7376843 5.92846929,26.3872807 5.79522073,26.1738604 C5.61807102,27.6955278 3.69528791,28.5827341 2.05881958,28.1521387 C2.00333013,27.9647338 1.94891555,27.8861511 1.83007678,27.7716967 C1.81116603,25.7725658 2.61871881,24.8130795 3.58387236,23.8151735 C3.96285988,23.423333 4.66588292,23.2161819 4.80393474,22.5977792 C4.68989923,22.4797041 4.74464971,22.4579128 4.57515835,22.3695073 C4.02667946,23.0644811 1.20870921,24.788338 0.152495202,24.956466 C0.127101727,24.9057539 0.101685861,24.8550305 0.0762476008,24.8042959 C1.20508157,24.092392 2.29266795,23.1589882 3.35512956,22.3695073 C3.70173704,22.1119681 4.23755278,21.9419627 4.34641555,21.4564532 C3.98029271,20.9011111 4.51745202,20.1083448 4.57515835,19.6303785 C4.3978071,19.5440516 4.32229846,19.4677486 4.11763916,19.4021066 L4.11763916,19.4782084 C3.86011036,19.7500964 3.88560461,20.1459934 3.43137716,20.2390589 C3.08204894,19.8957961 2.31450096,19.6562598 2.13506718,19.1738347 C2.37539827,18.9659795 2.52970729,18.4802019 2.66883397,18.1848464 L2.59258637,18.1848464 C2.11766795,18.8404953 0.873690019,19.3270441 0,19.5542767 L0,19.3260383 C0.711487524,19.0089251 2.21383397,18.190311 2.59258637,17.5760319 C2.31994242,17.4176261 2.18709693,17.2798383 2.13506718,16.8912162 C2.3543714,16.5894909 2.64898273,15.9025296 3.12635317,16.1303657 C3.31445298,16.2288622 3.17828215,16.0977123 3.27888196,16.2825358 C3.46721689,16.5852668 3.11765355,16.9790853 3.27888196,17.2715241 C3.36621401,17.430131 3.498119,17.2274387 3.58387236,17.6519661 C3.45240403,17.7837865 3.46966891,17.8637101 3.27888196,17.9563063 C3.181238,17.9570773 3.0571929,17.8108077 2.89761036,17.880238 C2.83627639,17.9579155 2.87053743,17.9010906 2.82136276,18.0324081 C3.39285029,18.0856794 3.78164587,18.5402452 4.19388676,18.7934262 C4.250619,18.4271653 4.43677063,18.1895399 4.57515835,17.8803721 C5.18940499,18.0163831 5.70160749,18.495154 6.10011036,18.8693604 C6.0165739,19.3185958 5.71047505,20.0712661 5.26135317,20.1628565 C5.19027831,20.0933927 5.12753359,20.0616109 5.03257678,20.0106864 L5.03257678,20.0867547 C5.21268234,20.2868991 5.23021593,20.5653915 5.49009597,20.6954686 C5.78796545,20.1819658 7.13089731,18.9661136 7.62516315,18.5650202 C7.88904031,18.3508958 8.27820537,18.3180078 8.54020154,18.1085099 C8.12490403,17.6608502 7.81853647,16.8460915 7.62516315,16.2062999 C7.50612284,15.8124143 7.60836852,15.4144722 7.39642035,15.1410756 C7.24761996,16.4170717 5.18178023,17.7076847 3.73626679,17.119354 C2.71135797,15.3535573 4.50572937,13.4311316 5.41384837,12.5541169 C5.75803743,12.2217163 6.31548464,12.0727646 6.40513436,11.4888927 C6.3531382,11.4302239 6.30513916,11.319122 6.25263916,11.2606543 C5.55354607,12.1579517 4.25653071,12.6900274 3.2025,13.2388991 C2.87493762,13.409508 2.18353647,13.9865072 1.82997601,13.847613 C1.76864203,13.769902 1.80290307,13.8267605 1.75372841,13.6954429 C2.64511996,13.0688937 3.59364683,12.4424451 4.49880998,11.7932664 C5.01645393,11.4219768 5.44239923,10.8813857 6.023762,10.5758721 C5.76354607,10.037259 5.92339731,9.02641241 6.25253839,8.59759379 C6.33432821,8.54040009 6.32462092,8.55183213 6.48128119,8.52149198 C6.56333973,8.87504691 6.79554223,9.40353544 7.01504798,9.662818 C7.4896977,8.95654626 9.4303167,7.20315381 10.4464251,7.07585928 C10.5647265,7.1896097 10.5865595,7.13499743 10.6751679,7.30409767 C10.9868762,7.8072748 10.4037332,8.52756001 10.2176488,8.8258657 C9.75381478,9.56941728 9.29394434,10.2771306 8.69269674,10.8802123 C8.27410749,11.3000127 7.75169386,11.3605924 7.70141075,12.1736749 C7.94298464,12.5630011 7.87110365,13.1241765 8.00643474,13.6193411 C8.40950576,15.0938724 8.96762476,18.0172883 11.2853167,17.4236942 C11.5002879,17.3686796 11.7969482,17.2035353 11.9715787,17.119354 C12.3766651,16.9241042 12.7467514,16.8777391 13.0391123,16.5867419 C12.5590211,16.2826028 12.0991507,15.78251 11.5141603,15.5977536 C10.9066315,15.4057557 10.356406,15.8704126 10.0653551,15.7499237 C10.0041555,15.6601772 10.006406,15.6219922 9.98910749,15.4455835 C10.3136132,15.0066068 10.2949376,14.3842817 10.7515835,14.0760191 C12.0819194,12.9845447 17.6663676,13.176442 18.2243186,14.6846994 C18.2816555,14.7663329 18.2702015,14.7566442 18.3005998,14.9129714 C18.0474376,15.1938105 17.9483829,15.7896508 17.6143042,15.9781956 C17.2082438,16.258733 15.9036372,16.5140261 15.7079798,16.8912162 C16.1110509,17.03296 16.4396545,17.310279 16.9280422,17.4238283 C18.0493186,17.6842842 19.4192562,17.2592204 19.8256526,16.7390461 C20.5592418,15.8003453 20.3603935,14.1185623 20.3594194,12.6303528 C20.3573033,9.47390448 20.2279175,6.46912334 19.5969434,3.88032074 C19.3725336,2.95968997 19.6159885,1.94508855 19.9019674,1.29336202 L20.0544626,1.29336202 L20.0544626,1.44553212 C20.5397265,2.02105626 20.4491699,3.12178348 20.6644434,3.95655666 C20.9237524,4.96230747 21.0178023,6.29113897 21.1981766,7.3805012 C21.3385797,8.22898612 21.1400672,9.63412058 21.3506718,10.5761738 C21.5206334,11.3362197 21.2777831,12.3446861 21.4269194,13.0109625 L21.4269194,14.532697 C21.6462572,15.5020061 21.5082054,16.8033806 22.4181382,17.0437215 C23.1863244,17.6686615 24.2783109,16.6395438 24.6296545,16.2827034 C24.6262956,14.8091108 24.6689539,13.3435307 24.4009117,12.0979084 L24.4009117,10.8042446 C24.274952,10.2177578 24.3011516,9.35059943 24.1721689,8.74989799 C23.9044626,7.50424208 24.1933301,6.109668 23.9434261,4.94554496 L23.9434261,3.49987874 C23.9168906,3.39276627 23.7371881,3.12178348 23.7146833,3.04336844 C23.5427063,2.44662296 24.034453,1.40500036 24.4009117,1.29336202 C24.7552783,2.5554452 25.6302783,3.59156968 25.6971209,5.09771505 Z M17.995643,1.74987232 L18.1481382,1.74987232 C18.2046017,2.82686382 18.6659837,3.052152 18.3769146,4.33683104 C18.14488,4.47243977 18.0839827,4.54840748 17.690619,4.56510295 C17.5048704,4.3840678 17.4020537,4.41048552 17.309381,4.10859265 C17.248047,4.18627014 17.2823081,4.1294117 17.2330998,4.26076275 C16.9666363,4.47532293 17.0152735,4.66765601 16.5468378,4.71727305 C16.3643474,4.81429448 16.3201775,4.7564638 16.1655662,4.64117123 C15.6319674,4.24332974 16.0428983,3.95521565 15.8605758,3.27160683 C15.7719674,2.93937381 15.1965499,2.29368178 16.1655662,2.13031433 C16.2112476,2.26153128 16.2334837,2.37015237 16.2418138,2.58682462 C16.3908157,2.94815736 15.9638292,3.59193846 16.4705902,3.88032074 C16.5524136,3.93751444 16.5427063,3.92608241 16.699333,3.95638903 C16.8068186,3.78205889 17.026358,3.6390076 17.0806046,3.42377692 C17.2327975,2.82005823 16.5237956,2.24433294 17.1568522,1.90204242 L17.2330998,1.82597413 C17.2803599,2.35902206 17.573191,3.98776846 18.0718906,3.72815065 L18.2243858,3.57598055 C17.790144,3.11494437 17.9360557,2.33528634 17.7669002,2.05421251 C17.8542994,1.94344582 17.9195969,1.88685558 17.995643,1.74987232 Z M7.93042226,3.57598055 L8.31169386,3.57598055 C8.33708733,3.65197061 8.3625032,3.72805007 8.38794146,3.80421893 C8.55387236,4.07332432 8.28488964,4.27004918 8.38794146,4.56523705 C8.44611804,4.73185643 8.58309501,4.69159288 8.61668426,5.02174734 L8.38794146,5.25001925 L8.08291747,5.02174734 C7.82696737,5.74588793 6.50758157,6.35460185 5.6428263,6.46741356 L5.6428263,6.31524347 C6.29207294,5.95759848 7.37216891,5.47711779 7.77792706,4.86957724 L7.39652111,4.48886704 L7.62526392,3.80408483 C7.69680902,3.7077339 7.8481286,3.68466869 7.93042226,3.57598055 Z M7.85417466,4.10859265 C7.87956814,4.18458272 7.90498401,4.26066218 7.93042226,4.33683104 L8.08291747,4.33683104 L8.08291747,4.18466094 L8.00666987,4.18466094 C7.92867562,4.12344424 7.98564299,4.15767329 7.85404031,4.10859265 L7.85417466,4.10859265 Z M8.84546065,7.45640187 C8.87804223,7.15162584 8.97309981,6.93367964 9.07420345,6.69555137 L15.7844626,4.18452684 L15.7844626,4.33669694 C15.8382054,4.43469059 15.756382,4.58404459 15.7081814,4.79324076 C14.4426056,5.47849231 12.9787524,5.82011234 11.5905422,6.39104355 C10.7565883,6.73413868 9.8275096,7.34855185 8.8453263,7.45640187 L8.84546065,7.45640187 Z M22.0369002,4.26089685 C21.9294146,4.45292821 21.7228407,4.45440331 21.9606526,4.56523705 C22.0946737,4.41772693 22.2589251,4.38520765 22.4181382,4.26089685 L22.0369002,4.26089685 Z M26.2308541,5.93480146 L26.3833493,5.93480146 C26.3212092,6.7617633 25.9117562,7.32303931 26.0783589,8.21741998 L26.3833493,8.21741998 C26.4821017,8.03638484 26.5674184,7.85608724 26.7645873,7.76090969 C26.7901152,7.78625461 26.815643,7.81163305 26.8408349,7.83697797 C26.6618042,8.40438906 26.6735605,8.95373015 25.9258637,8.978304 C25.8549904,8.90884014 25.7921785,8.87705842 25.6971209,8.8261339 C25.5103647,7.41875326 26.0256238,6.93716625 26.2308541,5.93466736 L26.2308541,5.93480146 Z M27.6798944,6.08683746 C28.1222649,6.41390762 29.0849328,9.11092901 29.1285988,9.89132459 C29.103071,9.91670303 29.0775432,9.94208148 29.0523512,9.9674264 C28.918666,9.91945209 28.978119,9.95274244 28.899856,9.89132459 C28.6355086,9.80258384 28.5713532,9.64860339 28.3661228,9.51091611 L28.3661228,10.2717666 C28.7322457,10.8593933 28.3866123,12.39551 28.5948656,13.3152691 C28.8266315,14.3394587 28.5807582,15.5820638 28.8236084,16.6631119 C29.349952,19.0058072 29.1410269,22.3799336 28.2136276,23.9674777 L28.0611324,23.9674777 C28.0127639,23.8340146 28.0463532,23.8935551 27.9848848,23.8153076 C28.3980326,22.5912754 28.1917946,19.4148126 27.9086372,18.1848464 C27.7225528,17.3768932 27.8649712,16.3394948 27.756142,15.8261596 C27.6800064,14.3552825 27.6037588,12.8842602 27.5273992,11.4130926 C27.3534069,10.6176443 27.5797985,9.59576795 27.3745681,8.6740979 C27.2892514,8.29003519 27.0034069,7.74944413 27.1458253,7.22846521 C27.2479367,6.85573395 27.4995202,6.41149382 27.6798944,6.08683746 L27.6798944,6.08683746 Z M17.8431478,6.31524347 C18.1159597,6.31698677 18.2559597,6.35044474 18.4531622,6.39131175 C18.5632342,6.71422481 18.6789155,6.79086303 18.681905,7.30436587 C18.6206046,7.38207688 18.6548656,7.32521843 18.6056574,7.45653597 C18.5082663,7.49664288 18.4055103,7.52228276 18.300667,7.53263778 L17.995643,7.15219577 C17.9702271,7.17758539 17.9448113,7.20295266 17.9193954,7.22829758 C17.4280854,7.64518129 17.3101536,9.24134136 17.004357,9.89132459 C16.8706046,9.84335027 16.9302927,9.87667415 16.8518618,9.8152563 C16.6771977,9.53867483 16.2681478,8.23894305 16.1655662,7.91307979 C15.7442226,7.99538373 15.3961372,7.93004345 15.2505614,7.53263778 C15.1893282,7.44289128 15.1916123,7.40470627 15.1742802,7.22829758 C15.4417514,6.92855031 15.3626488,6.64888454 15.9367562,6.61958366 C16.0403455,6.71556582 16.0715835,6.72351125 16.2417466,6.77175376 C16.3401631,7.06868493 16.5823081,7.13291888 16.6992658,7.38046768 C16.8712428,7.74414717 16.8517274,8.21349755 17.0806046,8.52162608 C17.0933685,7.59891676 17.4652015,6.87527904 17.8431478,6.31510937 L17.8431478,6.31524347 Z M13.725475,6.46741356 L14.335523,6.46741356 C14.4088148,6.60178187 14.4313868,6.59527802 14.4880182,6.77175376 C14.6503551,6.99600267 14.5475048,7.51359556 14.4117706,7.68480788 C14.228239,8.29466164 13.5686804,9.01809821 12.9629655,9.20654238 L12.9629655,9.1304741 L12.8867179,9.05437229 C13.3344626,8.76367677 13.9370202,8.08288405 14.030499,7.45653597 C13.9691651,7.37885848 14.0034261,7.4356834 13.9542514,7.30436587 L13.6492274,7.30436587 C13.5051967,7.42398316 13.4917274,7.44812118 13.344237,7.38046768 C13.2829031,7.30275667 13.3171641,7.35961511 13.2679894,7.22829758 C13.4416795,6.98685034 13.5773129,6.6939757 13.725475,6.46727946 L13.725475,6.46741356 Z M6.32912188,6.61958366 C6.95421785,6.75817613 7.44428503,7.23550546 7.8540739,7.60857196 C7.76842131,8.06595391 7.45691459,8.79535793 7.01528311,8.90203456 C6.7940643,8.62220116 6.22869002,8.26170654 5.87150192,8.14101645 L5.87150192,8.21711826 C5.66966411,8.43208073 5.49194338,8.80940491 5.33773512,9.05407056 L5.26148752,8.97800227 C4.75764875,8.73045347 4.30644434,8.33281313 3.88892994,7.98884635 C4.09066699,7.54785814 4.3575,7.11924067 4.57519194,6.69538375 C5.10425624,6.91698418 5.45523033,7.31958623 5.94774952,7.53233605 C6.00911708,7.14508846 6.21706814,6.95335883 6.32898752,6.61944956 L6.32912188,6.61958366 Z M9.83661228,8.06511578 C9.30677543,8.79458685 7.38637716,9.76188446 7.32027351,10.7281763 L7.39652111,10.8042446 L7.47276871,10.7281763 C8.5159501,10.0875801 9.06133877,8.88429982 9.98910749,8.14118407 L9.98910749,8.06511578 L9.83661228,8.06511578 Z M11.0566411,8.90206809 C11.2505182,9.01270068 11.1426631,8.88557377 11.2091363,9.13034 C10.8008925,9.65138597 10.7034165,10.7757483 10.7516507,11.4890268 L10.9041459,11.6411969 C11.0378983,11.5932226 10.9782102,11.6265465 11.0566411,11.5651286 C11.3203839,11.4656599 11.3992514,11.2693038 11.5141603,11.0325165 C11.5395761,11.0578614 11.564992,11.0832287 11.5904079,11.1086183 C11.6517418,11.1862958 11.6174808,11.1294374 11.6666555,11.2607884 C11.2870969,11.8703405 11.4055326,12.7209039 10.4466267,12.3260126 C9.88434261,11.1232017 10.6683493,9.68501157 11.0566411,8.90206809 Z M13.725475,9.51091611 C14.3152351,9.60776991 14.8775864,10.1476234 15.2504271,10.4999044 C15.0936996,10.9437422 14.909429,11.6896406 14.4116363,11.7934005 C14.0483013,11.4322354 13.2337284,11.2286379 13.1153263,10.6520745 C13.3878695,10.4152872 13.5671353,9.84559645 13.725475,9.51091611 Z M30.8060461,9.73888629 L31.1872841,9.73888629 C31.3884837,10.0381307 31.4966411,10.0897927 31.4922745,10.6519404 C31.3330614,10.7372616 31.3525432,10.7610979 31.1110365,10.8041105 C31.0129559,10.6107046 31.0273992,10.5855609 30.8060461,10.4997703 L30.8060461,10.5758721 C30.359309,11.0843462 30.5739443,12.5282356 29.8910749,12.7823888 L29.8910749,12.6302187 C29.6441939,12.2499108 29.4829655,11.5095776 29.281094,11.1084842 C28.7977447,11.2642415 28.5024952,11.0205481 28.518618,10.4236685 C28.7863244,10.2012299 28.678167,10.0576422 29.2048464,10.04326 C29.2827735,10.1044432 29.2256718,10.07008 29.3573417,10.1193283 C29.5323417,10.4166618 29.8386756,10.6973333 29.9673225,11.0323824 C30.0610365,11.2763776 29.9921785,11.4658275 30.1198177,11.6410628 C30.1315739,10.8110167 30.4493282,10.215981 30.8060461,9.73888629 Z M22.9522073,10.3476002 C23.0916027,10.4669158 23.0583493,10.4146503 23.1047025,10.6519404 C22.7291747,11.1347008 22.5921305,12.1880907 22.6472169,13.0106607 C22.6979367,13.0613729 22.7487684,13.1120963 22.7997121,13.1628308 C22.9333973,13.114823 22.8736084,13.1481469 22.9522073,13.086729 C23.2068138,12.9877296 23.287428,12.769951 23.4096929,12.5541169 C23.4348848,12.5794954 23.4604127,12.6048403 23.4859405,12.6302187 C23.5470729,12.7078962 23.5128119,12.6510713 23.5621881,12.7823888 C23.1910269,13.3068879 23.4365643,13.935348 22.5709693,13.9997831 C22.38119,13.8007115 22.3046065,13.8547874 22.265643,13.467171 C21.7171305,12.6424218 22.8322937,10.9035793 22.9522073,10.3477343 L22.9522073,10.3476002 Z M17.5381238,13.5434069 L17.5381238,13.315135 C17.9829798,13.1661833 18.5558781,12.4060369 18.6056574,11.8694688 L18.681905,11.7934005 C18.5224568,11.7080793 18.5422409,11.684243 18.300667,11.6411969 C18.1767898,11.7549473 18.146358,11.7592721 17.9193954,11.7934005 C17.9702047,11.5397949 18.0210365,11.2861222 18.0718906,11.0323824 C18.3367754,10.8996233 18.4044242,10.8152408 18.8343666,10.8041105 C18.9526679,10.9178944 18.974501,10.8632487 19.0631094,11.0323824 C19.6429942,11.8870359 18.0945298,13.4494698 17.5381238,13.5434069 Z M6.63387716,12.7064211 C6.02927063,13.5829665 4.3534357,14.1499082 4.27006718,15.4454158 L4.42256238,15.4454158 C5.02679942,15.860858 6.78237524,14.8848439 6.93890115,14.5323617 C7.22954894,14.181757 6.94521593,12.9611443 6.63387716,12.7064211 Z M13.5729798,14.9889055 L13.5729798,15.1410756 C14.044237,15.2939833 14.1545777,15.7035585 14.6405134,15.8258914 C14.9010653,15.5116948 15.408095,15.4902723 15.708047,15.2171775 L15.6317994,15.1410756 C14.9995154,15.0979625 14.3627639,14.9924592 13.5729798,14.9889055 Z M33.5512956,15.5215176 C34.0453935,15.9369598 34.9287908,18.5240191 35,19.4019725 C34.9744722,19.4273509 34.9492802,19.4526959 34.9237524,19.4780743 C34.6244722,19.3302625 34.4891075,19.120731 34.237524,18.9454622 L34.237524,19.8585163 C34.5273992,20.3222345 34.3137716,22.2572655 34.4662668,22.9780871 C34.6691459,23.9369029 34.4736564,25.0425248 34.6950096,26.097658 C34.9727927,27.4203209 35.0738964,29.8215845 34.7712572,31.1193383 C34.5730806,31.9685272 34.6076775,32.9709255 34.0087812,33.4020574 C33.9832534,33.4275364 33.9577255,33.4526802 33.9325336,33.4781592 L33.9325336,33.1737519 C33.7430902,32.8049766 34.1411228,29.91874 33.9325336,28.9889569 C33.7582054,28.2115786 33.9795585,27.2674132 33.7800384,26.4019982 C33.662476,25.8930547 33.6550864,25.329499 33.5512956,24.7280936 C33.5035988,24.4519144 33.6544146,23.8969076 33.5512956,23.4345974 C33.1922265,21.826536 33.5106526,20.0413618 33.2463052,18.26068 C33.1865163,17.8597877 32.8721209,17.2649867 32.9413148,16.8910821 C33.0182342,16.4738631 33.3521113,15.8821128 33.5512956,15.5215176 L33.5512956,15.5215176 Z M26.3071017,15.5976195 C26.5009117,15.7082521 26.3930902,15.5810916 26.4595969,15.8258914 C26.024952,16.3133453 25.9493762,17.462382 26.0021113,18.1845782 L26.2308541,18.26068 C26.3047505,18.2797893 26.2597409,18.320321 26.3071017,18.26068 C26.5707774,18.1611777 26.6497121,17.9648552 26.7645873,17.7280679 L26.8408349,17.7280679 L26.8408349,18.2609482 C26.4878119,18.7552747 26.6893474,19.1175797 25.7733685,19.0979005 C25.7478407,19.0471771 25.7226488,18.9964538 25.6971209,18.9457304 C25.0394434,18.130033 26.0585413,16.1069652 26.3071017,15.5977536 L26.3071017,15.5976195 Z M2.66883397,16.6629778 L2.66883397,16.8912162 L2.97385797,16.967318 L2.97385797,16.8151479 C2.82881958,16.7131647 2.9071833,16.717523 2.66883397,16.6629778 Z M8.23527831,19.0977664 C7.78286468,20.0194029 6.00518714,20.6050851 5.64269194,21.6087909 C5.69216891,21.6742318 5.7447025,21.8480255 5.79522073,21.9131311 C6.01395393,21.6029576 6.36879079,21.4169607 6.63397793,21.152113 C7.01615643,20.7704306 7.3277975,20.3255535 7.70151152,19.9347187 C7.9131238,19.71342 8.38579175,19.4358663 8.23527831,19.0977664 L8.23527831,19.0977664 Z M14.335523,19.7825486 L14.7930422,19.7825486 L14.7930422,19.9347187 C15.0414012,20.272718 14.7485029,20.7158518 14.4117706,20.771671 C14.3184597,20.5358224 14.3831526,20.5996206 14.1067466,20.5434326 C13.9765211,20.7507849 13.9133733,20.733486 13.8780038,21.0760447 L14.1067466,21.152113 C14.22488,21.2319696 14.4182869,21.230528 14.6405134,21.2282148 C14.816118,20.9917963 15.1800576,20.6470585 15.4793042,20.5434326 L15.4793042,21.152113 C14.8739251,21.8393761 13.6350192,22.5141343 13.5729798,23.6631375 L13.8018234,23.7389376 C14.5345393,24.2661857 15.8327975,23.4417047 16.4706574,23.5867675 L16.3944098,23.6628693 C15.8496257,24.461469 14.5245633,24.7043914 13.3443042,24.4237198 C13.2047073,24.1320521 13.1192562,23.9828993 13.1155278,23.5106992 C13.1875432,23.3967142 13.1277543,23.2335478 13.1917754,23.0541554 L13.8018234,22.0651671 C13.5187668,21.935023 13.3964347,21.7992131 13.1917754,21.6086568 C13.1976871,20.5817182 13.829501,20.2992698 14.335523,19.7825486 Z M26.1546065,20.5435667 C26.1391555,20.8946408 26.0538388,21.0723905 25.8496161,21.2283489 C23.6384357,22.0905903 21.4271433,22.9529098 19.215739,23.8153076 C19.2132961,23.6849659 19.1874721,23.5561156 19.1394914,23.4348656 C19.3419002,23.3198748 19.3473081,23.1194622 19.520763,22.9783553 C20.1589587,22.5066917 21.1075528,22.4602596 21.8844722,22.1413695 C23.1225048,21.6331636 24.784501,20.774286 26.1546065,20.5434326 L26.1546065,20.5435667 Z M21.2744242,20.6957368 C21.3795739,20.7042605 21.4826079,20.7299584 21.5794146,20.7718051 C21.4789827,21.0203261 21.3550384,21.2084351 21.2744242,21.4565873 C20.164333,21.5771098 18.3608925,22.4471178 17.5381238,22.9783553 L17.6143714,23.0544236 C17.9160701,23.3787112 18.3382534,23.1906693 18.3768474,23.8154417 C18.434285,23.9071997 18.3653599,24.0293649 18.3005998,24.1958838 C17.821953,24.1068413 17.5128983,23.9236941 17.156785,23.7393399 C16.9246833,21.2160452 19.9103647,21.7725272 21.2744242,20.6956027 L21.2744242,20.6957368 Z M11.5141603,21.2282148 C11.730475,21.250509 11.846929,21.2788711 11.9716795,21.3803849 C12.3579559,21.7259609 12.2629655,22.0950044 12.0479271,22.5216774 L11.8954319,22.5216774 C11.7804223,22.2970597 11.7289299,22.2050335 11.4379127,22.1412354 C11.1053791,22.8438865 10.8937668,23.9005283 10.6754367,24.7282277 C10.578038,24.7683056 10.4752847,24.7939335 10.3704463,24.8042959 L10.2941987,24.7282277 C10.292452,23.8751498 9.89153071,23.4530027 9.68415067,22.8260511 C9.29011516,22.9613917 8.99009597,22.8545474 8.84539347,22.5216774 C8.77848369,22.4231809 8.7771737,22.3339373 8.76914587,22.1412354 C9.03416507,21.844036 8.94045106,21.6212287 9.53162188,21.6086568 C9.60948177,21.66984 9.5525144,21.6354769 9.68411708,21.6847251 C9.89190019,21.9833325 10.2194626,22.2437214 10.3704127,22.5977792 C10.486833,22.8709076 10.4433349,23.2087729 10.5991555,23.4347315 C10.6911228,22.4725297 11.002428,21.7653528 11.5141603,21.2282148 Z M7.77779271,23.3586632 L8.00653551,23.4347315 C7.66107006,24.2896197 7.37317658,24.996629 7.54901631,25.9457561 C7.68367562,26.0189077 7.67715931,26.041403 7.85404031,26.0979262 C7.97160269,25.9049226 8.17629559,25.5919665 8.3878071,25.4892122 L8.3878071,25.5653141 L8.4640547,25.5653141 C8.37215451,26.0957135 8.22778791,26.8060083 7.62526392,26.8588102 C6.15442418,27.0619383 7.67141555,23.7162077 7.77779271,23.3586632 Z M5.03267754,23.7389376 C4.44174184,24.5814551 2.77998081,25.3570231 2.59258637,26.4779324 L2.74508157,26.4779324 C3.40474088,26.9333028 5.26891075,25.9098843 5.41394914,25.5648782 L5.41394914,24.8803978 C5.21305182,24.5516178 5.30962092,23.9882633 5.03267754,23.7389376 Z M25.5446257,25.5650459 C25.7522073,25.7953293 26.5630518,26.4766919 26.7645873,26.4019982 C27.1894914,26.2991434 27.5294146,26.0506559 27.9086372,25.8693861 C27.8307102,25.8082029 27.887476,25.8423984 27.756142,25.7933178 C27.3047025,25.4707735 26.2997121,25.5555583 25.5446257,25.56518 L25.5446257,25.5650459 Z M20.3594866,25.6411141 L20.6644434,25.6411141 C20.8619482,25.9347934 21.0735605,26.0111299 21.121929,26.4781 C20.9348369,26.6773727 21.0117562,26.7845522 20.6644434,26.858542 C20.5424808,26.6142451 20.5619962,26.586654 20.2069578,26.5541683 C20.0906382,27.0718617 19.6303311,29.0644217 19.2156718,29.2172288 L19.2156718,29.0650587 C18.9288532,28.6101911 18.7441123,27.731936 18.5294098,27.2389505 L17.995643,27.3150523 C17.8097265,27.0665648 17.6119866,27.011986 17.5381238,26.6302701 C17.7343858,26.4334111 17.887452,26.1492865 18.0718906,25.9454879 C19.2683733,26.2288079 18.9096065,27.0858752 19.4444482,27.9237327 C19.4409213,26.9045718 19.8446977,26.1556563 20.3594866,25.6412482 L20.3594866,25.6411141 Z M23.4096929,26.2499622 L23.5621881,26.2499622 L23.5621881,26.3499622 C23.4285029,26.2868785 23.4879559,26.330667 23.4096929,26.2499622 Z M32.712572,27.3912547 L33.3225528,27.3912547 C33.4995681,27.672362 33.5607006,27.8544364 33.5512956,28.380243 C33.0397313,28.9653888 32.8664107,29.8808902 31.9497601,30.0541476 L31.9497601,29.9019775 C32.3776871,29.6208366 32.962476,28.9371942 33.0175624,28.3041412 C32.8828695,28.2309895 32.8892514,28.2084943 32.712572,28.1519711 C32.5698177,28.2820817 32.4512476,28.3579488 32.3309981,28.3041412 C32.2698656,28.2264637 32.3041267,28.2832886 32.2547505,28.1519711 C32.4378119,27.8947 32.5278311,27.619359 32.712572,27.3912547 Z M15.2505614,29.749975 C15.6833589,29.8154829 16.4619242,30.3080661 16.6230854,30.6630291 C16.869261,31.0524223 16.2729175,31.9210558 15.9368234,32.0326941 C15.5971353,31.6193305 14.7733925,31.4825484 14.6405134,30.8911669 C14.9051967,30.6231008 15.079928,30.0943441 15.2505614,29.749975 Z M6.17645873,33.0216824 L6.17645873,32.793377 C6.63854607,32.6304453 7.19303743,31.8493122 7.24399232,31.271676 C7.11252399,31.2260819 7.00366123,31.2039554 6.78650672,31.1955742 C6.6965547,31.2565897 6.65829655,31.2545782 6.48148273,31.271676 C6.51275432,30.8925079 6.63102207,30.5515584 6.93900192,30.4347572 C7.06785029,30.3478603 7.31234645,30.3536602 7.54901631,30.3586889 C7.7762476,30.7406396 7.75213052,31.025267 7.70151152,31.5760832 C7.16166507,32.0219661 7.0112524,32.8600918 6.17645873,33.0216824 Z M24.2484165,30.5869273 C24.7421785,30.7758408 24.8866123,30.9297207 24.8583973,31.652185 C24.796929,31.7299631 24.83119,31.6729706 24.7821497,31.8043887 C24.3414587,31.7574536 24.4106526,31.5847997 24.0196737,31.4999814 C23.8382917,32.2553003 23.5642035,33.3565974 23.2571977,34.0871078 C23.1809501,34.1122515 23.1047025,34.1377306 23.0284549,34.1628743 L23.0284549,34.0871078 C22.8611804,33.8222601 22.9411228,33.3968275 22.7997121,33.0977842 C22.6646833,32.8128215 22.4403071,32.5426098 22.3418906,32.1848977 C21.8961612,32.2626758 21.5773992,32.2190933 21.4269194,31.8043887 C21.3698177,31.7225876 21.381238,31.7323099 21.3506718,31.5760832 C21.6455854,31.2629595 21.5501919,30.978332 22.1893954,30.9672687 C22.2673225,31.0286195 22.2105566,30.994424 22.3418906,31.0433705 C22.5041267,31.3015133 22.8161708,31.5398762 22.9522073,31.8043887 C23.1228407,32.1362864 23.0512956,32.5855218 23.2571977,32.8694788 C23.253167,31.7973484 23.6508637,31.0768956 24.2484165,30.5869273 L24.2484165,30.5869273 Z M10.6753695,31.0433705 C11.1891171,31.1654016 12.0691219,31.6692828 12.1241747,32.2609995 C11.8508253,32.6116713 11.8017179,33.2157923 11.2854175,33.3260896 C11.0711852,33.0200062 10.496238,32.6354741 10.1416027,32.4889697 C10.1003887,32.9194311 9.90264875,33.3522392 9.45534069,33.4021915 C9.13775432,32.9583201 8.36285029,32.8667968 8.23527831,32.2609995 C8.49502399,31.9824066 8.67314779,31.4661211 8.8453263,31.1194724 C8.97907869,31.1674131 8.9193906,31.1342234 8.9978215,31.1955742 C9.49386756,31.3447605 9.80433301,31.7225876 10.2178503,31.9565923 C10.3076344,31.5831235 10.5123944,31.3367145 10.6753695,31.0433705 Z M7.01524952,31.271676 C7.09569005,31.349454 7.05075613,31.2924615 7.11524952,31.4238796 L7.01524952,31.4238796 L7.01524952,31.271676 Z" id="Shape_317_2"></path>
            </g>
        </g>
    </g>
</svg>