<!-- Generated by IcoMoon.io -->
<svg version="1.1" xmlns="http://www.w3.org/2000/svg" width="32" height="32" viewBox="0 0 32 32">
<title>cat_4_6</title>
<path fill="#d1a632" d="M32 21.656c0-4.664-3.143-8.739-7.575-9.968-0.279-6.492-5.647-11.689-12.207-11.689-6.738 0-12.219 5.481-12.219 12.219 0 2.196 0.584 4.334 1.694 6.211l-1.649 5.963 5.963-1.649c1.725 1.020 3.672 1.595 5.68 1.682 1.228 4.432 5.303 7.575 9.968 7.575 1.862 0 3.672-0.496 5.263-1.438l5.035 1.393-1.393-5.035c0.942-1.591 1.438-3.401 1.438-5.263zM6.304 20.716l-3.57 0.988 0.988-3.57-0.225-0.352c-1.061-1.66-1.622-3.583-1.622-5.563 0-5.704 4.64-10.344 10.344-10.344s10.344 4.64 10.344 10.344c0 5.704-4.64 10.344-10.344 10.344-1.979 0-3.903-0.561-5.563-1.622l-0.352-0.225zM29.266 29.266l-2.649-0.733-0.354 0.23c-1.371 0.891-2.965 1.362-4.607 1.362-3.666 0-6.887-2.37-8.029-5.769 5.614-0.647 10.081-5.114 10.729-10.729 3.399 1.142 5.769 4.363 5.769 8.029 0 1.642-0.471 3.236-1.362 4.607l-0.23 0.354 0.733 2.649z"></path>
<path fill="#d1a632" d="M11.625 16.875h1.75v1.75h-1.75z"></path>
<path fill="#d1a632" d="M14 9.249c0 0.55-0.231 1.058-0.651 1.43l-2.349 2.082v2.364h2v-1.511l1.699-1.506c0.827-0.733 1.301-1.775 1.301-2.859 0-2.136-1.794-3.874-4-3.874s-4 1.738-4 3.874h2c0-1.068 0.897-1.937 2-1.937s2 0.869 2 1.937z"></path>
</svg>
