<?xml version="1.0" encoding="UTF-8"?>
<svg width="27px" height="34px" viewBox="0 0 27 34" version="1.1" xmlns="http://www.w3.org/2000/svg" xmlns:xlink="http://www.w3.org/1999/xlink">
    <!-- Generator: Sketch 61.2 (89653) - https://sketch.com -->
    <title>cat_3_1</title>
    <desc>Created with Sketch.</desc>
    <g id="Page-2" stroke="none" stroke-width="1" fill="none" fill-rule="evenodd">
        <g id="Artboard" transform="translate(-675.000000, -328.000000)">
            <g id="cat_3_1" transform="translate(688.500000, 345.000000) scale(-1, -1) translate(-688.500000, -345.000000) translate(675.000000, 328.000000)">
                <path d="M0.50166796,3.48874265 C0.501658388,3.48881202 0.501649384,3.48887726 0.501631374,3.48900774 C0.501659388,3.48891572 0.501686263,3.48882743 0.501712197,3.4887396 Z M0.504570121,3.46450414 L0.504570121,33.0084608 C0.504570121,33.0489625 0.53740096,33.0817933 0.577902684,33.0817933 L23.8847582,33.0817933 C23.9253122,33.0817933 23.9580908,33.049019 23.9580908,33.0084608 L23.9580908,30.2152393 L25.6047559,30.2152393 C25.6453077,30.2152393 25.6780885,30.1824672 25.6780885,30.1420156 L25.6780885,0.573332563 C25.6780885,0.532880936 25.6451989,0.5 25.6046471,0.5 L2.48875733,0.5 C2.46463154,0.5 2.44210566,0.511842801 2.42840432,0.531760608 L0.517638218,3.30836619 C0.508087499,3.32226542 0.503797286,3.33925782 0.507128973,3.43457081 C0.505924296,3.44890586 0.505159049,3.4580119 0.504570121,3.46450414 Z M25.5313145,30.0684654 L23.957982,30.0684654 L23.957982,3.43977776 C23.957982,3.39922377 23.9252077,3.36644519 23.8846494,3.36644519 L2.37175953,3.36644519 L4.243597,0.646447502 L25.5313145,0.646447502 L25.5313145,30.0684654 Z" id="Shape" stroke="#D1A632" fill-rule="nonzero"></path>
                <g id="Group-3" transform="translate(5.000000, 7.000000)">
                    <path d="M12.1626403,1.4723627 L2.88253948,1.4723627 C2.68980647,2.39724701 2.11841266,3.18996423 1.30471738,3.65336769 L1.30471738,18.9268489 C1.88896946,19.2596324 2.35350331,19.7657935 2.63953361,20.3785484 C2.74811339,20.6110985 2.82964872,20.8555519 2.88237086,21.1076843 L12.1627382,21.1076843 C12.2154946,20.8555249 12.2970349,20.6110775 12.4055917,20.3785765 C12.6916081,19.7658513 13.156187,19.2596678 13.740421,18.9268601 L13.740421,3.65327744 C12.9268747,3.18993992 12.3554936,2.39724011 12.1626403,1.4723627 Z" id="Shape" stroke-opacity="0.7" stroke="#D1A632" stroke-width="0.654510719" fill-rule="nonzero"></path>
                    <path d="M15.2999996,19.6187148 C15.2999996,19.7679052 15.2082155,19.9015702 15.0693486,19.9547606 C14.6071307,20.1317863 14.2269872,20.439813 13.9625355,20.8276711 C13.7677005,21.113558 13.63607,21.4428057 13.5816591,21.7956629 C13.5641633,21.909393 13.5541789,22.0254198 13.5531712,22.1432838 C13.5515224,22.3407038 13.3913125,22.5 13.1944623,22.5 L2.10553731,22.5 C1.90859546,22.5 1.74847716,22.3407957 1.74682835,22.1432838 C1.74582074,22.0254198 1.73592785,21.909393 1.71843208,21.7956629 C1.66411277,21.4428057 1.53248234,21.113558 1.33755572,20.8276711 C1.07319564,20.439813 0.692960486,20.1317863 0.23074256,19.9547606 C0.091784059,19.9015702 0,19.7679052 0,19.6187148 L0,2.88146831 C0,2.73227796 0.091784059,2.59861296 0.230650959,2.54542256 C1.1434535,2.19559691 1.73858427,1.33646627 1.74682835,0.356715598 C1.74847716,0.159203742 1.90859546,0 2.10553731,0 L13.1944623,0 C13.3913125,0 13.5515224,0.159203742 13.5531712,0.356623732 C13.5615069,1.33655813 14.1566377,2.19568877 15.0693486,2.54542256 C15.2083071,2.59861296 15.2999996,2.73227796 15.2999996,2.88146831 L15.2999996,19.6187148 Z" id="Path" stroke="#DEC06F" stroke-width="0.899999976"></path>
                    <g id="Group-4" transform="translate(4.250016, 2.454129)" stroke="#D1A632" stroke-opacity="0.7" stroke-width="0.654510719">
                        <path d="M2.57607152,14.6836819 C2.64043984,14.6385991 2.71111267,14.607296 2.78583285,14.5884982 C2.84654299,14.5178473 2.91262365,14.4603388 2.98352998,14.4170083 C3.12705499,14.2392259 3.28007569,14.1372719 3.28007569,14.1372719 C3.28007569,14.1372719 3.43325205,14.2391463 3.57669922,14.4170083 C3.64768339,14.4603388 3.71391972,14.5179269 3.77455203,14.5884982 C3.84942787,14.607296 3.92010071,14.6385991 3.98439119,14.6836819 C4.23509295,14.8596323 4.33012768,15.2018156 4.26848353,15.5761782 C4.30662196,15.6256419 4.32748134,15.6787695 4.32748134,15.734207 C4.32748134,15.7897242 4.30662196,15.8426128 4.26848353,15.8920765 C4.33012768,16.2664391 4.23501512,16.6084631 3.98439119,16.7844931 C3.92010071,16.8297353 3.84942787,16.8612773 3.77455203,16.8796768 C3.71391972,16.9502481 3.64768339,17.0080752 3.57669922,17.0511667 C3.43325205,17.2291084 3.28030919,17.3309828 3.28030919,17.3309828 C3.28030919,17.3309828 3.12705499,17.2291881 2.98352998,17.0511667 C2.91262365,17.0080752 2.84654299,16.9501685 2.78583285,16.8796768 C2.71111267,16.8612773 2.640362,16.8297353 2.57607152,16.7844931 C2.32536975,16.6084631 2.23025719,16.2664391 2.29197917,15.8920765 C2.25384075,15.8426128 2.2330592,15.7897242 2.2330592,15.734207 C2.2330592,15.6787695 2.25384075,15.6256419 2.29197917,15.5761782 C2.23025719,15.2018156 2.32536975,14.8596323 2.57607152,14.6836819 Z" id="Path"></path>
                        <path d="M1.09472843,5.34813802 C1.30020892,5.20388895 1.52577046,5.10400583 1.76456369,5.04498399 C1.95759081,4.81956993 2.16914232,4.63469854 2.39454818,4.49737916 C2.85368811,3.92906492 3.3417821,3.60440496 3.3417821,3.60440496 C3.3417821,3.60440496 3.82995393,3.92906492 4.28909385,4.49721986 C4.51449972,4.63461889 4.72612905,4.81956993 4.91923401,5.04498399 C5.15818291,5.10392618 5.38366661,5.20388895 5.58906927,5.34813802 C6.38904217,5.90968187 6.69235939,7.00170545 6.49567409,8.19647961 C6.61732788,8.35411015 6.68371987,8.52368843 6.68371987,8.70059465 C6.68371987,8.87742123 6.61725004,9.04699951 6.49567409,9.20478935 C6.69235939,10.3994042 6.38912,11.4915074 5.58906927,12.0529716 C5.38358878,12.1972207 5.15818291,12.2971835 4.91923401,12.3562053 C4.72620689,12.5816194 4.51457755,12.7664908 4.28909385,12.9038101 C3.83003176,13.4719651 3.3420156,13.796625 3.3420156,13.796625 C3.3420156,13.796625 2.85376594,13.4721244 2.39454818,12.9038898 C2.16906448,12.7665704 1.95759081,12.5816194 1.76448586,12.3562053 C1.52561479,12.2972631 1.30013109,12.1972207 1.0946506,12.0529716 C0.294755533,11.4915074 -0.00856168699,10.3994042 0.188201447,9.20478935 C0.066547658,9.04691986 -3.02927041e-13,8.87742123 -3.02927041e-13,8.70059465 C-3.02927041e-13,8.52368843 0.066547658,8.35411015 0.188201447,8.19647961 C-0.00856168699,7.0016258 0.294833367,5.90960222 1.09472843,5.34813802 Z" id="Path"></path>
                        <path d="M3.57669922,2.91381522 C3.43325205,3.09167726 3.28030919,3.19355167 3.28030919,3.19355167 C3.28030919,3.19355167 3.12705499,3.09167726 2.98352998,2.91381522 C2.91698233,2.8731929 2.85494901,2.81950771 2.79735221,2.75491025 C2.79353837,2.75060907 2.78956886,2.74670614 2.78583285,2.74240495 C2.71111267,2.72360717 2.640362,2.69238374 2.57607152,2.64722128 C2.32536975,2.47127087 2.23025719,2.1290079 2.29197917,1.75472498 C2.25384075,1.70526133 2.2330592,1.65221336 2.2330592,1.59669619 C2.2330592,1.54117901 2.25384075,1.48829034 2.29197917,1.43866739 C2.23025719,1.06454378 2.32536975,0.722440108 2.57607152,0.546330397 C2.64043984,0.501167934 2.71111267,0.469705547 2.78583285,0.451146722 C2.84654299,0.380575395 2.91262365,0.322827978 2.98352998,0.279656805 C3.12705499,0.101794758 3.28007569,-6.04284511e-14 3.28007569,-6.04284511e-14 C3.28007569,-6.04284511e-14 3.43325205,0.101715107 3.57669922,0.279656805 C3.64768339,0.322827978 3.71391972,0.380655047 3.77455203,0.451146722 C3.84942787,0.469705547 3.92010071,0.501167934 3.98439119,0.546330397 C4.23509295,0.722440108 4.33012768,1.06454378 4.26848353,1.43866739 C4.30662196,1.48829034 4.32748134,1.54117901 4.32748134,1.59669619 C4.32748134,1.65221336 4.30662196,1.70526133 4.26848353,1.75472498 C4.33012768,2.1290079 4.23501512,2.47127087 3.98439119,2.64722128 C3.92010071,2.69238374 3.84942787,2.72360717 3.77455203,2.74240495 C3.77081602,2.74678579 3.76684651,2.75068872 3.76303267,2.75491025 C3.70543586,2.81958736 3.64324688,2.87327255 3.57669922,2.91381522 Z" id="Path"></path>
                    </g>
                </g>
            </g>
        </g>
    </g>
</svg>