<?xml version="1.0" encoding="UTF-8"?>
<svg width="29px" height="44px" viewBox="0 0 29 44" version="1.1" xmlns="http://www.w3.org/2000/svg" xmlns:xlink="http://www.w3.org/1999/xlink">
    <!-- Generator: Sketch 61.2 (89653) - https://sketch.com -->
    <title>cat_5_1</title>
    <desc>Created with Sketch.</desc>
    <g id="Page-2" stroke="none" stroke-width="1" fill="none" fill-rule="evenodd">
        <g id="Artboard" transform="translate(-603.000000, -322.000000)" fill-rule="nonzero" stroke="#D1A632" stroke-width="1.38599994">
            <g id="cat_5_1" transform="translate(605.000000, 324.000000)">
                <path d="M19.6425565,13.9967768 L25.9341633,20.8720901 C26.2711252,21.2570934 26.3719901,21.7950084 26.1938712,22.2853105 C25.9888852,22.8254666 25.4552888,23.1684484 24.9239017,23.1323361 L3.79970628,23.1323361 L3.79970628,39.7686984 C3.79970628,40.5195281 3.19099918,41.1282352 2.44016948,41.1282352 C1.68933977,41.1282352 1.08063268,40.5195281 1.08063268,39.7686984 L1.08063268,5.24590396 C0.0667594061,4.6960477 -0.601270313,3.64285766 -0.651834423,2.41959949 C-0.590850921,0.682382058 0.835700952,-0.694082928 2.58613329,-0.692885818 C4.29630688,-0.661773246 5.66628587,0.733581522 5.66413577,2.39359913 C5.73517011,3.37109813 5.31405469,4.27850533 4.60251137,4.86128684 L24.9408356,4.86148001 C25.4657644,4.87424628 25.9397164,5.17892971 26.187425,5.69173513 C26.3899058,6.18657248 26.2835214,6.75411849 25.9240018,7.13297012 L19.6425565,13.9967768 Z" id="Path"></path>
            </g>
        </g>
    </g>
</svg>