<?xml version="1.0" encoding="UTF-8"?>
<svg width="280px" height="237px" viewBox="0 0 280 237" version="1.1" xmlns="http://www.w3.org/2000/svg" xmlns:xlink="http://www.w3.org/1999/xlink">
    <!-- Generator: Sketch 61.2 (89653) - https://sketch.com -->
    <title>idea</title>
    <desc>Created with Sketch.</desc>
    <g id="Page-2" stroke="none" stroke-width="1" fill="none" fill-rule="evenodd">
        <g id="home-copy-13" transform="translate(-889.000000, -1273.000000)">
            <g id="Group-3" transform="translate(-462.000000, -382.000000)">
                <g id="Group-9" transform="translate(733.000000, 1602.000000)">
                    <g id="Group-18" transform="translate(0.000000, 53.000000)">
                        <g id="Group-6" transform="translate(216.000000, 0.000000)">
                            <g id="idea" transform="translate(402.000000, 0.000000)">
                                <path d="M53.5267205,217.703863 C-4.19674479,188.000662 -13.1791781,96.9732882 16.7234661,61.4642956 C46.6261103,25.955303 193.217086,-14.4216365 236.92095,5.09511154 C280.624815,24.6118596 291.597772,134.849547 267.445637,190.480302 C243.293501,246.111057 111.250186,247.407064 53.5267205,217.703863 Z" id="Path-2" fill="#F0FAF1" opacity="0.85"></path>
                                <circle id="Oval" fill="#FCFFFC" cx="140" cy="125" r="61"></circle>
                                <g id="lamp" transform="translate(94.000000, 56.000000)" fill-rule="nonzero">
                                    <path d="M71.8265625,101.41725 L21.1385624,101.41725 L21.1385624,97.1932502 C21.058125,90.373594 18.2768438,83.8653752 13.4052188,79.0927501 C-4.59215619,60.8478751 -4.41787501,31.4768439 13.7929688,13.4454377 C32.0048439,-4.58493764 61.3758751,-4.46634382 79.4413125,13.7104688 C97.505719,31.8883124 97.4428125,61.2603751 79.2990001,79.3588125 C74.5201939,84.062344 71.8286251,90.4870313 71.8265625,97.1932502 L71.8265625,101.41725 Z" id="Path" fill="#FFCB5A"></path>
                                    <path d="M25.3625624,109.86525 L67.6025625,109.86525 C69.9362813,109.86525 71.8265625,111.755531 71.8265625,114.08925 C71.8265625,116.421938 69.9362813,118.31325 67.6025625,118.31325 L25.3625624,118.31325 C23.029875,118.31325 21.1385624,116.421938 21.1385624,114.08925 C21.1385624,111.755531 23.029875,109.86525 25.3625624,109.86525 Z" id="Path" fill="#E1B240"></path>
                                    <path d="M33.8105624,126.76125 L59.1545625,126.76125 C61.4882813,126.76125 63.3785625,128.651531 63.3785625,130.98525 C63.3785625,133.317938 61.4882813,135.20925 59.1545625,135.20925 L33.8105624,135.20925 C31.4778751,135.20925 29.5865624,133.317938 29.5865624,130.98525 C29.5865624,128.651531 31.4778751,126.76125 33.8105624,126.76125 Z" id="Path" fill="#E1B240"></path>
                                    <g id="Group" transform="translate(16.896000, 42.240000)" fill="#FFFFFF">
                                        <polygon id="Path" points="0.018562368 0.0412500001 8.46656238 0.0412500001 8.46656238 8.48925002 0.018562368 8.48925002"></polygon>
                                        <polygon id="Path" points="16.9145624 8.48925002 25.3625624 8.48925002 25.3625624 59.1772501 33.8105624 59.1772501 33.8105624 8.48925002 42.2585624 8.48925002 42.2585624 0.0412500001 16.9145624 0.0412500001"></polygon>
                                        <polygon id="Path" points="50.7065625 0.0412500001 59.1545625 0.0412500001 59.1545625 8.48925002 50.7065625 8.48925002"></polygon>
                                    </g>
                                </g>
                            </g>
                        </g>
                    </g>
                </g>
            </g>
        </g>
    </g>
</svg>