<?xml version="1.0" encoding="UTF-8"?>
<svg width="221px" height="75px" viewBox="0 0 221 75" version="1.1" xmlns="http://www.w3.org/2000/svg" xmlns:xlink="http://www.w3.org/1999/xlink">
    <!-- Generator: Sketch 61.2 (89653) - https://sketch.com -->
    <title>M3lama-logo</title>
    <desc>Created with Sketch.</desc>
    <g id="Page-2" stroke="none" stroke-width="1" fill="none" fill-rule="evenodd">
        <g id="home-copy-13" transform="translate(-609.000000, -108.000000)" fill="#D1A632">
            <g id="Group-3" transform="translate(-462.000000, -382.000000)">
                <g id="Group-30" transform="translate(996.000000, 490.000000)">
                    <g id="M3lama-logo" transform="translate(75.000000, 0.000000)">
                        <path d="M50.7739882,46.1140737 C50.6222684,45.4462475 50.4100337,44.9608307 50.1065942,44.5964439 C49.8939272,44.1715422 49.7422074,43.9286177 49.6812602,43.8075877 C49.6812602,43.6558679 49.6812602,43.1397614 49.8329799,42.1378059 C49.9846997,41.1972298 50.1368517,40.5294036 50.1973667,40.1650168 C50.2583139,39.8010623 50.3490864,39.6489103 50.5008062,39.6489103 C50.5617534,39.6489103 50.7134732,39.7098576 50.8651929,39.8615773 C51.8062012,41.0148203 52.8989292,42.1987531 54.1429448,43.4432009 C54.6590513,43.9593074 54.8717183,44.2320572 54.8717183,44.3842092 C54.8717183,44.4447242 54.810771,44.5359289 54.6590513,44.5359289 C54.4468165,44.5359289 53.870195,44.3842092 52.9897017,44.1715422 C53.5663233,45.41599 54.0824298,46.6604377 54.5985363,47.814113 C55.3878248,49.8474171 55.8429841,51.5167666 55.8429841,53.0646539 C55.8429841,53.7934274 55.6912643,54.6734884 55.4180823,55.7662165 C55.0536956,57.0106643 54.6287938,57.9516725 54.0219148,58.6194988 C51.897406,61.0171896 48.3460399,63.6578049 43.3077338,66.4803975 C38.9368216,69.0302403 36.3869788,70.2746881 35.5981226,70.2746881 C35.4464028,70.2746881 33.3517192,70.7903624 29.1934741,71.7918856 C24.8229943,72.8240987 22.0609167,73.4616674 20.9681887,73.6133872 C19.8145134,73.8256219 19.0861721,73.9168267 18.7827326,73.9168267 C18.6310129,73.9168267 18.6310129,73.9168267 18.6310129,73.8563117 C18.6310129,73.7953644 19.4203014,73.3397729 20.9681887,72.6118639 C21.5448102,72.3084244 24.974714,70.8513096 31.1666954,68.2409518 C35.3854556,66.4198825 38.9670791,64.7501007 41.8808765,63.2022134 C46.1908413,60.8654698 49.3778207,58.8317335 51.6544815,57.162384 C53.3233988,55.856989 54.203892,54.9159807 54.203892,54.3091017 C54.203892,54.1573819 53.7789903,53.1558587 52.8989292,51.2435846 C51.8667162,49.1190758 51.138375,47.3585215 50.7739882,46.1140737" id="Fill-1"></path>
                        <path d="M32.2592073,46.1140737 C32.1074876,45.4462475 31.8948206,44.9608307 31.5913811,44.5964439 C31.3791463,44.1715422 31.2274266,43.9286177 31.1664793,43.8075877 C31.1664793,43.6558679 31.1664793,43.1397614 31.3181991,42.1378059 C31.4699188,41.1972298 31.6216386,40.5294036 31.6825858,40.1650168 C31.7431008,39.8010623 31.8343056,39.6489103 31.9860253,39.6489103 C32.0465403,39.6489103 32.1982601,39.7098576 32.3499798,39.8615773 C33.2909881,41.0148203 34.3837161,42.1987531 35.6281639,43.4432009 C36.1442704,43.9593074 36.3565052,44.2320572 36.3565052,44.3842092 C36.3565052,44.4447242 36.2959902,44.5359289 36.1442704,44.5359289 C35.9320357,44.5359289 35.3554142,44.3842092 34.4749209,44.1715422 C35.0515424,45.41599 35.5676489,46.6604377 36.0837554,47.814113 C36.8726117,49.8474171 37.3282032,51.5167666 37.3282032,53.0646539 C37.3282032,53.7934274 37.1760512,54.6734884 36.9033015,55.7662165 C36.5389147,57.0106643 36.1140129,57.9516725 35.5071339,58.6194988 C33.3821929,61.0171896 29.8308268,63.6578049 24.7925207,66.4803975 C20.4220408,69.0302403 17.872198,70.2746881 17.0833417,70.2746881 C16.931622,70.2746881 14.8369384,70.7903624 10.6786933,71.7918856 C6.30778119,72.8240987 3.54613587,73.4616674 2.45340784,73.6133872 C1.29973256,73.8256219 0.57139129,73.9168267 0.267951782,73.9168267 C0.116232028,73.9168267 0.116232028,73.9168267 0.116232028,73.8563117 C0.116232028,73.7953644 0.905520548,73.3397729 2.45340784,72.6118639 C3.03002935,72.3084244 6.45950094,70.8513096 12.6519146,68.2409518 C16.8706747,66.4198825 20.4522983,64.7501007 23.3660956,63.2022134 C27.6760605,60.8654698 30.8630398,58.8317335 33.1397006,57.162384 C34.8086179,55.856989 35.6891112,54.9159807 35.6891112,54.3091017 C35.6891112,54.1573819 35.2642094,53.1558587 34.3841484,51.2435846 C33.3519354,49.1190758 32.6235941,47.3585215 32.2592073,46.1140737" id="Fill-3"></path>
                        <path d="M185.228423,27.6974569 C185.512844,27.2232786 185.796832,26.9864056 186.033705,26.9864056 C186.27101,26.9864056 186.412788,27.0815006 186.412788,27.2708261 C186.412788,27.3654888 186.412788,27.4605838 186.318125,27.4605838 C185.939474,28.3609606 185.607506,29.1662424 185.323518,30.1137344 C187.218502,31.5829522 188.166426,33.0041902 188.071331,34.378313 C187.882006,35.9421936 187.692248,36.9372331 187.455375,37.2687688 C186.554998,38.4535661 185.560391,38.9744274 184.280931,38.9744274 C183.096134,38.9744274 182.480178,38.2638084 182.480178,36.7950228 C182.480178,36.4159396 182.480178,36.0844038 182.57484,35.7053206 C182.953924,32.7673172 183.8543,30.1137344 185.228423,27.6974569 M187.218502,35.0418168 C187.218502,34.4729758 186.223463,33.667694 184.328046,32.5779917 C183.71209,33.7623568 183.428102,34.7573963 183.428102,35.6577731 C183.428102,36.2261818 183.71209,36.4634871 184.233384,36.4634871 C184.70713,36.4634871 185.228423,36.2737293 185.891927,35.9897411 C186.507883,35.7053206 186.934082,35.3262373 187.218502,35.0418168" id="Fill-5"></path>
                        <path d="M41.1692633,45.8253739 C41.3585888,44.5459139 41.7852195,43.0771284 42.4482911,41.2763748 C43.0171321,39.902252 43.2540051,38.5281293 43.2540051,37.201554 C43.2540051,34.5479712 42.06964,32.0365986 39.7004777,29.6674363 C39.51072,29.4781108 39.4160572,29.288353 39.6053827,29.05148 L40.4110968,27.5826945 C40.5057595,27.4880317 40.6008545,27.4880317 40.79018,27.5826945 C43.1593423,29.5727735 44.4383701,32.4156818 44.4383701,36.1114194 C44.4383701,37.8175102 43.9646241,39.7600418 43.2540051,41.7501208 C42.4482911,43.7401999 42.06964,45.1143227 42.06964,45.8253739 C42.06964,47.3888222 42.5433861,48.194104 43.3486678,48.194104 C43.8228461,48.194104 44.3437074,47.57858 45.0072111,46.3937827 C45.0072111,46.29912 45.1023061,46.2044572 45.1023061,46.2044572 C45.1969689,46.1093622 45.1969689,46.1093622 45.1969689,46.2044572 C45.2916316,46.2044572 45.2916316,46.3937827 45.1969689,46.4884455 C44.7232229,49.2371233 43.9175088,50.5636986 42.8273743,50.5636986 C41.6430093,50.5636986 41.1217158,49.473564 41.1217158,47.1994967 C41.0746005,46.772866 41.0746005,46.29912 41.1692633,45.8253739" id="Fill-7"></path>
                        <path d="M125.708331,51.3002526 C125.708331,50.6285361 125.372905,49.229775 124.757381,46.935392 C123.805999,47.7467252 122.882713,48.614251 121.931331,49.4817768 C120.392521,50.8805378 119.301522,52.0277293 118.629805,52.9791116 C118.350139,53.3707301 118.238187,53.6503959 118.238187,53.8462051 C118.238187,54.3216802 118.713662,54.5174894 119.636948,54.5174894 C120.700283,54.5174894 121.931331,54.1820634 123.190475,53.6503959 C124.785045,52.9791116 125.596379,52.1677784 125.708331,51.3002526 M132.311383,36.8635345 C132.786858,36.1918179 132.982667,35.8001994 132.982667,35.5762939 C132.982667,35.5205337 132.982667,35.4362449 132.926907,35.4362449 C132.647241,35.4362449 132.059381,35.9117199 130.968382,36.7792457 C130.017,37.6467715 128.338573,39.269438 125.876477,41.4795323 C126.156142,42.1512488 126.268095,42.6267239 126.351952,42.9625821 C128.058475,41.3399156 130.073192,39.3251983 132.311383,36.8635345 M134.3261,63.4992124 C131.640098,63.4992124 129.569621,61.8203533 128.086571,58.6026843 C127.414854,56.9800177 126.79933,54.9095402 126.463904,52.4193479 C126.128046,54.4898254 125.456762,55.8323939 124.589236,56.4483502 C122.518759,57.9314 120.560234,58.6026843 118.685998,58.6026843 C117.287237,58.6026843 116.61552,57.8752075 116.61552,56.3083012 C116.61552,54.0139181 117.426853,51.8038238 119.105712,49.7333463 C119.832757,48.7823963 121.511616,47.1873937 124.141425,44.8372504 C124.085665,44.5571524 123.945616,44.1097736 123.66595,43.4384894 C121.035709,45.5923912 118.433996,47.3274427 115.747994,48.6700113 C113.873326,49.677586 112.726567,50.1530611 112.390276,50.1530611 C112.334948,50.1530611 112.334948,50.0973008 112.334948,50.0973008 C112.334948,49.9014915 113.481708,49.0339658 115.747994,47.550916 C118.153898,45.9282494 120.58833,44.1378699 123.078522,41.9835358 C122.938473,41.7034378 122.798857,41.3118193 122.686904,40.9759611 C122.826521,39.6329603 123.162379,38.4300085 123.553997,37.282817 C123.61019,37.0870077 123.694046,37.0031512 123.749807,37.0031512 C123.805999,37.0031512 123.945616,37.1989605 124.141425,37.6186752 C124.477283,38.2341992 124.869334,39.0174363 125.288617,40.025011 C126.491568,38.8778195 128.170427,37.3390095 130.184713,35.3804847 C131.667762,34.0932441 132.814954,33.4219599 133.73824,33.4219599 C134.353764,33.4219599 134.605766,33.7578181 134.605766,34.4291024 C134.605766,35.1565792 134.214147,36.1637217 133.402382,37.5067225 C132.25519,39.3813908 130.100856,41.8715831 126.827427,44.9492032 C127.359094,47.4951557 128.030378,50.3207741 128.702095,53.3983941 C129.093713,55.0772532 129.905047,56.4764465 131.052238,57.6232057 C132.115573,58.7703973 133.262765,59.3582573 134.353764,59.3582573 L134.353764,63.4992124" id="Fill-9"></path>
                        <path d="M195.551331,39.3414077 C203.272181,36.5244343 211.25411,33.5509865 219.705462,30.4206319 C220.018411,30.3164597 220.227188,30.3164597 220.33136,30.3164597 C220.33136,30.4206319 220.33136,30.5252364 220.227188,30.8381854 C219.809634,31.7247302 219.548988,32.246456 219.340211,32.4552327 C212.349431,35.0638615 204.107288,38.2456539 194.612484,42.0542087 C194.716657,41.2195339 195.030038,40.3325569 195.551331,39.3414077" id="Fill-11"></path>
                        <path d="M148.298495,16.3762239 C148.799905,17.6280199 150.364218,17.8160487 151.491094,17.940969 C152.304588,15.8134344 149.926781,16.2504392 149.049746,15.2502126 C149.550291,14.3113656 150.739411,13.8726319 151.740934,13.4347626 L179.089392,2.92114557 L179.59037,1.41950904 L151.177712,11.9958023 C149.488047,12.8092968 148.487388,14.5616384 148.298495,16.3762239" id="Fill-13"></path>
                        <path d="M119.482505,32.5986533 C119.658863,33.1752748 119.720675,33.9144223 119.668372,34.8152313 C119.618231,35.8915339 119.373578,36.4966839 118.935276,36.6311136 C118.750273,36.6873061 117.951043,36.5528764 116.538018,36.2273921 C114.981485,35.8448509 114.142488,35.4571226 114.022755,35.0646396 C113.909505,34.6950658 114.040477,33.10136 114.416535,30.2835222 C115.321666,30.7641842 116.495225,31.1756862 117.939372,31.5171638 C118.805601,31.7069215 119.319979,32.0669858 119.482505,32.5986533" id="Fill-15"></path>
                        <path d="M126.138507,29.9560064 C126.251756,30.3251479 126.295413,31.0068062 126.27164,31.9996844 C126.233602,33.1978815 126.069347,34.1073355 125.779307,34.7267498 C124.776487,34.5032765 123.765022,34.2944997 122.746209,34.1008517 C121.401911,33.7546195 120.67357,33.395852 120.560752,33.0267105 C120.59879,30.2611749 120.791142,28.8256726 121.137806,28.7197714 C124.329973,29.0819969 125.997161,29.4934989 126.138507,29.9560064" id="Fill-17"></path>
                        <path d="M151.282014,34.0642834 C150.642284,35.5901259 149.312683,37.0671242 147.393061,38.494846 C145.620836,39.8235825 143.99644,40.7589716 142.568719,41.4484103 C142.273492,41.6450841 140.59982,42.1866933 137.449149,43.3187561 C136.956817,43.5158621 136.710866,43.6139829 136.51376,43.6139829 C136.415207,43.6139829 136.317087,43.6139829 136.317087,43.5158621 C136.317087,43.4173091 136.612313,43.2206354 137.153923,42.8756999 C139.713707,41.4484103 143.307434,39.1838525 147.93467,36.1810117 C149.165286,35.3441757 150.002122,34.4580632 150.592576,33.7197801 C151.330859,32.8829441 151.823624,32.3906113 151.921744,32.3906113 L151.921744,32.4887321 C151.921744,32.5380086 151.724638,33.1288944 151.282014,34.0642834 M157.484802,23.1854151 C157.484802,23.3820889 157.385817,23.7758686 157.287696,24.1203719 C157.09059,24.7112577 156.893484,24.9572079 156.69681,24.9572079 C156.598257,24.9572079 156.30303,24.7605342 156.05708,24.3174779 C155.6633,23.9236981 155.416918,23.7265921 155.023138,23.7265921 C154.284423,23.7265921 153.595849,25.4988172 152.955686,29.0925438 C152.660027,30.7169393 152.315956,31.8490021 152.020297,32.4887321 C151.724638,32.8829441 151.527965,33.1288944 151.380567,33.1288944 C151.183461,33.1288944 151.084908,32.8336676 151.084908,32.4887321 C151.084908,31.8982786 150.789682,30.7169393 150.050966,28.7968848 C149.312683,27.0246597 148.820783,26.0404264 148.427003,26.0404264 C148.229897,26.0404264 148.131344,26.1389794 148.032791,26.2371002 C147.93467,26.3356532 147.836117,26.4342062 147.54089,26.4342062 C147.147111,26.4342062 146.802607,26.2371002 146.211722,25.7940439 C145.620836,25.2031582 145.473439,24.8590872 145.473439,24.5634281 C145.473439,24.4648751 145.670112,23.9725424 146.113169,23.2342594 C146.506948,22.5945293 146.752899,22.2007496 146.851452,22.2007496 C147.983514,22.2007496 148.918903,22.7912031 149.805016,24.0710954 C150.642284,25.4002642 151.330859,27.0246597 151.577673,29.0925438 C151.675794,29.2892175 151.675794,29.3877705 151.675794,29.4863235 C151.675794,29.5844443 151.774347,29.5844443 151.774347,29.4863235 C151.774347,29.3877705 151.774347,29.2892175 151.872468,29.0925438 C152.069574,27.8614957 152.51263,25.9911499 153.201637,23.6280391 C153.841799,21.8558141 154.727911,20.9701338 155.564747,20.9701338 C156.05708,20.9701338 156.401583,21.2653606 156.893484,21.8069698 C157.336972,22.4466998 157.484802,22.8404796 157.484802,23.1854151" id="Fill-19"></path>
                        <path d="M151.282014,34.0642834 C150.642284,35.5901259 149.312683,37.0671242 147.393061,38.494846 C145.620836,39.8235825 143.99644,40.7589716 142.568719,41.4484103 C142.273492,41.6450841 140.59982,42.1866933 137.449149,43.3187561 C136.956817,43.5158621 136.710866,43.6139829 136.51376,43.6139829 C136.415207,43.6139829 136.317087,43.6139829 136.317087,43.5158621 C136.317087,43.4173091 136.612313,43.2206354 137.153923,42.8756999 C139.713707,41.4484103 143.307434,39.1838525 147.93467,36.1810117 C149.165286,35.3441757 150.002122,34.4580632 150.592576,33.7197801 C151.330859,32.8829441 151.823624,32.3906113 151.921744,32.3906113 L151.921744,32.4887321 C151.921744,32.5380086 151.724638,33.1288944 151.282014,34.0642834 M157.484802,23.1854151 C157.484802,23.3820889 157.385817,23.7758686 157.287696,24.1203719 C157.09059,24.7112577 156.893484,24.9572079 156.69681,24.9572079 C156.598257,24.9572079 156.30303,24.7605342 156.05708,24.3174779 C155.6633,23.9236981 155.416918,23.7265921 155.023138,23.7265921 C154.284423,23.7265921 153.595849,25.4988172 152.955686,29.0925438 C152.660027,30.7169393 152.315956,31.8490021 152.020297,32.4887321 C151.724638,32.8829441 151.527965,33.1288944 151.380567,33.1288944 C151.183461,33.1288944 151.084908,32.8336676 151.084908,32.4887321 C151.084908,31.8982786 150.789682,30.7169393 150.050966,28.7968848 C149.312683,27.0246597 148.820783,26.0404264 148.427003,26.0404264 C148.229897,26.0404264 148.131344,26.1389794 148.032791,26.2371002 C147.93467,26.3356532 147.836117,26.4342062 147.54089,26.4342062 C147.147111,26.4342062 146.802607,26.2371002 146.211722,25.7940439 C145.620836,25.2031582 145.473439,24.8590872 145.473439,24.5634281 C145.473439,24.4648751 145.670112,23.9725424 146.113169,23.2342594 C146.506948,22.5945293 146.752899,22.2007496 146.851452,22.2007496 C147.983514,22.2007496 148.918903,22.7912031 149.805016,24.0710954 C150.642284,25.4002642 151.330859,27.0246597 151.577673,29.0925438 C151.675794,29.2892175 151.675794,29.3877705 151.675794,29.4863235 C151.675794,29.5844443 151.774347,29.5844443 151.774347,29.4863235 C151.774347,29.3877705 151.774347,29.2892175 151.872468,29.0925438 C152.069574,27.8614957 152.51263,25.9911499 153.201637,23.6280391 C153.841799,21.8558141 154.727911,20.9701338 155.564747,20.9701338 C156.05708,20.9701338 156.401583,21.2653606 156.893484,21.8069698 C157.336972,22.4466998 157.484802,22.8404796 157.484802,23.1854151" id="Fill-21"></path>
                        <path d="M122.41329,60.5666122 C122.41329,60.5666122 120.484158,66.0570518 120.484158,67.8374896 C120.484158,70.0138684 121.126914,71.0032887 122.264596,71.0032887 C122.907784,71.0032887 123.649525,70.2615477 124.53996,68.5796629 C124.688654,68.4309689 124.688654,68.3324159 124.787207,68.1837219 C124.787207,68.1837219 124.935901,68.1837219 124.935901,68.3324159 L124.935901,68.7279246 C124.193727,72.5364795 123.006769,74.4656113 121.473146,74.4656113 C119.791693,74.4656113 118.901258,73.0806823 118.901258,70.2615477 C118.901258,68.8766187 119.297199,67.0957486 120.03894,64.771108 C120.879667,62.4464675 122.41329,60.5666122 122.41329,60.5666122" id="Fill-23"></path>
                        <path d="M79.031252,21.3852667 C79.031252,22.0958857 78.8419265,22.9491473 78.557506,23.6597663 C78.08376,24.6548058 77.5624665,25.2232146 76.8989627,25.2232146 C75.8092605,25.2232146 75.0986414,24.5125955 74.6248954,23.04381 C74.0560544,24.8441313 73.1556776,25.7920556 71.8762176,25.7920556 C71.3078088,25.7920556 70.8816103,25.6022978 70.5025271,25.0810043 C70.1234438,24.5125955 69.8861386,23.7073138 69.8861386,22.711842 L69.8861386,20.4377747 C69.8861386,20.2480169 69.7914758,20.1533542 69.5070553,20.0586914 C69.3177298,19.9635964 69.127972,19.7738387 69.127972,19.4898504 C69.127972,18.9214417 69.3177298,18.4948109 69.7443605,18.0210649 C70.1234438,17.5473189 70.4549796,17.4051086 70.6443051,17.4051086 C70.9287256,17.4051086 71.0233883,17.8788546 71.0233883,18.8738942 C71.0233883,19.4423029 71.0233883,19.8689337 70.9287256,20.1533542 C70.8340628,20.5324374 70.7389678,20.8639732 70.7389678,21.0532987 C70.7389678,21.6221397 70.9287256,22.1434332 71.1180511,22.6171793 C71.4024716,23.2331355 71.7344396,23.517556 72.1135229,23.517556 C72.5872689,23.517556 73.0134674,23.2331355 73.4872134,22.8065048 C73.9613917,22.3803062 74.1036019,21.9065602 74.1036019,21.2430565 C74.1036019,20.8639732 74.0085069,20.3426797 73.8191814,19.4423029 C73.6294236,18.6370211 73.5347609,18.0681801 73.5347609,17.8788546 C73.5347609,17.6890969 73.6294236,17.4051086 73.8191814,16.9784779 C74.0085069,16.5993946 74.1036019,16.4100691 74.1982647,16.4100691 C74.3875902,16.4100691 74.6720107,16.9784779 74.8142209,18.0681801 C75.0982092,19.2529774 75.2879669,20.0582592 75.2879669,20.6271002 C75.2879669,22.1905485 75.856808,22.9011675 77.0887205,22.9011675 C77.5624665,22.9011675 77.8940023,22.6171793 77.988665,22.1905485 C76.9940577,20.3902272 76.4252167,19.0161044 76.4252167,18.0206326 C76.4252167,17.4522239 76.6149745,16.9309304 76.8989627,16.5518471 C77.0887205,16.2674266 77.1833832,16.0781011 77.278046,16.0781011 C77.373141,16.0781011 77.4678037,16.2674266 77.4678037,16.6465098 C77.5624665,17.1206881 77.5624665,17.5468866 77.7522243,17.9259699 C77.7522243,17.9259699 78.0362125,18.5419261 78.4628433,19.8213862 C78.8890418,20.4848899 79.031252,21.0061835 79.031252,21.3852667" id="Fill-25"></path>
                        <path d="M89.3191481,63.499904 C87.4812211,63.499904 85.7915558,62.640591 84.2505845,60.9211004 C83.0450392,59.5776674 81.8792609,56.4948603 80.7528174,51.6735437 C80.4364104,53.0169767 80.0015669,54.1140273 79.4487191,54.9633985 C78.0058686,57.1371838 75.535992,59.4985656 72.0382249,62.047544 C67.9478431,65.0114823 64.4799012,66.4936676 61.6343994,66.4936676 C58.6302618,66.4936676 57.1290575,64.260664 57.1290575,59.7950891 C57.1290575,56.2973221 58.4629811,52.315435 61.1308281,47.8494278 C61.6642246,46.9801731 62.0593012,46.5453296 62.3160577,46.5453296 C62.4349264,46.5453296 62.4941447,46.6339408 62.4941447,46.8124601 C62.4941447,47.1677696 62.3259994,47.6717731 61.9901412,48.3240384 C59.4606141,53.2050055 58.2650106,56.7715003 58.4037628,59.0243874 C58.5221993,61.1782892 59.7865306,62.255024 62.1976212,62.255024 C62.7707847,62.255024 63.965956,61.909224 65.7839995,61.2176239 C68.1155561,60.3086022 70.1808466,59.2020421 71.9790067,57.8979438 C73.5005267,56.7909516 74.6070867,55.9316385 75.2986867,55.3191403 C77.5515738,53.3035585 79.2014721,51.2585837 80.2488139,49.1833514 C80.1303774,48.5712854 79.9527226,47.6523218 79.7154174,46.4268931 C79.6363156,45.9924818 79.0138756,44.0361182 77.8480973,40.5578024 C76.9390755,38.0485911 76.020112,35.2817588 75.0912067,32.2586022 L75.6250355,28.7608351 C75.703705,28.6423986 75.7927485,28.5831804 75.8917338,28.5831804 C76.543999,28.5831804 78.0356938,32.1600492 80.3676826,39.3129224 C81.2166216,41.9215512 82.0966827,45.6760748 83.0057044,50.5769254 C83.539101,53.4812132 84.438181,55.7142168 85.7029445,57.2755038 C86.7891888,58.6587039 87.9951663,59.3503039 89.3191481,59.3503039 L89.3191481,63.499904 Z" id="Fill-27"></path>
                        <path d="M96.0772906,52.1178967 C96.1559601,55.911755 95.5732871,58.6682134 94.328407,60.3877039 C92.8263382,62.4629362 91.0480617,63.499904 88.9931451,63.499904 L88.9931451,59.3503039 C90.6331017,59.3503039 91.8481565,59.1134309 92.6387417,58.6388204 C93.2711235,58.2835109 93.80452,57.6411873 94.2393635,56.7122821 C94.2786983,56.6530638 94.2985818,56.4948603 94.2985818,56.2376716 C94.2985818,54.4200603 93.3009487,45.8239043 91.3048182,30.4505004 C90.9689599,27.8025368 90.7122034,24.818715 90.5345487,21.4990349 C90.4943494,21.3801662 90.3166947,21.1039584 90.0007199,20.6691149 C89.8822834,20.5109114 89.8230652,20.2934896 89.8230652,20.0168496 C89.8230652,19.4830209 90.1386077,18.2286313 90.7714217,16.2523843 C90.8107564,16.1144965 90.8704069,16.0449043 90.9495087,16.0449043 C91.1466147,16.0449043 91.423687,16.4996313 91.7794287,17.4086531 C93.8144618,21.2617297 94.8324105,23.7614315 94.8324105,24.9077585 C94.8324105,25.1052968 94.77276,25.2038498 94.6543235,25.2038498 C94.5553383,25.2038498 94.42696,25.1446315 94.2691888,25.026195 C94.2294218,24.9868603 93.705967,24.4136967 92.6983922,23.3071367 C93.705967,30.6579804 94.8324105,40.2617111 96.0772906,52.1178967" id="Fill-29"></path>
                        <path d="M103.220568,54.2816538 C103.299237,55.2697773 103.339004,56.2280756 103.339004,57.1565486 C103.339004,60.436894 102.95387,62.798708 102.183168,64.2411263 C101.886644,64.7939741 101.669223,65.0710463 101.530903,65.0710463 C101.313481,65.0710463 101.283656,64.4382323 101.442291,63.173901 C101.639397,61.5732792 101.649771,59.9034974 101.471684,58.1645557 C100.760633,52.513319 99.7720772,44.0161483 98.5077459,32.6734758 C98.3491102,30.5986757 98.0824119,27.6049121 97.7076512,23.692185 C97.6480007,23.4747633 97.3813024,22.8920903 96.9071241,21.9437337 C96.7886876,21.726312 97.1042301,20.4714902 97.8554807,18.1792684 C97.8952477,18.0409484 97.9540337,17.9717884 98.0335677,17.9717884 C98.2306737,17.9717884 98.5077459,18.3966901 98.8634877,19.2460614 C99.4755537,20.5501597 100.078542,21.854258 100.671589,23.1587885 C101.619946,25.1743703 102.094557,26.4291921 102.094557,26.9232539 C102.094557,27.0814574 102.034906,27.1601269 101.91647,27.1601269 C101.837368,27.1601269 101.70899,27.1009086 101.530903,26.9824721 C101.036841,26.6072791 100.512954,26.1326686 99.960106,25.5595051 C99.920339,26.1132173 100.325789,29.7493044 101.175593,36.4677664 C102.202619,44.4704431 102.884277,50.4086937 103.220568,54.2816538" id="Fill-31"></path>
                        <path d="M148.132597,59.5872633 C148.033612,58.5598051 147.648045,57.7199433 146.976329,57.0681103 C146.403165,56.4949468 145.780725,56.208365 145.109009,56.208365 C144.77315,56.2675833 144.269147,56.455612 143.59743,56.7711545 C144.822427,57.7791615 146.334437,58.7180086 148.132597,59.5872633 L148.132597,59.5872633 Z M158.714078,63.4999904 C156.580059,63.4999904 153.902271,62.3143287 150.681576,59.9430051 C150.52294,60.7729251 150.207398,61.6132191 149.733219,62.4625904 C149.179939,63.4507139 148.64611,63.9741687 148.132597,64.033387 C147.657987,64.0930375 146.729082,63.7269217 145.346314,62.9367687 C143.567605,61.9291939 142.056027,60.6246634 140.811579,59.0240416 C140.13943,59.9533791 139.24035,60.8723426 138.113907,61.7804999 C136.651173,62.9272592 135.396783,63.4999904 134.349441,63.4999904 L134.349441,59.3503903 C136.009281,59.3503903 137.34796,59.0932016 138.365476,58.5796886 C139.383425,58.0657433 140.465347,57.0681103 141.611242,55.585925 C141.848547,55.7047937 142.075478,55.6352015 142.293332,55.378445 C143.794536,53.5210667 145.198052,52.5921614 146.502583,52.5921614 C147.60871,52.5921614 148.468023,52.9033814 149.080954,53.5258214 C149.69302,54.1482615 150.305951,54.7758885 150.918449,55.407838 C154.258012,58.0363503 156.856699,59.3503903 158.714078,59.3503903 L158.714078,63.4999904 Z" id="Fill-33"></path>
                        <path d="M173.623504,63.499904 C170.066519,63.499904 167.586701,60.5951839 166.183617,54.7857438 C165.926429,57.8884343 164.968562,60.2001074 163.308722,61.7216274 C162.023643,62.9072892 160.492614,63.499904 158.714337,63.499904 L158.714337,59.3503039 C160.156323,59.3503039 161.510562,59.0537804 162.774894,58.4611656 C164.039225,57.8685508 164.720883,57.1868926 164.820301,56.4157586 C164.997955,54.8942385 165.037722,53.046802 164.938737,50.8730167 C164.860068,48.9957549 164.711374,47.2568131 164.494384,45.6561913 C164.019774,41.8229982 163.209305,35.726544 162.063842,27.3676933 C161.411577,23.0797732 161.075287,20.6094644 161.055835,19.9576314 C161.095602,20.2934896 161.341985,19.0585514 161.797144,16.2523843 C161.875381,16.1339478 161.964425,16.0747295 162.063842,16.0747295 C162.675908,16.0747295 163.526144,19.5232201 164.612821,26.4193368 C165.343756,31.0236639 165.986079,36.042951 166.539359,41.4767659 C166.835883,44.421253 167.131974,47.3752496 167.428497,50.3396202 C167.80369,53.3433255 168.722654,55.6848238 170.185388,57.3645473 C171.33085,58.6885291 172.47761,59.3503039 173.623504,59.3503039 L173.623504,63.499904 Z" id="Fill-35"></path>
                        <path d="M190.103901,52.9182076 C188.918239,52.5624658 187.781854,52.3748693 186.695177,52.3549858 C185.924475,52.3351023 185.084614,52.4340876 184.175592,52.6515093 C184.630319,53.0664694 185.391079,53.7481276 186.457872,54.6964841 C188.216697,53.7680111 189.431752,53.1753964 190.103901,52.9182076 L190.103901,52.9182076 Z M196.03221,63.4996879 C193.759439,63.4996879 190.311381,61.8104548 185.68717,58.4315565 C184.58061,59.1037053 182.772508,60.1311635 180.262865,61.5143636 C177.575999,62.8379131 175.362446,63.4996879 173.623504,63.4996879 L173.623504,59.35052 C176.093813,59.35052 177.970643,59.0838218 179.25529,58.549993 C180.184195,58.1549165 181.448959,57.4732582 183.04958,56.5045859 L182.901319,56.3563242 C180.944955,54.8352364 179.482221,54.0740441 178.514413,54.0740441 C177.763163,54.0740441 176.953126,54.2815241 176.083439,54.6964841 C176.00477,54.7163676 175.945552,54.7263094 175.905785,54.7263094 C175.787348,54.7263094 175.72813,54.6670911 175.72813,54.5482224 C175.72813,54.3705676 175.915726,53.8916346 176.291352,53.1105589 C176.666545,52.3303476 176.883966,51.7723128 176.943617,51.4360223 C176.943617,51.2981346 177.190432,51.0608293 177.684493,50.724971 C180.98429,49.341771 184.067097,48.6497387 186.932482,48.6497387 C187.248457,48.6497387 187.535039,48.6596805 187.791795,48.679564 C190.459642,48.9760875 192.811082,49.6378623 194.846548,50.6653205 C195.241624,50.863291 195.399396,51.070771 195.320726,51.2881928 L194.016628,54.4591789 C193.146508,54.7561346 191.506984,55.4870694 189.096326,56.6532799 C190.103901,57.2856617 190.874602,57.7395242 191.408431,58.0165965 C193.146508,58.9057347 194.687912,59.35052 196.03221,59.35052 L196.03221,63.4996879 Z" id="Fill-37"></path>
                        <path d="M210.022413,56.7122388 C210.00253,56.0007553 209.800237,55.3536771 209.415102,54.771004 C209.029535,54.1878988 208.61933,53.89613 208.184919,53.89613 C207.354999,53.89613 206.702733,54.113984 206.228555,54.5483953 C207.117693,55.3588641 207.621697,55.8032171 207.740566,55.8823188 C208.392399,56.3370458 209.152726,56.6132536 210.022413,56.7122388 M213.046002,57.0978059 C213.046002,58.1053806 212.818639,59.0636789 212.364344,59.9727007 C211.850399,60.9409407 211.256919,61.4250607 210.586067,61.4250607 C209.834385,61.4250607 208.708373,61.0598095 207.206737,60.3284424 C205.487679,59.4587554 204.231992,58.5008894 203.442271,57.4531154 C202.295944,59.3900277 201.525675,60.5756894 201.130598,61.0101007 C199.687748,62.6699407 197.988141,63.4998608 196.03221,63.4998608 L196.03221,59.3506929 C197.375643,59.3506929 198.649916,59.1034459 199.855461,58.6093841 C200.606711,58.2929771 201.534752,57.3247371 202.642177,55.7046641 C203.689518,54.1827118 204.321468,53.422384 204.53889,53.422384 C204.637875,53.422384 204.726486,53.491544 204.80602,53.6294318 C206.149453,51.0804534 207.611323,49.8057482 209.192493,49.8057482 C210.47714,49.8057482 211.464832,50.5863917 212.156432,52.1472465 C212.749911,53.4716605 213.046002,55.1215588 213.046002,57.0978059" id="Fill-39"></path>
                        <path d="M123.478699,17.7409237 C121.931677,17.0475946 121.130717,16.4070001 121.130717,15.9267704 C121.130717,15.7136711 121.344681,15.4997073 121.771312,15.2866081 C122.144776,15.0730766 122.465073,14.9663108 122.678172,14.9663108 C123.158834,14.9663108 123.478699,15.2330091 123.585465,15.8736036 C123.692231,16.5137659 123.692231,17.1007614 123.478699,17.7409237 M124.65269,18.3279192 C125.13292,16.9939956 125.346452,15.7668379 125.346452,14.6460136 C125.346452,13.4188558 124.972988,12.618761 124.332825,12.4052295 C123.478699,12.0853645 122.465073,12.5119953 121.237483,13.6323873 C120.010758,14.7527793 119.370163,15.9803694 119.370163,17.3142929 C119.370163,18.3810859 120.330623,19.5019102 122.251542,20.4087707 C120.810852,21.9562258 118.570068,23.7172123 115.581492,25.4245998 C113.127608,26.8652891 110.672861,28.4127442 108.218545,29.8534335 C107.737883,30.2268975 107.418018,30.440429 107.418018,30.5467625 C107.418018,30.6539605 107.418018,30.6539605 107.524784,30.6539605 C107.737883,30.6539605 108.005013,30.5467625 108.538842,30.3336632 C111.953617,29.1060732 113.661005,28.4127442 114.087636,28.3059784 C115.635091,27.5590504 117.396077,26.5449919 119.316996,25.1043026 C120.970785,23.8771448 122.304708,22.5432213 123.425533,20.9957662 C124.385992,21.529595 124.972988,22.0093925 125.186087,22.4364555 C126.09338,21.2092977 126.520443,20.302005 126.520443,19.7686085 C126.306911,19.3419777 125.666749,18.9680814 124.65269,18.3279192" id="Fill-41"></path>
                        <path d="M78.3360211,5.80593892 C76.7885661,5.11260991 75.9880391,4.47201539 75.9880391,3.99178563 C75.9880391,3.77825412 76.2020028,3.56472262 76.6286336,3.35162336 C77.0020976,3.13809185 77.3223948,3.0313261 77.5354941,3.0313261 C78.0157239,3.0313261 78.3360211,3.29802436 78.4427869,3.93861888 C78.5495526,4.57878114 78.5495526,5.16577666 78.3360211,5.80593892 M79.5100121,6.39293444 C79.9902419,5.0590109 80.2037734,3.83185312 80.2037734,2.71102884 C80.2037734,1.48387106 79.8303094,0.683344042 79.1897149,0.470244787 C78.3360211,0.149947529 77.3223948,0.57701054 76.0948048,1.69740257 C74.867647,2.8177946 74.2274848,4.04495238 74.2274848,5.37930816 C74.2274848,6.44610119 75.1879443,7.56692547 77.1088633,8.47378599 C75.6681741,10.021241 73.4269577,11.7822276 70.4388134,13.4896151 C67.9844979,14.9303044 65.5301823,16.4773272 63.0754345,17.9180165 C62.5952047,18.2919127 62.2753397,18.505012 62.2753397,18.6117777 C62.2753397,18.7185435 62.2753397,18.7185435 62.3821055,18.7185435 C62.5952047,18.7185435 62.8623352,18.6117777 63.3957317,18.3982462 C66.8105068,17.1710885 68.5183266,16.4773272 68.9449574,16.3709937 C70.4924124,15.6236334 72.253399,14.6100071 74.174318,13.1693179 C75.8281066,11.9421601 77.1620301,10.6082365 78.2824221,9.06078151 C79.2433139,9.59461027 79.8303094,10.0744078 80.0434087,10.5014708 C80.9507014,9.27431301 81.3777644,8.36702024 81.3777644,7.83362372 C81.1638007,7.40656071 80.5240707,7.0330967 79.5100121,6.39293444" id="Fill-43"></path>
                        <path d="M62.5397038,27.6290749 C62.5397038,27.6290749 60.6110043,33.1195145 60.6110043,34.8999523 C60.6110043,37.0763311 61.25376,38.0657514 62.3914421,38.0657514 C63.0346301,38.0657514 63.7763711,37.3235781 64.6663739,35.6421256 C64.8150679,35.4934316 64.8150679,35.3944464 64.9140531,35.2461846 C64.9140531,35.2461846 65.0623149,35.2461846 65.0623149,35.3944464 L65.0623149,35.7903874 C64.3205739,39.5989422 63.1336153,41.528074 61.5999923,41.528074 C59.9185397,41.528074 59.0276725,40.143145 59.0276725,37.3235781 C59.0276725,35.9386491 59.4236135,34.1582113 60.1653545,31.8335708 C61.006513,29.5089302 62.5397038,27.6290749 62.5397038,27.6290749" id="Fill-45"></path>
                        <path d="M38.9155982,19.3403351 C38.4068399,18.6284194 37.7965029,18.1196611 37.1861659,18.1196611 C36.0670706,18.1196611 35.1005596,19.3403351 34.1340485,21.5279524 C33.2691163,24.6812163 32.8113635,27.0214178 32.5576328,28.5978336 C32.4046162,29.0050131 32.3030375,29.1065919 32.3030375,29.1065919 C32.3030375,29.2086029 32.3030375,29.2086029 32.2014587,29.1065919 L32.2014587,28.5978336 C31.6927005,26.0039013 30.9803525,23.8167163 29.8612572,22.2398682 C28.7931674,20.5610092 27.4199091,19.6965092 26.0972241,19.6965092 C25.9986711,19.6965092 25.3256578,20.7027872 24.2649163,22.6639055 C24.231633,22.7209625 24.1979175,22.782342 24.164202,22.8502052 C23.5534328,24.0708793 21.9765847,25.6477273 19.5352367,27.4791706 C13.533013,31.4973667 8.90404765,34.295321 5.59776732,36.1263321 C4.83484605,36.5840848 4.47867204,36.9908321 4.47867204,37.0928431 L4.58025079,37.0928431 C4.83484605,37.0928431 5.19102006,36.9402588 5.80135707,36.8382478 C9.87055868,35.2613998 12.0577437,34.549484 12.4134855,34.295321 C14.3469398,33.4813943 16.4321138,32.2607202 18.6192989,30.5308557 C20.806484,28.9540076 22.5363485,26.9704123 23.7570225,24.7832273 C24.0198305,24.328068 24.2307685,23.9308303 24.3989138,23.586327 C24.5432853,23.7998585 24.7503331,24.046241 25.0291343,24.3254745 C25.8940666,24.9358115 26.3518193,25.2919855 26.8601454,25.2919855 C27.2163194,25.2919855 27.4704824,25.1394013 27.5724934,25.0373903 C27.5724934,24.7832273 27.8266564,24.6812163 28.0812516,24.6812163 C28.4369934,24.6812163 29.1493414,25.9023226 30.0138414,28.3436706 C30.9803525,30.6834399 31.4891107,32.260288 31.4891107,33.1252202 C31.4891107,33.582973 31.641695,33.8375683 31.7432737,33.8375683 C31.997869,33.8375683 32.252032,33.582973 32.608206,32.972636 C33.116532,32.108136 33.472706,30.6328667 33.82888,28.6998446 C34.6933801,23.9693005 35.6598911,21.629099 36.6264021,21.629099 C36.9825761,21.629099 37.4913344,21.8836942 37.8470761,22.4940312 C38.3558344,22.951784 38.6099974,23.2063792 38.7120084,23.2063792 C39.0681824,23.2063792 39.3223454,22.8502052 39.4239242,22.2398682 C39.6785194,21.629099 39.7800982,21.2733572 39.7800982,20.9171832 C39.7800982,20.5610092 39.5765084,19.9506722 38.9155982,19.3403351" id="Fill-47"></path>
                        <path d="M191.288784,12.8675641 C191.288784,13.1554426 191.206657,13.4428889 191.000906,13.9356539 C190.919211,14.4288512 190.71346,14.7162974 190.426013,14.7162974 C190.343454,14.7162974 190.138567,14.5109787 189.727497,14.1409727 C189.440051,13.6482076 189.028981,13.4428889 188.741535,13.4428889 C187.961324,13.4428889 187.18068,15.3326859 186.482164,19.1533438 C186.194718,20.7141986 185.907272,21.9054796 185.496634,22.6039956 C185.208756,23.0967606 185.003437,23.3020794 184.797686,23.3020794 C184.715991,23.3020794 184.592799,23.0967606 184.592799,22.7271869 C184.592799,22.0286709 184.18173,20.7552623 183.401086,18.8654653 C182.703002,16.8935407 182.127678,15.9075785 181.840231,15.9075785 C181.634913,15.9075785 181.429162,15.989706 181.429162,16.1950247 C181.347034,16.2775845 181.141715,16.4007757 180.854269,16.4007757 C180.443199,16.4007757 180.074058,16.1128972 179.37511,15.6201322 C178.799785,15.0448074 178.594898,14.6341699 178.676594,14.4288512 C179.580428,12.7443729 180.155753,11.8816019 180.238313,11.8816019 C181.30597,11.8816019 182.415556,12.5801179 183.277895,13.9356539 C184.18173,15.2090624 184.757054,16.9756682 185.167692,19.070784 L185.167692,19.4818538 C185.249819,19.5639813 185.249819,19.5639813 185.249819,19.4818538 C185.249819,19.4818538 185.331947,19.399294 185.455138,19.070784 C185.660457,17.7973755 186.030463,15.9075785 186.728547,13.3607614 C187.50919,11.5941556 188.290266,10.6081933 189.193669,10.6081933 C189.686866,10.6081933 190.179631,11.0188308 190.590701,11.5941556 C191.124097,12.0869206 191.288784,12.5801179 191.288784,12.8675641" id="Fill-49"></path>
                    </g>
                </g>
            </g>
        </g>
    </g>
</svg>