<?xml version="1.0" encoding="UTF-8"?>
<svg width="280px" height="237px" viewBox="0 0 280 237" version="1.1" xmlns="http://www.w3.org/2000/svg" xmlns:xlink="http://www.w3.org/1999/xlink">
    <!-- Generator: Sketch 61.2 (89653) - https://sketch.com -->
    <title>questions</title>
    <desc>Created with Sketch.</desc>
    <g id="Page-2" stroke="none" stroke-width="1" fill="none" fill-rule="evenodd">
        <g id="home-copy-13" transform="translate(-889.000000, -1757.000000)">
            <g id="Group-3" transform="translate(-462.000000, -382.000000)">
                <g id="Group-9" transform="translate(733.000000, 1602.000000)">
                    <g id="Group-18" transform="translate(0.000000, 53.000000)">
                        <g id="Group-7" transform="translate(281.000000, 484.000000)">
                            <g id="questions" transform="translate(337.000000, 0.000000)">
                                <path d="M53.5267205,217.703863 C-4.19674479,188.000662 -13.1791781,96.9732882 16.7234661,61.4642956 C46.6261103,25.955303 193.217086,-14.4216365 236.92095,5.09511154 C280.624815,24.6118596 291.597772,134.849547 267.445637,190.480302 C243.293501,246.111057 111.250186,247.407064 53.5267205,217.703863 Z" id="Path-2" fill="#F0FAF1" opacity="0.85"></path>
                                <circle id="Oval" fill="#FCFFFC" cx="141" cy="127" r="61"></circle>
                                <g id="emergency" transform="translate(73.000000, 54.000000)">
                                    <path d="M117.087057,129.467544 L134.202694,134.202694 L129.468581,117.087057 C133.737894,110.515533 136.219594,102.675146 136.219594,94.2547962 C136.219594,71.0780852 117.431507,52.2899989 94.2547962,52.2899989 C71.0780852,52.2899989 52.2899989,71.0780852 52.2899989,94.2547962 C52.2899989,117.431507 71.0780852,136.219594 94.2547962,136.219594 C102.675146,136.219594 110.515533,133.737894 117.087057,129.467544 L117.087057,129.467544 Z" id="Path" fill="#FFCB5A" fill-rule="nonzero"></path>
                                    <circle id="Oval" stroke="#FCFFFC" stroke-width="6" cx="51.5" cy="51.5" r="54.5"></circle>
                                    <path d="M51.957998,0 L30.7099994,51.9247966 L51.957998,103.849593 C80.5898836,103.849593 103.882795,80.5566822 103.882795,51.9247966 C103.882795,23.2929111 80.5898836,0 51.957998,0 Z" id="Path" fill="#E1B240" fill-rule="nonzero"></path>
                                    <path d="M0,51.9247966 C0,61.2560709 2.48377471,70.341458 7.20024953,78.3177575 L0.190899988,103.657656 L25.5318358,96.6493437 C33.5081353,101.365819 42.5935224,103.849593 51.9247966,103.849593 L51.9247966,0 C23.2929111,0 0,23.2929111 0,51.9247966 Z" id="Path" fill="#FFCB5A" fill-rule="nonzero"></path>
                                    <path d="M58.6244102,55.1373208 C55.0027423,57.9959441 54.9363599,59.9907941 54.9363599,63.4479497 C54.9363599,64.7115179 54.2778981,66.1735658 51.0509499,66.1735658 C48.3512307,66.1735658 47.429282,65.1765275 47.429282,61.7191141 C47.429282,56.001352 49.9318966,53.2754781 51.8414105,51.6134038 C54.0146665,49.7518188 57.7024614,47.6907231 57.7024614,44.1005602 C57.7024614,41.0424262 55.0683587,39.5793472 51.7755388,39.5793472 C45.0586661,39.5793472 46.5070779,44.6988348 42.9512818,44.6988348 C41.173256,44.6988348 39,43.5022857 39,40.9089034 C39,37.3189984 43.0830252,32 51.9734092,32 C60.4026912,32 66,36.7204661 66,42.9699992 C66,49.2195323 60.4026912,53.7410032 58.6244102,55.1373208 Z M56.1879226,75.8807701 C56.1879226,78.6063863 53.9485395,81 51.1170769,81 C48.2856143,81 46.112103,78.6063863 46.112103,75.8807701 C46.112103,73.0883926 48.351486,70.7612825 51.1170769,70.7612825 C53.8826678,70.7612825 56.1879226,73.0883926 56.1879226,75.8807701 Z" id="Shape" fill="#FDF6E7"></path>
                                </g>
                            </g>
                        </g>
                    </g>
                </g>
            </g>
        </g>
    </g>
</svg>