<?xml version="1.0" encoding="UTF-8"?>
<svg width="280px" height="237px" viewBox="0 0 280 237" version="1.1" xmlns="http://www.w3.org/2000/svg" xmlns:xlink="http://www.w3.org/1999/xlink">
    <!-- Generator: Sketch 61.2 (89653) - https://sketch.com -->
    <title>stars</title>
    <desc>Created with Sketch.</desc>
    <defs>
        <polygon id="path-1" points="79.1437554 74.0509817 49.3486363 91.7437562 56.9679726 57.9386756 30.9339863 35.069729 65.4376999 31.869143 79.1437554 0.043750003 92.8498109 31.869143 127.352157 35.069729 101.319538 57.9386756 108.938875 91.7437562"></polygon>
    </defs>
    <g id="Page-2" stroke="none" stroke-width="1" fill="none" fill-rule="evenodd">
        <g id="home-copy-13" transform="translate(-271.000000, -1510.000000)">
            <g id="Group-3" transform="translate(-462.000000, -382.000000)">
                <g id="Group-9" transform="translate(733.000000, 1602.000000)">
                    <g id="Group-18" transform="translate(0.000000, 53.000000)">
                        <g id="Group-8" transform="translate(0.000000, 237.000000)">
                            <g id="stars">
                                <path d="M53.5267205,217.703863 C-4.19674479,188.000662 -13.1791781,96.9732882 16.7234661,61.4642956 C46.6261103,25.955303 193.217086,-14.4216365 236.92095,5.09511154 C280.624815,24.6118596 291.597772,134.849547 267.445637,190.480302 C243.293501,246.111057 111.250186,247.407064 53.5267205,217.703863 Z" id="Path-2" fill="#F0FAF1" opacity="0.85"></path>
                                <circle id="Oval" fill="#FCFFFC" cx="141" cy="121" r="61"></circle>
                                <g id="star" transform="translate(61.000000, 70.000000)" fill-rule="nonzero">
                                    <path d="M148.499769,91.6980267 L145.445484,78.1470656 L155.881815,68.9789498 L142.050778,67.6949433 L136.556064,54.9363607 L131.061348,67.6949483 L117.229149,68.9789498 L127.666653,78.1470274 L124.612359,91.6980267 L136.556064,84.604514 L148.499769,91.6980267 Z" id="Path" stroke-opacity="0.2" stroke="#E1B240" stroke-width="2" fill="#FFCB5A"></path>
                                    <polygon id="Path" fill-opacity="0.65" fill="#D1A632" points="158.286144 68.1978562 142.734385 66.7541061 136.556064 52.4082067 137.652549 70.9568405 143.510947 71.9877002 137.811142 78.669146 149.985948 93.7437562 146.551572 78.5064506"></polygon>
                                    <path d="M33.6751523,91.6980267 L30.6208665,78.1470656 L41.0571781,68.9789669 L27.2247416,67.6949433 L21.7313452,54.9365967 L16.2367306,67.6949483 L2.4043483,68.9789669 L12.8406602,78.1470656 L9.786343,91.6981661 L21.7314729,84.6045295 L33.6751523,91.6980267 Z" id="Path" stroke-opacity="0.2" stroke="#E1B240" stroke-width="2" fill="#FFCB5A"></path>
                                    <polygon id="Path" fill-opacity="0.65" fill="#D1A632" points="43.4615263 68.1978562 27.9084003 66.7541061 21.7314469 52.4082067 22.8265641 70.9568405 28.6863303 71.9877002 22.9865249 78.669146 35.1613307 93.7437562 31.7269555 78.5064506"></polygon>
                                    <g id="Path">
                                        <use fill="#FFCB5A" xlink:href="#path-1"></use>
                                        <path stroke="#FCFFFC" stroke-width="2" d="M79.1437554,75.2140018 L47.8625146,93.789257 L55.8618802,58.2980818 L28.5293828,34.2884885 L64.7541107,30.9282601 L79.1437554,-2.48442344 L93.533401,30.9282623 L129.756669,34.2884885 L102.425627,58.2980646 L110.424996,93.789257 L79.1437554,75.2140018 Z"></path>
                                        <path stroke-opacity="0.2" stroke="#E1B240" stroke-width="3" d="M106.709692,88.6755051 L99.6604054,57.3995922 L123.745389,36.2415898 L91.8244258,33.2804639 L79.1437554,3.83601017 L66.4630835,33.2804673 L34.5408915,36.2415898 L58.6271112,57.3995664 L51.5778188,88.6755051 L79.1437554,72.3064516 L106.709692,88.6755051 Z" stroke-linejoin="square"></path>
                                    </g>
                                    <polygon id="Path" fill-opacity="0.65" fill="#D1A632" points="127.352157 35.069729 92.8498109 31.869143 79.1437554 0.043750003 81.5746148 41.193362 94.5738347 43.4779326 81.9300839 58.3023477 108.938875 91.7437562 101.319538 57.9386756"></polygon>
                                </g>
                            </g>
                        </g>
                    </g>
                </g>
            </g>
        </g>
    </g>
</svg>