<?xml version="1.0" encoding="UTF-8"?>
<svg width="134px" height="134px" viewBox="0 0 134 134" version="1.1" xmlns="http://www.w3.org/2000/svg" xmlns:xlink="http://www.w3.org/1999/xlink">
    <!-- Generator: Sketch 61.2 (89653) - https://sketch.com -->
    <title>statistics-icon</title>
    <desc>Created with Sketch.</desc>
    <defs>
        <circle id="path-1" cx="29.9700004" cy="29.9700004" r="29.9700004"></circle>
        <filter x="-89.3%" y="-84.3%" width="311.9%" height="311.9%" filterUnits="objectBoundingBox" id="filter-2">
            <feMorphology radius="3" operator="dilate" in="SourceAlpha" result="shadowSpreadOuter1"></feMorphology>
            <feOffset dx="10" dy="13" in="shadowSpreadOuter1" result="shadowOffsetOuter1"></feOffset>
            <feGaussianBlur stdDeviation="16" in="shadowOffsetOuter1" result="shadowBlurOuter1"></feGaussianBlur>
            <feColorMatrix values="0 0 0 0 0.645380435   0 0 0 0 0.645380435   0 0 0 0 0.645380435  0 0 0 0.44 0" type="matrix" in="shadowBlurOuter1"></feColorMatrix>
        </filter>
    </defs>
    <g id="Page-2" stroke="none" stroke-width="1" fill="none" fill-rule="evenodd">
        <g id="home-copy-18" transform="translate(-935.000000, -2177.000000)">
            <g id="Group-3" transform="translate(-462.000000, -382.000000)">
                <g id="Group-26" transform="translate(419.000000, 2500.000000)">
                    <g id="Group-23" transform="translate(396.000000, 0.000000)">
                        <g id="Group-24" transform="translate(0.000000, 83.000000)">
                            <g id="Group-17" transform="translate(541.680010, 0.000000)">
                                <g id="statistics-icon" transform="translate(67.000000, 0.000000)">
                                    <g id="Oval">
                                        <use fill="black" fill-opacity="1" filter="url(#filter-2)" xlink:href="#path-1"></use>
                                        <use fill="#FFFFFF" fill-rule="evenodd" xlink:href="#path-1"></use>
                                    </g>
                                    <g id="seo-and-web" transform="translate(17.000000, 15.000000)" fill="#D1A632" fill-rule="nonzero">
                                        <path d="M25.4242796,26.8058836 L22.1870597,22.6440477 C23.2360307,22.3306332 24.1421596,21.6597812 24.7481076,20.7479997 C25.5104636,19.4302357 25.1657276,17.8219997 24.8321636,16.2685598 C24.6304691,15.4705598 24.5097716,14.6542058 24.4719996,13.8319998 C24.5096386,13.0090623 24.6302696,12.1919768 24.8321636,11.3933118 C25.1635996,9.83880786 25.5104636,8.23163588 24.7481076,6.9159999 C23.9586196,5.55195192 22.3690037,5.04708393 20.8315237,4.55977193 C20.0661752,4.34890044 19.3249662,4.05862794 18.6199997,3.69367595 C17.9802697,3.27871595 17.3862917,2.79725596 16.8479078,2.25727597 C15.7072998,1.19859598 14.4140078,0 12.7679998,0 C11.1219918,0 9.82869986,1.19859598 8.68755987,2.25674397 C8.14937538,2.79685696 7.55553039,3.27851645 6.9159999,3.69367595 C6.21109991,4.05789644 5.47009042,4.34743744 4.70500793,4.55764393 C3.16752795,5.04495593 1.57791198,5.54982392 0.788423988,6.9138719 C0.0260679996,8.23163588 0.370803995,9.83987186 0.70436799,11.3933118 C0.906062487,12.1920433 1.02656048,13.0090623 1.06399998,13.8319998 C1.02636098,14.6549373 0.905729987,15.4720228 0.70383599,16.2706878 C0.372399995,17.8251917 0.0255359996,19.4323637 0.787891988,20.7479997 C1.39463798,21.6601137 2.30176447,22.3307662 3.35159995,22.6435157 L0.111719998,26.8053516 C-0.068627999,27.0373036 -0.0267994996,27.3715326 0.205218997,27.5518806 C0.316672995,27.6385301 0.457918993,27.6772996 0.597967991,27.6597436 L4.40176794,27.1846676 L5.34074792,30.4702996 C5.39574342,30.6628835 5.55427942,30.8082525 5.75091992,30.8464235 C5.78423642,30.852741 5.81808491,30.8559997 5.85199991,30.8559997 C6.01625491,30.8559997 6.17139941,30.7803225 6.27227991,30.6506476 L9.66963186,26.2807996 C10.5056698,27.0946931 11.6038508,27.5849976 12.7679998,27.6639996 C13.9321488,27.5849976 15.0303298,27.0946931 15.8663678,26.2807996 L19.2637197,30.6490516 C19.3642677,30.779325 19.5194122,30.8559997 19.6839997,30.8559997 C19.7179147,30.8559997 19.7517632,30.852741 19.7850797,30.8464235 C19.9817202,30.8082525 20.1402562,30.6628835 20.1952517,30.4702996 L21.1342317,27.1851996 L24.9380316,27.6602756 C25.2295676,27.6968506 25.4955676,27.4901686 25.5321426,27.1986326 C25.5496986,27.0585836 25.5109291,26.9173376 25.4242796,26.8058836 Z M6.07543991,29.1700916 L5.29925192,26.4536996 C5.22709942,26.2017311 4.98211343,26.0398701 4.72203193,26.0722556 L1.74283197,26.4446556 L4.41293994,23.0121917 L4.70713593,23.1063557 C5.47148692,23.3166952 6.21176491,23.6062362 6.9159999,23.9703236 C7.55572989,24.3852836 8.14970788,24.8667436 8.68809187,25.4067236 L8.87109987,25.5758996 L6.07543991,29.1700916 Z M12.7679998,26.5999996 C11.5390798,26.5999996 10.5054038,25.6423996 9.41054786,24.6273436 C8.81490737,24.0322351 8.15695638,23.5030947 7.44799989,23.0488997 C6.6766664,22.6451117 5.86470141,22.3241162 5.02580393,22.0912997 C3.61972795,21.6449517 2.29132397,21.2236077 1.70825197,20.2159997 C1.15177998,19.2536117 1.43905998,17.9124397 1.74389597,16.4919998 C1.96327947,15.6209163 2.09202347,14.7295503 2.12799997,13.8319998 C2.09222297,12.9344493 1.96367847,12.0430833 1.74442797,11.1719998 C1.43959198,9.75209186 1.15231198,8.41091988 1.70878397,7.44799989 C2.29398397,6.44039191 3.62025995,6.01904791 5.02633593,5.57269992 C5.86510041,5.33981692 6.6767994,5.01882143 7.44799989,4.61509993 C8.15675688,4.16090494 8.81457487,3.63169795 9.41001586,3.03665596 C10.5054038,2.02159997 11.5390798,1.06399998 12.7679998,1.06399998 C13.9969198,1.06399998 15.0305958,2.02159997 16.1254518,3.03665596 C16.7210923,3.63176445 17.3790432,4.16090494 18.0879997,4.61509993 C18.8593332,5.01888793 19.6712982,5.33988342 20.5101957,5.57269992 C21.9162717,6.01904791 23.2446757,6.44039191 23.8277477,7.44799989 C24.3842196,8.41038788 24.0969396,9.75155986 23.7921037,11.1719998 C23.5727202,12.0430833 23.4439762,12.9344493 23.4079997,13.8319998 C23.4437767,14.7295503 23.5723212,15.6209163 23.7915717,16.4919998 C24.0964076,17.9119077 24.3836876,19.2530797 23.8272157,20.2159997 C23.2420157,21.2236077 21.9157397,21.6449517 20.5096637,22.0912997 C19.6708992,22.3241827 18.8592002,22.6451782 18.0879997,23.0488997 C17.3792427,23.5030947 16.7214248,24.0323016 16.1259838,24.6273436 C15.0305958,25.6423996 13.9969198,26.5999996 12.7679998,26.5999996 Z M20.8166277,26.0722556 C20.5565462,26.0398701 20.3115602,26.2017311 20.2394077,26.4536996 L19.4605597,29.1700916 L16.6654318,25.5764316 L16.8484398,25.4072556 C17.3866242,24.8671426 17.9804692,24.3854831 18.6199997,23.9703236 C19.3248997,23.6061032 20.0659092,23.3165622 20.8309917,23.1063557 L21.1251877,23.0121917 L23.7958277,26.4446556 L20.8166277,26.0722556 Z" id="Shape"></path>
                                        <path d="M12.7679998,4.25599994 C7.47932139,4.25599994 3.19199995,8.54332137 3.19199995,13.8319998 C3.19199995,19.1206782 7.47932139,23.4079997 12.7679998,23.4079997 C18.0566782,23.4079997 22.3439997,19.1206782 22.3439997,13.8319998 C22.3378817,8.54584837 18.0541512,4.26218444 12.7679998,4.25599994 Z M12.7679998,22.3439997 C8.06698188,22.3439997 4.25599994,18.5330177 4.25599994,13.8319998 C4.25599994,9.13098187 8.06698188,5.31999992 12.7679998,5.31999992 C17.4690177,5.31999992 21.2799997,9.13098187 21.2799997,13.8319998 C21.2744137,18.5307567 17.4667567,22.3384137 12.7679998,22.3439997 Z" id="Shape"></path>
                                        <path d="M18.9062157,11.6098358 C18.7060507,11.3348583 18.3865847,11.1721328 18.0465037,11.1719998 L14.7895998,11.1719998 L13.7787998,8.07203588 C13.5953263,7.51376839 12.9940333,7.20999639 12.4357658,7.39346989 C12.1146373,7.49900539 11.8627353,7.75090739 11.7571998,8.07203588 L10.7490598,11.1719998 L7.48949589,11.1719998 C6.9018354,11.1717338 6.42522991,11.6478073 6.42496372,12.2354678 C6.42476441,12.5759478 6.5875564,12.8958793 6.8627999,13.0962438 L9.49939186,15.0114438 L8.49231588,18.1114077 C8.31063788,18.6702737 8.61647137,19.2705692 9.17527087,19.4521807 C9.49932536,19.5575167 9.85416936,19.5012577 10.1298119,19.3009597 L12.7679998,17.3862917 L15.4051238,19.3014917 C15.7765928,19.5774667 16.2849188,19.5774667 16.6563878,19.3014917 C17.0333762,19.0335632 17.1903162,18.5502412 17.0426197,18.1119397 L16.0355438,15.0114438 L18.6721357,13.0962438 C19.1472782,12.7504438 19.2520822,12.0849118 18.9062157,11.6098358 Z M15.0970958,14.3783638 C14.9104968,14.5139573 14.8324923,14.7543548 14.9039798,14.9736718 L16.0307558,18.4412477 L13.0808158,16.2983518 C12.8944163,16.1630243 12.6421153,16.1630243 12.4557158,16.2983518 L9.50577586,18.4412477 L10.6320198,14.9736718 C10.7032413,14.7544878 10.6253033,14.5144228 10.4389038,14.3788958 L7.48949589,12.2359998 L11.1352918,12.2359998 C11.3657808,12.2359998 11.5700023,12.0875718 11.6412238,11.8683878 L12.7679998,8.40081188 L13.8947758,11.8678558 C13.9659973,12.0870398 14.1702188,12.2354678 14.4007078,12.2354678 L18.0465037,12.2359998 L15.0970958,14.3783638 Z" id="Shape"></path>
                                    </g>
                                </g>
                            </g>
                        </g>
                    </g>
                </g>
            </g>
        </g>
    </g>
</svg>