<?xml version="1.0" encoding="UTF-8"?>
<svg width="133px" height="134px" viewBox="0 0 133 134" version="1.1" xmlns="http://www.w3.org/2000/svg" xmlns:xlink="http://www.w3.org/1999/xlink">
    <!-- Generator: Sketch 61.2 (89653) - https://sketch.com -->
    <title>statistics-icon3</title>
    <desc>Created with Sketch.</desc>
    <defs>
        <circle id="path-1" cx="29.9700004" cy="29.9700004" r="29.9700004"></circle>
        <filter x="-89.3%" y="-84.3%" width="311.9%" height="311.9%" filterUnits="objectBoundingBox" id="filter-2">
            <feMorphology radius="3" operator="dilate" in="SourceAlpha" result="shadowSpreadOuter1"></feMorphology>
            <feOffset dx="10" dy="13" in="shadowSpreadOuter1" result="shadowOffsetOuter1"></feOffset>
            <feGaussianBlur stdDeviation="16" in="shadowOffsetOuter1" result="shadowBlurOuter1"></feGaussianBlur>
            <feColorMatrix values="0 0 0 0 0.645380435   0 0 0 0 0.645380435   0 0 0 0 0.645380435  0 0 0 0.44 0" type="matrix" in="shadowBlurOuter1"></feColorMatrix>
        </filter>
    </defs>
    <g id="Page-2" stroke="none" stroke-width="1" fill="none" fill-rule="evenodd">
        <g id="home-copy-18" transform="translate(-394.000000, -2177.000000)">
            <g id="Group-3" transform="translate(-462.000000, -382.000000)">
                <g id="Group-26" transform="translate(419.000000, 2500.000000)">
                    <g id="Group-23" transform="translate(396.000000, 0.000000)">
                        <g id="Group-24" transform="translate(0.000000, 83.000000)">
                            <g id="Group-17-Copy" transform="translate(0.290003, 0.000000)">
                                <g id="statistics-icon3" transform="translate(67.000000, 0.000000)">
                                    <g id="Oval">
                                        <use fill="black" fill-opacity="1" filter="url(#filter-2)" xlink:href="#path-1"></use>
                                        <use fill="#FFFFFF" fill-rule="evenodd" xlink:href="#path-1"></use>
                                    </g>
                                    <g id="multimedia" transform="translate(18.000000, 18.000000)" fill="#D1A632" fill-rule="nonzero">
                                        <path d="M14.9309324,9.50752312 C14.6414969,9.21636986 14.3205698,8.95828269 13.9741156,8.73798532 C12.1372067,7.56101427 9.78961063,7.53572564 7.92774713,8.67285516 C7.53682307,8.91266772 7.17595909,9.19838154 6.85283719,9.52384144 L1.66966991,14.7070087 C-0.556540732,16.9332194 -0.556540732,20.5426227 1.66966991,22.7688333 C3.89588055,24.9950439 7.50528386,24.9950439 9.7314945,22.7688333 L14.0067045,18.4936233 C14.1663569,18.3352592 14.1674066,18.0774583 14.0090902,17.917806 C13.9320792,17.8401269 13.8270121,17.7967545 13.7176507,17.7973748 L13.5548014,17.7973748 C12.6615879,17.800524 11.7763427,17.6289907 10.9489751,17.2925088 C10.7965276,17.2297643 10.6213203,17.2651684 10.5051835,17.3820687 L7.43108797,20.4602199 C6.47651373,21.4147941 4.92884954,21.4147941 3.9742753,20.4602199 C3.01970107,19.5056457 3.01970107,17.9579815 3.9742753,17.0034072 L9.15744258,11.8120808 C10.1075794,10.8541188 11.654337,10.8477728 12.612299,11.7979096 C12.6170227,11.8026333 12.6217464,11.8073571 12.6264701,11.8120808 C13.2714734,12.427358 14.2860246,12.427358 14.9310278,11.8120808 C15.211159,11.5311384 15.3791137,11.1575824 15.4033526,10.7616006 C15.4330787,10.2951924 15.2610206,9.83842246 14.9309324,9.50752312 Z M14.3371267,11.2495758 C14.3369359,11.2497666 14.3366973,11.2500052 14.3365064,11.2501961 C14.0131937,11.5557591 13.5075642,11.5557591 13.1842514,11.2501961 C11.9123765,9.97913222 9.85111449,9.97913222 8.57923952,11.2501961 L3.40008025,16.4333633 C2.12844384,17.7061449 2.12935041,19.7687906 3.40213197,21.040427 C4.67491352,22.3120634 6.7375592,22.3111568 8.00919561,21.0383753 L10.8959644,18.1475031 C11.5009352,18.3691364 12.1316718,18.5128045 12.773001,18.5750241 L9.15739487,22.194686 C7.24600382,24.106077 4.14700142,24.106077 2.23561038,22.194686 C0.324219331,20.2832949 0.324219331,17.1842925 2.23561038,15.2729015 L7.42693682,10.0978456 C7.69976774,9.81990928 8.00456731,9.57527756 8.33489409,9.36900822 C9.10405017,8.90579685 9.98590767,8.66350314 10.8837495,8.66862201 C11.8187131,8.66746344 12.7344478,8.93456863 13.5221648,9.43824181 C13.8172306,9.62723854 14.0903478,9.84844249 14.3365064,10.0978456 C14.654666,10.4157667 14.6549523,10.9313685 14.3371267,11.2495758 Z" id="Shape"></path>
                                        <path d="M22.7688333,1.66966991 C20.5426227,-0.556540732 16.9332194,-0.556540732 14.7070087,1.66966991 L10.4358544,5.94082419 C10.3185724,6.05867876 10.2847429,6.23593774 10.3503502,6.38871924 C10.4151941,6.54193017 10.566735,6.64026955 10.7330674,6.63707268 L10.8837018,6.63707268 C11.7758656,6.63545039 12.6597271,6.80831965 13.4854724,7.14604216 C13.6379199,7.20878659 13.8131272,7.17338251 13.929264,7.05648224 L17.0074152,3.97833103 C17.9619895,3.02375679 19.5096537,3.02375679 20.4642279,3.97833103 C21.4188021,4.93290526 21.4188021,6.48056946 20.4642279,7.43514369 L16.6450244,11.246188 L16.6124355,11.2828327 L15.2810129,12.6264701 C14.3308761,13.5844321 12.7840708,13.5907781 11.8261565,12.6406413 C11.8214328,12.6359176 11.8167091,12.6311939 11.8119854,12.6264701 C11.1669821,12.011193 10.1524309,12.011193 9.50742769,12.6264701 C9.22729646,12.9074125 9.05934178,13.2809685 9.03510287,13.6769503 C9.00528137,14.1433585 9.17733949,14.6001285 9.50742769,14.9310278 C9.97870279,15.4043069 10.5300904,15.7902687 11.1360632,16.0710679 C11.2215674,16.1117683 11.3030159,16.148413 11.3925758,16.1810019 C11.4821357,16.2135908 11.5595285,16.2502355 11.6531441,16.278721 C11.7467598,16.3072065 11.8282083,16.3397954 11.9137125,16.3642252 L12.1539545,16.4293553 C12.3168037,16.4700557 12.4797006,16.5026446 12.6466056,16.5311301 C12.8476741,16.5609993 13.050174,16.5800374 13.2532942,16.5881488 L13.5382923,16.5881488 L13.8477201,16.5881488 C13.9372801,16.5881488 14.0309434,16.5881488 14.1368217,16.5637191 L14.2752411,16.5637191 L14.5561835,16.5230187 L14.6864915,16.4985889 L14.9226301,16.4497294 L14.9674339,16.4497294 C15.9675754,16.1985131 16.880829,15.6806687 17.6099049,14.9513541 L22.7688333,9.7314945 C24.9950439,7.50528386 24.9950439,3.89588055 22.7688333,1.66966991 Z M22.2028928,9.16550632 L17.0115664,14.3405621 C16.3820704,14.9710125 15.5922062,15.417333 14.7273828,15.6312843 L14.515674,15.6719847 L14.3935251,15.6964145 L14.1614423,15.7290034 L14.0230228,15.7290034 L13.79094,15.7493774 L13.5548014,15.7493774 L13.2779148,15.7493774 C13.1143021,15.7417431 12.9512143,15.7254248 12.7893194,15.7005179 C12.6508999,15.6760881 12.508377,15.6476026 12.3821724,15.6150137 L12.1745194,15.557995 C12.1052858,15.557995 12.0401556,15.5172946 11.9546514,15.4847057 C11.8691472,15.4521167 11.8080728,15.4317904 11.7307278,15.4032572 L11.5108598,15.3095938 C10.9912977,15.0688747 10.5184481,14.7380231 10.1143071,14.332403 C9.79609979,14.0141957 9.79609979,13.4983076 10.1143071,13.180148 C10.4325144,12.8619407 10.9484025,12.8619407 11.2665621,13.180148 C12.5384371,14.4512118 14.599699,14.4512118 15.871574,13.180148 L17.2233706,11.8120808 L17.2559595,11.7754361 L21.0425741,7.99287729 C22.3043814,6.72128859 22.3025682,4.66942636 21.0385184,3.40008025 C19.7671683,2.12729869 17.7047612,2.12615355 16.4319796,3.39750367 C16.4311208,3.39836253 16.4302619,3.39922139 16.429403,3.40008025 L13.5385308,6.29095244 C12.936232,6.06893735 12.3083105,5.9239333 11.6696533,5.85937572 L15.2812038,2.24376954 C17.1925948,0.332378492 20.2915972,0.332378492 22.2029883,2.24376954 C24.1142839,4.15516059 24.1142839,7.25411527 22.2028928,9.16550632 Z" id="Shape"></path>
                                    </g>
                                </g>
                            </g>
                        </g>
                    </g>
                </g>
            </g>
        </g>
    </g>
</svg>