<?xml version="1.0" encoding="UTF-8"?>
<svg width="133px" height="134px" viewBox="0 0 133 134" version="1.1" xmlns="http://www.w3.org/2000/svg" xmlns:xlink="http://www.w3.org/1999/xlink">
    <!-- Generator: Sketch 61.2 (89653) - https://sketch.com -->
    <title>statistics-icon2</title>
    <desc>Created with Sketch.</desc>
    <defs>
        <circle id="path-1" cx="29.9700004" cy="29.9700004" r="29.9700004"></circle>
        <filter x="-89.3%" y="-84.3%" width="311.9%" height="311.9%" filterUnits="objectBoundingBox" id="filter-2">
            <feMorphology radius="3" operator="dilate" in="SourceAlpha" result="shadowSpreadOuter1"></feMorphology>
            <feOffset dx="10" dy="13" in="shadowSpreadOuter1" result="shadowOffsetOuter1"></feOffset>
            <feGaussianBlur stdDeviation="16" in="shadowOffsetOuter1" result="shadowBlurOuter1"></feGaussianBlur>
            <feColorMatrix values="0 0 0 0 0.645380435   0 0 0 0 0.645380435   0 0 0 0 0.645380435  0 0 0 0.44 0" type="matrix" in="shadowBlurOuter1"></feColorMatrix>
        </filter>
    </defs>
    <g id="Page-2" stroke="none" stroke-width="1" fill="none" fill-rule="evenodd">
        <g id="home-copy-18" transform="translate(-665.000000, -2177.000000)">
            <g id="Group-3" transform="translate(-462.000000, -382.000000)">
                <g id="Group-26" transform="translate(419.000000, 2500.000000)">
                    <g id="Group-23" transform="translate(396.000000, 0.000000)">
                        <g id="Group-24" transform="translate(0.000000, 83.000000)">
                            <g id="Group-17" transform="translate(271.390007, 0.000000)">
                                <g id="statistics-icon2" transform="translate(67.000000, 0.000000)">
                                    <g id="Oval">
                                        <use fill="black" fill-opacity="1" filter="url(#filter-2)" xlink:href="#path-1"></use>
                                        <use fill="#FFFFFF" fill-rule="evenodd" xlink:href="#path-1"></use>
                                    </g>
                                    <g id="arrows-(2)" transform="translate(30.109993, 29.500000) rotate(-90.000000) translate(-30.109993, -29.500000) translate(16.609993, 17.000000)" fill="#D1A632" fill-rule="nonzero">
                                        <path d="M26.8354004,8.00170012 C26.6613004,7.40000011 26.2643004,6.9046001 25.7173004,6.6014001 C25.3720004,6.4113001 24.9822004,6.31070009 24.5884004,6.31070009 C24.0947004,6.31070009 23.6239004,6.4662001 23.2337003,6.7416001 C21.1687003,2.64390004 16.9700003,0 12.2785002,0 C5.50820008,0 -4.54747351e-13,5.50820008 -4.54747351e-13,12.2786002 C-4.54747351e-13,19.0497003 5.50820008,24.5585004 12.2786002,24.5585004 C13.5693002,24.5585004 14.6192002,23.5076004 14.6192002,22.2166003 C14.6192002,20.9256003 13.5693002,19.8759003 12.2786002,19.8759003 C8.08990012,19.8759003 4.68220007,16.4676002 4.68220007,12.2786002 C4.68220007,8.09000012 8.09050012,4.68230007 12.2786002,4.68230007 C14.8060002,4.68230007 17.1215003,5.94290009 18.5176003,7.95850012 C17.8727003,8.10440012 17.3094003,8.51930013 16.9828003,9.11140014 C16.6813002,9.65930014 16.6110002,10.2914002 16.7846003,10.8922002 C16.9582003,11.4930002 17.3551003,11.9893002 17.9028003,12.2916002 L20.2993003,13.6142002 C20.7329003,14.2411002 21.4396003,14.6194002 22.2167003,14.6194002 C22.3836003,14.6194002 22.5523003,14.6002002 22.7276003,14.5576002 C23.5365004,14.5185002 24.2739004,14.0639002 24.6666004,13.3506002 L26.6361004,9.78230015 C26.9387004,9.23510014 27.0084004,8.60220013 26.8354004,8.00170012 Z M25.7533004,9.29580014 L23.7844004,12.8642002 C23.5412004,13.3055002 23.0861003,13.5529002 22.6165003,13.5529002 C22.6104003,13.5529002 22.6032003,13.5506002 22.5961003,13.5506002 C22.4760003,13.5878002 22.3498003,13.6131002 22.2172003,13.6131002 C21.6917003,13.6131002 21.2414003,13.3056002 21.0252003,12.8631002 L18.3891003,11.4096002 C17.7442003,11.0541002 17.5100003,10.2435002 17.8662003,9.59860014 C18.2223003,8.95250013 19.0352003,8.72010013 19.6778003,9.07470014 L20.4068003,9.47610014 C19.2406003,6.10510009 16.0418002,3.67410005 12.2792002,3.67410005 C7.53420011,3.67410005 3.67520005,7.53310011 3.67520005,12.2780002 C3.67520005,17.0236003 7.53420011,20.8829003 12.2792002,20.8829003 C13.0148002,20.8829003 13.6123002,21.4804003 13.6123002,22.2160003 C13.6123002,22.9515003 13.0148002,23.5491004 12.2792002,23.5491004 C6.06400009,23.5491004 1.00820002,18.4936003 1.00820002,12.2780002 C1.00820002,6.06340009 6.06400009,1.00700002 12.2792002,1.00700002 C17.2746003,1.00700002 21.5152003,4.27660006 22.9899003,8.78560013 L23.4187003,8.00710012 C23.7759004,7.36280011 24.5872004,7.12830011 25.2309004,7.48320011 C25.8747004,7.84050012 26.1095004,8.65080013 25.7533004,9.29580014 Z" id="Shape"></path>
                                    </g>
                                </g>
                            </g>
                        </g>
                    </g>
                </g>
            </g>
        </g>
    </g>
</svg>