<?xml version="1.0" encoding="UTF-8"?>
<svg width="47px" height="27px" viewBox="0 0 47 27" version="1.1" xmlns="http://www.w3.org/2000/svg" xmlns:xlink="http://www.w3.org/1999/xlink">
    <!-- Generator: Sketch 61.2 (89653) - https://sketch.com -->
    <title>cat_1_1</title>
    <desc>Created with Sketch.</desc>
    <g id="Page-2" stroke="none" stroke-width="1" fill="none" fill-rule="evenodd">
        <g id="Artboard" transform="translate(-530.000000, -331.000000)" fill="#D1A632" fill-rule="nonzero">
            <g id="cat_1_1" transform="translate(530.000000, 331.000000)">
                <path d="M46.0655448,23.7342132 C45.9560854,23.3744838 45.7130226,23.0788985 45.3813112,22.9019617 L27.6099755,13.4239521 L45.3813112,3.94594245 C45.7130226,3.76900567 45.9559953,3.47342035 46.0654547,3.11369094 C46.1749141,2.75396152 46.1377069,2.37324114 45.9607701,2.04143963 L45.2717617,0.749819156 C44.9064467,0.0650449874 44.0521231,-0.194864692 43.3675292,0.170360209 L40.6588829,1.61495352 L37.2020391,0.34747717 C36.999697,0.273243001 36.7740215,0.300089824 36.5946523,0.419639268 C33.3760065,2.56531304 30.8987114,3.08125853 28.7130376,3.53648335 C26.6560124,3.96486135 24.8568248,4.33954571 23.0635832,5.91125603 C21.2703415,4.33954571 19.4711539,3.96495144 17.4141287,3.53648335 C15.228455,3.08134862 12.7511599,2.56531304 9.53251408,0.419639268 C9.35314487,0.299999734 9.12755948,0.273243001 8.92512723,0.34747717 L5.46828345,1.61504361 L2.7596372,0.170450299 C2.07486303,-0.194684512 1.22062955,0.0652251675 0.855404648,0.749909246 L0.166396249,2.04143963 C-0.0106306212,2.37315105 -0.0477477055,2.75405161 0.061621567,3.11378103 C0.17108093,3.47351044 0.414143777,3.76909576 0.745855195,3.94603254 L18.5171007,13.4239521 L0.745765105,22.9019617 C0.414053687,23.0788985 0.17108093,23.3744838 0.061621567,23.7342132 C-0.0478377955,24.0939426 -0.0106306212,24.4747531 0.166396249,24.8064645 L0.855404648,26.098085 C1.10846749,26.572499 1.5962148,26.8430393 2.09972787,26.8430393 C2.32297092,26.8430393 2.54936711,26.789706 2.75972729,26.6775439 L21.2191704,16.8325076 C21.4605215,16.703769 21.7290799,16.7681833 21.8676383,16.8180031 C22.253674,16.9568318 22.656016,17.0272822 23.0636733,17.0272822 C24.6874556,17.0272822 26.1018688,15.9417877 26.5293459,14.3791765 L44.7454559,24.0944832 C44.750591,24.0971859 44.7659964,24.1054741 44.7727531,24.1277264 C44.7795099,24.1499786 44.7713117,24.1654741 44.768609,24.1706092 L44.0796006,25.4621396 C44.065006,25.489527 44.0308619,25.4998873 44.0035646,25.4852927 L27.9394347,16.9177328 C27.6101557,16.7421473 27.2008768,16.8666517 27.0252914,17.1959307 C26.8497059,17.5252097 26.9743004,17.9344886 27.3034893,18.1100741 L43.3676192,26.677634 C43.5779794,26.7897961 43.8042855,26.8430393 44.0276187,26.8430393 C44.5310416,26.8430393 45.018879,26.572499 45.2719419,26.0981751 L45.9609503,24.8066447 C46.137797,24.4747531 46.1749141,24.0939426 46.0655448,23.7342132 L46.0655448,23.7342132 Z M28.9885329,4.85954525 C31.118531,4.41594203 33.7549251,3.86684342 37.0560032,1.7333318 L39.0596951,2.46801583 L24.908086,10.0153965 C24.6666448,10.1441352 24.3980865,10.0797208 24.2596182,10.0299911 C24.0890778,9.96863982 23.915204,9.92152274 23.7392583,9.88701827 L23.7392583,7.12368738 C25.3421397,5.61963466 26.9606968,5.28179712 28.9885329,4.85954525 L28.9885329,4.85954525 Z M1.3545033,2.72035795 C1.34774655,2.69810572 1.35594474,2.68261024 1.35864745,2.67747511 L2.04765584,1.38594472 C2.06225043,1.35855736 2.09639454,1.348197 2.12369181,1.36279159 L8.83503722,4.94215778 C9.16413603,5.11765312 9.57350503,4.99323882 9.74918055,4.66395983 C9.92476598,4.33468085 9.8001715,3.92540193 9.4709826,3.7498165 L7.06747122,2.46792574 L9.07116314,1.73324171 C12.3722413,3.86675333 15.0086354,4.41585194 17.1386335,4.85945516 C19.1664695,5.28179712 20.7850266,5.61963466 22.3879081,7.12368738 L22.3879081,9.88521647 C22.0818723,9.9435948 21.7884492,10.0408019 21.5133143,10.1724234 L12.4022413,5.31314845 C12.0729623,5.13765311 11.6636834,5.26206741 11.4880979,5.5913464 C11.3125125,5.92062539 11.437107,6.3299043 11.7662959,6.50548973 L20.3353874,11.0756659 C19.9971895,11.4703502 19.7418744,11.942602 19.5979106,12.4688178 L1.38180058,2.75360116 C1.37666545,2.75089846 1.36126006,2.74261018 1.3545033,2.72035795 Z M25.2379957,13.9789065 C24.9858337,14.9780048 24.0916003,15.6757519 23.0635832,15.6757519 C22.8123221,15.6757519 22.5637638,15.6321483 22.3248451,15.5462925 C21.7217826,15.3293558 21.1031345,15.3626891 20.5831349,15.6400762 L2.12369181,25.4851126 C2.09648463,25.4997972 2.06225043,25.4892567 2.04765584,25.4619594 L1.35864745,24.170339 C1.35594474,24.1652939 1.34765646,24.1497984 1.3545033,24.1275462 C1.36126006,24.105294 1.37675554,24.0970057 1.38180058,24.094303 L19.8460185,14.2467441 C20.3641261,13.9704381 20.7345762,13.4810691 20.8891707,12.8689075 C21.1413326,11.8698093 22.0355661,11.1720622 23.0635832,11.1720622 C23.3149343,11.1720622 23.5634026,11.2156657 23.8023213,11.3015215 C24.4053838,11.5184583 25.0240319,11.4850349 25.5440314,11.2077378 L44.0034745,1.36279159 C44.0307718,1.348197 44.0649159,1.35864745 44.0795105,1.38594472 L44.7685189,2.67747511 C44.7712216,2.68261024 44.7795099,2.69801563 44.772663,2.72026786 C44.7658162,2.74252009 44.7504108,2.75080837 44.7453658,2.75351107 L26.2811479,12.60116 C25.7630402,12.8774661 25.3925901,13.3667449 25.2379957,13.9789065 L25.2379957,13.9789065 Z" id="Shape"></path>
                <path d="M22.3916018,13.4239521 C22.3916018,13.7971049 22.6977276,14.0996272 23.0709706,14.0996272 C23.4441234,14.0996272 23.7466456,13.7971049 23.7466456,13.4239521 C23.7465555,13.0507993 23.4440333,12.748277 23.0708805,12.748277 C22.6904304,12.748277 22.3916018,13.0507993 22.3916018,13.4239521 Z" id="Path"></path>
            </g>
        </g>
    </g>
</svg>